<?xml version="1.0" standalone="yes"?>
<svg xmlns="http://www.w3.org/2000/svg" width="247" height="286">
<path style="fill:#888888; stroke:none;" d="M0 0C6.43614 2.70071 16.049 1 23 1L73 1L247 1C240.564 -1.70071 230.951 0 224 0L174 0L0 0z"/>
<path style="fill:#ababab; stroke:none;" d="M0 1C6.43614 3.70071 16.049 2 23 2L73 2L247 2C240.564 -0.700714 230.951 1 224 1L174 1L0 1z"/>
<path style="fill:#cacaca; stroke:none;" d="M0 2C6.43614 4.70071 16.049 3 23 3L73 3L247 3C240.564 0.299286 230.951 2 224 2L174 2L0 2z"/>
<path style="fill:#e0e0e0; stroke:none;" d="M0 3C6.43615 5.70071 16.049 4 23 4L73 4L247 4C240.564 1.29929 230.951 3 224 3L174 3L0 3z"/>
<path style="fill:#f5f5f5; stroke:none;" d="M0 4L0 8L247 8L247 4L0 4z"/>
<path style="fill:#f6f6f6; stroke:none;" d="M0 8L0 286L247 286L247 8L0 8z"/>
<path style="fill:#f6f5f5; stroke:none;" d="M49 47L49 51L46 51C44.5527 56.5012 40.2502 61.2804 37.6921 66.4252C33.5869 74.6816 30.2523 83.9066 28.6157 93C25.2699 111.59 27.7581 132.609 34.6458 149.999C37.6305 157.535 43.9921 164.368 46 172L49 172L49 176C53.3703 178.224 56.1138 182.476 59.9599 185.465C68.9865 192.48 78.6362 198.431 89.2855 202.816C99.3597 206.965 111.135 207.154 121.83 206.884C136.777 206.507 149.661 205.638 163.715 199.816C170.671 196.935 175.977 191.681 183 189L183 185C195.015 181.977 204.064 164.233 208.726 154C224.766 118.797 220.943 74.2318 193.2 45.4151C165.56 16.7053 121.36 6.78894 84.1698 22.7454C75.2434 26.5752 67.574 31.6182 59.9599 37.5355C56.1138 40.5245 53.3703 44.7761 49 47z"/>
<path style="fill:#f5ece2; stroke:none;" d="M97 24C103.255 25.9229 110.592 21.5391 117 21.0895C127.713 20.3379 138.354 23.1598 149 24C143.051 20.413 134.801 20.0026 128 20C117.208 19.9958 107.247 20.1343 97 24z"/>
<path style="fill:#f5e2ce; stroke:none;" d="M113 21C117.974 23.0872 124.638 22 130 22C125.026 19.9128 118.362 21 113 21z"/>
<path style="fill:#f5d3b0; stroke:none;" d="M106 23C110.923 24.5143 117.725 22.8854 123 23.0146C129.719 23.1793 136.259 24.9442 143 25C133.511 19.918 116.262 20.5567 106 23z"/>
<path style="fill:#f5c18c; stroke:none;" d="M91 28C95.3014 29.7375 99.6588 27.3233 104 26.4035C112.471 24.6088 120.36 24 129 24C117.942 19.3598 101.877 24.9135 91 28z"/>
<path style="fill:#f5e1cd; stroke:none;" d="M139 23C142.933 25.1411 147.542 26.5532 152 27C148.359 23.5452 143.882 23.1013 139 23z"/>
<path style="fill:#f5d3b2; stroke:none;" d="M100 24C102.052 24.8742 103.747 24.9528 106 25C103.948 24.1258 102.253 24.0472 100 24z"/>
<path style="fill:#f5ae66; stroke:none;" d="M113 24C117.974 26.0872 124.638 25 130 25C125.026 22.9128 118.362 24 113 24z"/>
<path style="fill:#f5bf89; stroke:none;" d="M130 24C132.052 24.8742 133.747 24.9528 136 25C133.948 24.1258 132.253 24.0472 130 24z"/>
<path style="fill:#f4d7b9; stroke:none;" d="M66 42C70.5013 40.7768 73.9809 37.7463 78 35.4282C84.9012 31.4478 92.1689 27.638 100 26C95.3398 24.1 91.1788 26.5174 87 28.7029C79.7838 32.4772 71.1316 35.4451 66 42z"/>
<path style="fill:#f49a3d; stroke:none;" d="M93 29C98.054 31.101 102.964 28.3457 108 27.2863C115.291 25.7524 122.596 26 130 26C118.91 21.3465 104.024 26.7296 93 29z"/>
<path style="fill:#f4aa5e; stroke:none;" d="M130 25C132.613 26.0977 135.165 25.9928 138 26C135.387 24.9023 132.835 25.0072 130 25z"/>
<path style="fill:#f5c492; stroke:none;" d="M138 25C141.121 26.4009 144.589 26.7304 148 27C144.891 24.876 141.696 25.0106 138 25z"/>
<path style="fill:#f4902a; stroke:none;" d="M106 27C110.155 28.7271 114.612 27.1205 119 27.0146C126.998 26.8217 134.968 28 143 28C132.436 22.9233 117.256 26.5166 106 27z"/>
<path style="fill:#f4b370; stroke:none;" d="M138 26C141.659 27.7619 145.976 28.4582 150 29C146.414 26.4449 142.331 26.0899 138 26z"/>
<path style="fill:#f5ece2; stroke:none;" d="M50 58C56.6941 53.0697 61.5471 45.6522 68 40.206C74.2894 34.8978 82.4443 31.1457 90 28C85.6996 26.8208 80.8092 30.1413 77 32.1088C66.6823 37.4381 53.2319 46.1308 50 58z"/>
<path style="fill:#f47c00; stroke:none;" d="M109 194C99.343 178.034 85.7146 165.479 75.1597 150.174C72.9199 146.926 68.1037 145.416 66.6026 141.856C64.8636 137.733 66 131.404 66 127L66 93C66 84.0052 65.8357 74.9931 66.0046 66C66.06 63.0498 66.271 58.5907 69.9691 57.8819C73.7229 57.1625 77.1365 62.5119 78.9861 65.0039C83.8077 71.4997 89.044 85.2676 98.0008 85.9452C110.19 86.8674 122.774 86 135 86C139.586 86 146.698 87.3147 150.816 84.9722C155.525 82.293 159.774 74.4478 162.795 69.9969C165.216 66.4301 171.656 54.2947 177.397 59.7469C181.259 63.4153 179 76.0386 179 81L179 141C173.707 142.746 172.13 148.582 168.382 152.296C159.882 160.719 153.075 170.857 145.246 179.985C141.124 184.792 135.185 188.58 132 194C149.577 194 163.088 186.457 176.171 175.251C179.405 172.48 183.556 170.965 186.485 167.871C208.152 144.988 209.663 111.784 201.725 83C200.899 80.0048 201.037 76.8826 199.772 74C192.416 57.2361 177.445 46.3872 162 37.9715C155.751 34.5664 149.674 30.3487 142.715 28.4699C137.251 26.995 129.689 27.1541 124 27.0146C79.8345 25.9325 44.3663 59.6956 39.1844 103C34.8042 139.605 56.0704 176.193 90.9105 188.665C97.041 190.86 102.331 193.843 109 194z"/>
<path style="fill:#f4cca4; stroke:none;" d="M148 27C151.717 29.7801 156.505 30.9602 161 32C157.52 28.6952 152.723 27.4707 148 27z"/>
<path style="fill:#f5eee5; stroke:none;" d="M152 27C154.756 28.9637 157.716 29.2132 160.83 30.409C164.833 31.9458 167.61 34.4249 172 35C166.817 29.7466 159.29 27.0805 152 27z"/>
<path style="fill:#f4902a; stroke:none;" d="M144 28C147.668 32.8448 158.212 35.3484 164 37C159.203 31.8261 150.892 29.0186 144 28z"/>
<path style="fill:#f4aa5f; stroke:none;" d="M82 35L93 30C88.5196 28.4499 84.3739 31.2402 82 35z"/>
<path style="fill:#f4ad64; stroke:none;" d="M150 29C151.248 29.6848 151.548 29.7488 153 30C151.752 29.3152 151.452 29.2512 150 29z"/>
<path style="fill:#f4922e; stroke:none;" d="M84 34C88.5896 34.9493 93.3006 31.4808 98 31C93.0131 28.9277 88.3652 31.4647 84 34z"/>
<path style="fill:#f4a655; stroke:none;" d="M153 30C154.543 31.2666 155.048 31.4893 157 32C155.457 30.7333 154.952 30.5108 153 30z"/>
<path style="fill:#f5dbbf; stroke:none;" d="M160 30C161.539 32.179 162.355 32.5734 165 33C163.372 31.2565 162.303 30.6169 160 30z"/>
<path style="fill:#f4b26e; stroke:none;" d="M157 31C158.98 32.8842 160.31 33.4693 163 34C161.051 32.4267 159.412 31.7091 157 31z"/>
<path style="fill:#f4bb81; stroke:none;" d="M70 41C74.6389 39.3017 78.7928 36.5754 83 34C78.1961 33.2149 72.9734 37.5058 70 41z"/>
<path style="fill:#f4c696; stroke:none;" d="M163 33C164.223 34.1952 164.42 34.3164 166 35C164.777 33.8048 164.58 33.6836 163 33z"/>
<path style="fill:#f4d7b9; stroke:none;" d="M165 33C166.223 34.1952 166.42 34.3164 168 35C166.777 33.8048 166.58 33.6836 165 33z"/>
<path style="fill:#f4891b; stroke:none;" d="M155 34C159.487 37.7562 165.061 39.6449 170 42.7068C174.762 45.6592 178.924 49.6753 184 52C178.856 43.0489 164.961 35.7689 155 34z"/>
<path style="fill:#f4a350; stroke:none;" d="M161 34C163.187 36.0321 165.155 37.0941 168 38C165.844 35.5419 164.21 34.641 161 34z"/>
<path style="fill:#f49d44; stroke:none;" d="M71 42L84 36C79.0984 34.3195 74.06 38.4039 71 42z"/>
<path style="fill:#f4cba1; stroke:none;" d="M166 35C168.344 37.6079 170.687 38.8579 174 40C171.669 36.9369 169.823 35.5886 166 35z"/>
<path style="fill:#f5dec8; stroke:none;" d="M170 35C171.836 37.4469 173.237 38.7005 176 40C174.164 37.5531 172.763 36.2995 170 35z"/>
<path style="fill:#f48a1e; stroke:none;" d="M71 44C74.9364 42.3657 78.2389 40.253 81 37C76.8484 38.5229 73.733 40.5095 71 44z"/>
<path style="fill:#f49d42; stroke:none;" d="M168 38C170.299 40.9707 172.495 42.6407 176 44C173.713 40.8551 171.764 39.0567 168 38z"/>
<path style="fill:#f4b779; stroke:none;" d="M173 40C174.624 42.0436 175.643 42.8965 178 44C176.376 41.9564 175.357 41.1035 173 40z"/>
<path style="fill:#f5cea6; stroke:none;" d="M175 40C177.503 43.542 180.054 46.1591 184 48C181.497 44.458 178.946 41.8409 175 40z"/>
<path style="fill:#f5e1cd; stroke:none;" d="M177 40C179.491 43.5468 182.219 46.8344 186 49C184.023 44.7641 181.236 41.9769 177 40z"/>
<path style="fill:#f4ae66; stroke:none;" d="M58 53C62.8175 49.6463 67.5639 45.7773 71 41C65.6386 43.4558 60.5293 47.6211 58 53z"/>
<path style="fill:#f4cea6; stroke:none;" d="M55 54C59.8398 51.1267 64.5873 46.4624 68 42C61.9212 43.6561 57.4318 48.2724 55 54z"/>
<path style="fill:#f49330; stroke:none;" d="M44 78C48.8254 71.7937 51.8762 64.2666 56.8187 58C61.4147 52.1727 67.7023 47.9752 72 42C60.2118 47.3997 45.4379 64.7471 44 78z"/>
<path style="fill:#f4a85a; stroke:none;" d="M176 44C178.427 46.588 180.775 48.5211 184 50C182.058 46.6557 179.715 45.0147 176 44z"/>
<path style="fill:#f48412; stroke:none;" d="M49 70C55.5487 64.1677 61.9394 55.1909 67 48C59.0872 51.6925 51.7216 61.778 49 70z"/>
<path style="fill:#f5ca9f; stroke:none;" d="M184 49L193 60C194.014 54.9426 188.103 50.9137 184 49z"/>
<path style="fill:#f5e1cc; stroke:none;" d="M186 49C188.04 51.8799 190.12 53.9602 193 56C191.351 52.4985 189.502 50.6493 186 49z"/>
<path style="fill:#f4a656; stroke:none;" d="M184 50C185.841 53.9464 188.458 56.4969 192 59C190.159 55.0536 187.542 52.5031 184 50z"/>
<path style="fill:#f3912b; stroke:none;" d="M184 52C185.841 55.9464 188.458 58.4969 192 61C190.159 57.0536 187.542 54.5031 184 52z"/>
<path style="fill:#f4a85a; stroke:none;" d="M56 53C53.6301 56.6325 51.2462 59.8029 50 64C53.2762 60.8591 55.9391 57.0425 58 53L56 53z"/>
<path style="fill:#f4c798; stroke:none;" d="M43 73C48.1672 67.8889 52.001 60.1278 56 54C49.5288 57.1829 44.9483 66.2378 43 73z"/>
<path style="fill:#f48819; stroke:none;" d="M69 145C66.5405 135.704 67 126.578 67 117L67 79C67 71.8275 64.4007 60.4947 73 58C63.9759 54.6121 66 68.8908 66 74L66 127C66 132.364 64.008 141.764 69 145z"/>
<path style="fill:#f5dbc1; stroke:none;" d="M49 58C46.4207 63.0884 43.0272 67.2374 42 73C45.5195 68.7524 48.7294 63.0432 51 58L49 58z"/>
<path style="fill:#f4922e; stroke:none;" d="M67 141C69.2922 135.538 68 127.887 68 122L68 81C68 73.7916 65.5039 62.7807 73 59C64.5861 56.325 67 72.2739 67 77L67 141z"/>
<path style="fill:#f4912b; stroke:none;" d="M151 87C157.057 83.588 162.199 73.9682 165.781 68.0394C167.292 65.5381 170.505 60.23 173.941 60.3418C176.321 60.4193 176.777 63.185 176.941 65.0154C177.355 69.6111 177 74.3868 177 79L177 141C179.395 135.293 178 127.154 178 121L178 78C178 73.8403 180.047 61.8218 176.397 59.0324C173.098 56.5116 169.206 60.2305 167.22 62.5949C161.456 69.4553 154.176 78.6211 151 87z"/>
<path style="fill:#f5d6b6; stroke:none;" d="M194 58C194.959 61.5284 196.85 64.0549 199 67C199.522 63.192 196.729 60.4327 194 58z"/>
<path style="fill:#f4a14a; stroke:none;" d="M70 143C66.3954 123.584 69 101.733 69 82C69 77.3463 68.8163 72.6501 69.0193 68.0008C69.0883 66.4198 69.0266 63.8892 70.5995 62.9213C73.2624 61.2828 77.1816 66.5427 79 68C77.8701 65.0858 72.7634 56.0583 69.0278 61.3372C66.2664 65.2393 68 74.408 68 79L68 124C68 129.06 65.9858 139.492 70 143z"/>
<path style="fill:#f48b1f; stroke:none;" d="M73 59C78.1346 66.7948 83.8167 77.0632 91 83C88.0167 75.129 80.6801 62.753 73 59z"/>
<path style="fill:#f4a14b; stroke:none;" d="M165 70C167.827 67.3687 170.326 64.481 172 61C178.27 64.4575 176 74.7372 176 81L176 141C178.395 135.293 177 127.154 177 121L177 80C177 75.4841 179.027 64.3547 175.976 60.7616C171.832 55.8818 165.887 67.0739 165 70z"/>
<path style="fill:#f48614; stroke:none;" d="M178 59L178 141C180.395 135.293 179 127.154 179 121L179 80C179 73.5797 180.497 64.951 178 59z"/>
<path style="fill:#f4ab61; stroke:none;" d="M192 59C192.936 60.9486 193.392 61.5502 195 63C194.064 61.0514 193.608 60.4498 192 59z"/>
<path style="fill:#f5b26d; stroke:none;" d="M69 141C71.8021 134.322 70 124.216 70 117L70 63L76 66C74.9888 63.9994 71.6538 59.3882 69.6034 63.3372C66.8123 68.7128 69 79.9996 69 86L69 141z"/>
<path style="fill:#f4b572; stroke:none;" d="M172 61C176.789 67.6327 175 77.163 175 85L175 141C177.395 135.293 176 127.154 176 121L176 80C176 74.3875 178.446 63.1393 172 61z"/>
<path style="fill:#f49739; stroke:none;" d="M192 61C192.936 62.9485 193.392 63.5502 195 65C194.064 63.0515 193.608 62.4498 192 61z"/>
<path style="fill:#f5c898; stroke:none;" d="M170 66L174 65L174 141C176.701 134.564 175 124.951 175 118L175 82C175 75.4631 175.862 68.2986 174 62C171.751 63.1536 171.154 63.7511 170 66z"/>
<path style="fill:#f4bb81; stroke:none;" d="M195 62C195.936 63.9485 196.392 64.5502 198 66C197.064 64.0514 196.608 63.4498 195 62z"/>
<path style="fill:#f5c492; stroke:none;" d="M70 63L70 123C70 128.794 67.642 140.526 73 144C70.2868 136.556 71 128.822 71 121L71 85C71 78.3416 69.0832 69.1506 74 64L70 63z"/>
<path style="fill:#f4ae65; stroke:none;" d="M48 64L45 72C47.3977 69.6287 48.6959 67.1069 50 64L48 64z"/>
<path style="fill:#f4a658; stroke:none;" d="M195 64C195.936 65.9485 196.392 66.5502 198 68C197.064 66.0514 196.608 65.4498 195 64z"/>
<path style="fill:#f5d5b5; stroke:none;" d="M71 65L71 125C71 134.44 68.8828 144.437 81 145C78.5753 143.669 75.5153 143.008 73.7423 140.721C69.9297 135.804 72 124.9 72 119L72 66L76 68C74.5537 65.7173 73.6895 65.4176 71 65z"/>
<path style="fill:#f4bd85; stroke:none;" d="M168 65L166 71C167.909 69.1203 168.911 67.4576 170 65L168 65z"/>
<path style="fill:#f5d8b9; stroke:none;" d="M168 70L173 67L173 141C175.802 134.322 174 124.216 174 117L174 65C170.575 65.7279 169.252 66.7178 168 70z"/>
<path style="fill:#f5e3d1; stroke:none;" d="M72 66L72 140C74.5991 133.806 73 124.686 73 118L73 69L76 70C74.8465 67.7511 74.2489 67.1535 72 66z"/>
<path style="fill:#f4bd84; stroke:none;" d="M76 66C76.9357 67.9486 77.3924 68.5502 79 70C78.0643 68.0514 77.6076 67.4498 76 66z"/>
<path style="fill:#f49a3d; stroke:none;" d="M195 66L198 72C199.031 68.9309 197.521 67.7178 195 66z"/>
<path style="fill:#f4c595; stroke:none;" d="M198 66C198.547 67.875 199.11 69.2553 200 71C200.375 68.581 199.693 67.7818 198 66z"/>
<path style="fill:#f5e4d2; stroke:none;" d="M170 67C167.055 71.2582 163.851 75.1086 162 80C165.627 76.9959 167.365 72.4458 172 71L172 141C174.701 134.564 173 124.951 173 118L173 67L170 67z"/>
<path style="fill:#f5dcc3; stroke:none;" d="M200 67C200.777 69.4888 201.817 71.6718 203 74C203.728 70.8674 202.256 69.1474 200 67z"/>
<path style="fill:#f4d2af; stroke:none;" d="M76 68C76.9357 69.9486 77.3924 70.5502 79 72C78.0643 70.0514 77.6076 69.4498 76 68z"/>
<path style="fill:#f49e46; stroke:none;" d="M79 68C80.1656 72.2786 82.5769 75.2287 86 78C84.4606 73.9402 82.3488 70.7681 79 68z"/>
<path style="fill:#f5f5f5; stroke:none;" d="M73 69L73 119C73 125.028 71.0419 135.2 73.6034 140.721C75.1422 144.038 79.9497 144.223 83 145.217C88.036 146.858 94.5874 150.577 98.9105 153.599C110.111 161.428 114.94 173.575 118.421 186C119.673 190.469 121.929 197.969 116.852 200.972C110.224 204.893 100.947 198.163 94 198C98.0278 204.317 107.967 205.536 115 204.797C117.704 204.513 120.251 203.049 123 203.269C126.117 203.519 128.764 205.017 132 204.895C139.881 204.599 145.79 202.326 153 199.658C173.494 192.074 194.033 178.761 202 157C196.955 161.293 193.793 167.921 189.485 173.035C186.105 177.049 181.908 179.764 178 183.184C167.434 192.43 154.508 195.84 141.039 199.435C136.758 200.578 130.594 204.281 127.013 199.682C122.221 193.526 128.636 180.254 130.936 174C135.521 161.532 142.673 154.209 154 147.453C158.211 144.942 167.148 143.255 169.972 139.348C172.603 135.708 171 127.299 171 123L171 92C171 86.0599 171.692 79.7251 170 74L168 74C164.615 80.7925 158.722 85.808 156 93C161.104 89.0001 164.524 82.774 169 78L169 137C146.994 137.469 129.598 157.617 123 177C118.777 170.23 116.252 162.557 110.999 156.37C106.71 151.319 99.2471 147.372 96 142L90 142L90 139C85.5221 138.709 81.5499 137.051 77 137C79.0566 138.582 80.3875 138.826 83 139L83 141C73.8015 139.534 75 132.681 75 125C75 109.438 72.3909 91.1594 76 76C81.3136 82.0563 84.3397 89.4461 92 93C89.8831 89.947 87.3793 87.1781 85.4336 84C81.9134 78.2498 79.8283 71.3905 73 69z"/>
<path style="fill:#f4b06a; stroke:none;" d="M164 70C162.015 73.2999 160.099 76.2895 159 80C162.111 77.1485 164.199 73.8074 166 70L164 70z"/>
<path style="fill:#f4b370; stroke:none;" d="M199 70C199.684 71.58 199.805 71.7772 201 73C200.316 71.42 200.195 71.2228 199 70z"/>
<path style="fill:#f5e7d8; stroke:none;" d="M41 71C39.2854 73.9709 38.4668 76.6033 38 80C40.2097 77.3936 41.8367 74.4072 41 71z"/>
<path style="fill:#f4c493; stroke:none;" d="M79 71C80.1035 73.3572 80.9564 74.3762 83 76C81.8964 73.6428 81.0436 72.6239 79 71z"/>
<path style="fill:#f5cfa8; stroke:none;" d="M165 71C163.157 74.3261 161.158 77.3641 160 81C163.111 78.1485 165.199 74.8074 167 71L165 71z"/>
<path style="fill:#f5ede3; stroke:none;" d="M92 92C96.7199 93.9806 102.92 93 108 93L140 93C144.342 93 151.674 94.3923 155.482 91.9722C160.27 88.9297 166.247 79.2812 168 74L170 74C173.68 89.4553 171 108.133 171 124C171 129.967 172.723 137.49 167 141C174.294 143 172 129.276 172 125L172 71C162.121 72.6942 160.938 87.7456 151.985 91.2577C146.588 93.3749 138.72 92 133 92L92 92z"/>
<path style="fill:#f4cda3; stroke:none;" d="M201 71C201.547 72.875 202.11 74.2553 203 76C203.375 73.581 202.693 72.7818 201 71z"/>
<path style="fill:#f4b471; stroke:none;" d="M44 72L43 76C44.1456 74.3595 44.393 73.924 44 72z"/>
<path style="fill:#f48819; stroke:none;" d="M47 72C36.6839 92.8082 33.9218 117.842 42 140C43.9036 133.792 39.8318 126.261 39.1289 120C38.0561 110.445 39.397 100.295 41.5278 91C42.803 85.437 48.7755 77.4037 47 72z"/>
<path style="fill:#f4a24e; stroke:none;" d="M199 72L202 81C202.867 77.3789 202.035 74.1801 199 72z"/>
<path style="fill:#f5ca9e; stroke:none;" d="M42 73C40.5096 75.7803 40.0891 77.8484 40 81C41.7104 78.4082 42.8445 76.04 42 73z"/>
<path style="fill:#f5d8bc; stroke:none;" d="M79 73C80.1035 75.3572 80.9564 76.3762 83 78C81.8964 75.6428 81.0436 74.6239 79 73z"/>
<path style="fill:#f5dfca; stroke:none;" d="M204 74C204.857 79.0602 206.444 84.103 208 89C209.484 84.1606 207.086 77.8246 204 74z"/>
<path style="fill:#f4c08a; stroke:none;" d="M202 75L205 84C206.467 80.1924 204.911 77.5686 202 75z"/>
<path style="fill:#f4a350; stroke:none;" d="M42 76L41 82C42.5733 80.0512 43.2909 78.4122 44 76L42 76z"/>
<path style="fill:#f6f5f5; stroke:none;" d="M76 76C72.3126 88.475 75 104.996 75 118C75 123.766 73.7146 131.307 75.3179 136.867C76.3387 140.407 79.8731 140.715 83 141L83 139L77 138L81 137C79.7517 136.315 79.4515 136.251 78 136L78 84C81.0141 88.8315 85.4 93.128 88 98L159 98C160.184 93.4978 163.719 90.4307 165 86C168.193 96.8012 166 110.752 166 122C166 126.716 166.945 132.112 164 136C165.769 136.779 167.036 136.912 169 137L169 78C164.038 81.7621 161.372 89.2848 155.906 92.0116C151.525 94.1971 144.771 93 140 93L106 93C101.405 93 95.2384 94.049 91 91.9761C83.959 88.5325 81.7671 80.6302 76 76z"/>
<path style="fill:#f4bb81; stroke:none;" d="M83 76C83.9357 77.9485 84.3924 78.5502 86 80C85.0643 78.0514 84.6076 77.4498 83 76z"/>
<path style="fill:#f4a656; stroke:none;" d="M158 77C156.355 80.517 154.485 84.7529 150.896 86.6821C145.989 89.3201 138.388 88 133 88L94 88C98.4687 89.8752 104.191 89 109 89L138 89C142.339 89 148.915 90.2005 152.815 87.9722C156.549 85.8386 158.425 80.762 160 77L158 77z"/>
<path style="fill:#f4b16c; stroke:none;" d="M202 77L203 81C203.553 78.9922 203.303 78.6676 202 77z"/>
<path style="fill:#f5d7b9; stroke:none;" d="M83 78C83.7284 82.7203 86.1811 85.2777 90 88C88.3236 84.168 86.1303 80.7774 83 78z"/>
<path style="fill:#f4a14c; stroke:none;" d="M86 78C87.1282 82.1386 89.2079 84.9676 93 87C91.0503 83.5794 88.9467 80.6169 86 78z"/>
<path style="fill:#f5e7d8; stroke:none;" d="M207 78L211 98C213.48 92.0866 210.579 83.0172 207 78z"/>
<path style="fill:#f5d8ba; stroke:none;" d="M39 79L38 83C39.303 81.3324 39.553 81.0078 39 79z"/>
<path style="fill:#f5ede4; stroke:none;" d="M37 80C34.9627 82.9079 35.0116 85.4978 35 89C36.7727 86.1785 37.9614 83.2512 37 80z"/>
<path style="fill:#f49737; stroke:none;" d="M42 80C39.7355 84.1164 39.0165 87.3244 39 92C40.7934 88.4892 43.1318 83.8772 42 80z"/>
<path style="fill:#f4c493; stroke:none;" d="M158 80L153 90C156.351 87.2235 158.282 83.9797 160 80L158 80z"/>
<path style="fill:#f48b20; stroke:none;" d="M201 80C201.882 87.1982 205.34 93.9111 206.66 101C207.906 107.689 207 115.21 207 122C210.673 113.247 207.758 99.938 206.035 91C205.207 86.7031 204.729 82.6119 201 80z"/>
<path style="fill:#f4ba7e; stroke:none;" d="M40 81C39.0143 82.4785 39 82.2032 39 84C40.2892 82.5574 40.4009 82.7663 40 81z"/>
<path style="fill:#f4c38f; stroke:none;" d="M86 81C87.1035 83.3572 87.9564 84.3762 90 86C88.8964 83.6428 88.0436 82.6239 86 81z"/>
<path style="fill:#f5dcc3; stroke:none;" d="M159 81C157.316 84.5445 155.056 87.666 153 91C157.227 88.8391 159.154 85.2765 161 81L159 81z"/>
<path style="fill:#f4a451; stroke:none;" d="M204 81L205 88C205.965 85.2945 205.466 83.45 204 81z"/>
<path style="fill:#f4c89b; stroke:none;" d="M37 83C36.4992 85.6858 36.1174 88.2699 36 91C37.7733 88.5142 38.374 85.9872 39 83L37 83z"/>
<path style="fill:#f6f6f6; stroke:none;" d="M78 84L78 136C82.181 137.064 85.6083 138.87 90 139L90 142L96 142C97.3053 146.466 105.686 151.291 109.199 155.019C115.129 161.31 118.447 169.276 122 177C126.52 171.993 128.811 164.655 132.611 158.959C136.218 153.554 141.826 148.97 146.975 145.079C151.66 141.538 162.94 140.039 165.397 134.66C167.197 130.717 166 124.255 166 120L166 86C162.852 89.5938 159.72 93.1884 159 98L88 98C86.4777 93.3621 81.2888 87.7767 78 84z"/>
<path style="fill:#f48818; stroke:none;" d="M91 84C95.3001 88.391 102.234 87 108 87L151 87C146.031 84.9149 139.35 86 134 86C120.121 86 104.317 88.1553 91 84z"/>
<path style="fill:#f4b97d; stroke:none;" d="M206 84C206.47 89.7514 208.507 95.237 208.91 101C209.594 110.751 208.2 120.317 208 130C210.308 125.659 210 120.812 210 116C210.001 105.944 211.804 92.7941 206 84z"/>
<path style="fill:#f4af68; stroke:none;" d="M38 85L38 89C38.7102 87.2405 38.7102 86.7595 38 85z"/>
<path style="fill:#f5dfc8; stroke:none;" d="M86 85C89.8585 93.1765 97.1582 92 105 92L153 92C148.031 89.9149 141.35 91 136 91L108 91C103.67 91 98.127 91.8947 94 90.3974C91.0294 89.3196 88.569 86.7793 86 85z"/>
<path style="fill:#f5bb81; stroke:none;" d="M90 86C91.9993 92.0237 100.749 90 106 90L153 90C148.031 87.9149 141.35 89 136 89C121.445 89 103.451 91.9637 90 86z"/>
<path style="fill:#f49432; stroke:none;" d="M93 87C98.2165 89.1889 105.381 88 111 88L150 88C144.783 85.8111 137.619 87 132 87L93 87z"/>
<path style="fill:#f4a34f; stroke:none;" d="M206 88C206.021 90.8495 206.19 93.271 207 96C208.038 93.102 207.433 90.6958 206 88z"/>
<path style="fill:#f5dfc9; stroke:none;" d="M34 89L34 95C35.2247 92.9868 35.6453 91.3415 36 89L34 89z"/>
<path style="fill:#f5bc82; stroke:none;" d="M37 89C35.2764 93.0678 35.0034 96.6204 35 101C36.5726 97.5273 38.2687 92.6571 37 89z"/>
<path style="fill:#f4a34f; stroke:none;" d="M38 89C37.1272 94.1547 36.0035 98.7057 36 104C37.7423 99.9625 39.6208 93.1627 38 89z"/>
<path style="fill:#f5cfa9; stroke:none;" d="M92 90C97.7073 92.3949 105.846 91 112 91L153 91C147.293 88.6051 139.154 90 133 90L92 90z"/>
<path style="fill:#f5d7b7; stroke:none;" d="M209 90C209.195 99.3766 211 108.489 211 118C214.06 110.706 212.699 96.9067 209 90z"/>
<path style="fill:#f48f28; stroke:none;" d="M39 92C37.6008 96.414 37.0128 100.373 37 105C38.8361 101.21 40.5692 96.03 39 92z"/>
<path style="fill:#f5dcc2; stroke:none;" d="M33 95C33 105.087 31.8049 116.01 33.2091 126C33.7323 129.722 35.229 133.312 36 137C37.7427 132.524 35.1604 127.583 34.439 123C33.0582 114.227 36.4308 103.176 33 95z"/>
<path style="fill:#f5c493; stroke:none;" d="M34 95L34 124C35.3283 120.834 34.9998 117.419 35 114C35.0004 108.113 36.2921 100.462 34 95z"/>
<path style="fill:#f49e47; stroke:none;" d="M208 97C208 104.572 208.649 112.479 207.714 120C206.787 127.446 204.004 134.545 203 142C210.328 134.852 209 118.516 209 109C209 105.017 209.552 100.699 208 97z"/>
<path style="fill:#f5e8da; stroke:none;" d="M32 98L32 125C34.5408 118.945 34.5408 104.055 32 98z"/>
<path style="fill:#f48513; stroke:none;" d="M206 99L205 129C207.122 126.199 206.993 123.477 207 120C207.012 113.587 208.494 104.943 206 99z"/>
<path style="fill:#f5c491; stroke:none;" d="M210 100L210 119C212.02 114.187 212.02 104.813 210 100z"/>
<path style="fill:#f4b371; stroke:none;" d="M35 101C35 111.949 36.1177 122.198 37 133C38.7632 128.677 36.6499 124.449 36.1736 120C35.5204 113.898 37.394 106.705 35 101z"/>
<path style="fill:#f5e2ce; stroke:none;" d="M212 101L212 118C213.883 113.514 213.883 105.486 212 101z"/>
<path style="fill:#f5ebe0; stroke:none;" d="M213 102C213 111.909 211 121.133 211 131C214.214 123.551 216.213 109.656 213 102z"/>
<path style="fill:#f49737; stroke:none;" d="M36 104C36 114.712 36.4248 124.547 39 135C41.3502 129.238 37.7519 121.093 37.1698 115C36.8127 111.263 37.4649 107.491 36 104z"/>
<path style="fill:#f5d2ad; stroke:none;" d="M210 119L210 125C210.951 122.715 210.951 121.285 210 119z"/>
<path style="fill:#f4c99b; stroke:none;" d="M35 124C35.1174 126.73 35.4992 129.314 36 132C37.0383 129.102 36.4327 126.696 35 124z"/>
<path style="fill:#f5e1cd; stroke:none;" d="M210 125C209.686 131.88 206.825 138.231 206 145C209.566 139.987 212.471 130.892 210 125z"/>
<path style="fill:#f4c696; stroke:none;" d="M209 126C207.886 131.216 206.046 135.546 206 141C208.755 137.42 210.679 130.311 209 126z"/>
<path style="fill:#f4ca9f; stroke:none;" d="M37 133L37 140L39 140C38.7652 137.309 38.3931 135.311 37 133z"/>
<path style="fill:#f4ae66; stroke:none;" d="M38 133C38.5957 137.424 39.7905 141.706 41 146C42.2478 141.891 40.4447 136.431 38 133z"/>
<path style="fill:#f49738; stroke:none;" d="M40 136C40.5206 139.863 41.4593 143.419 43 147C44.1865 143.091 42.4779 139.101 40 136z"/>
<path style="fill:#f5e9dc; stroke:none;" d="M36 137C36.2771 140.048 36.5258 142.12 39 144C38.6113 141.133 37.8103 139.257 36 137z"/>
<path style="fill:#f5d4b1; stroke:none;" d="M39 140L39 144C39.7102 142.241 39.7102 141.759 39 140z"/>
<path style="fill:#f4b16c; stroke:none;" d="M205 140C202.764 143.485 200.918 146.952 200 151C202.78 148.365 206.093 143.952 205 140z"/>
<path style="fill:#ebcdbf; stroke:none;" d="M167 143C169.462 143.697 170.665 143.11 173 142C170.63 141.411 169.293 142.045 167 143z"/>
<path style="fill:#e0a993; stroke:none;" d="M168 144C171.22 144.85 172.885 143.401 175 141L168 144z"/>
<path style="fill:#ec9d59; stroke:none;" d="M175 141L171 144C173.584 144.712 175.7 143.919 175 141z"/>
<path style="fill:#f5ece3; stroke:none;" d="M208 141C205.143 146.046 202.391 151.117 202 157C204.84 153.447 209.185 145.463 208 141z"/>
<path style="fill:#eedfdb; stroke:none;" d="M136 163C139.548 161.274 141.902 158.376 145.039 156.004C152.769 150.158 159.56 145.469 169 143C164.753 141.272 160.883 143.27 157 145.259C149.294 149.206 139.536 154.773 136 163z"/>
<path style="fill:#f49b3e; stroke:none;" d="M202 142L201 147C202.318 145.074 202.651 144.234 202 142z"/>
<path style="fill:#e1874c; stroke:none;" d="M69 143C70.4024 145.274 71.5147 145.987 74 147C72.5322 144.694 71.5669 143.949 69 143z"/>
<path style="fill:#f5d7b8; stroke:none;" d="M204 143L204 147C205.081 145.542 205.436 144.752 206 143L204 143z"/>
<path style="fill:#f5e2cd; stroke:none;" d="M40 144C40.097 147.34 40.6949 149.923 42 153C43.1914 149.641 42.078 146.793 40 144z"/>
<path style="fill:#da967f; stroke:none;" d="M73 144C74.5398 145.803 75.5975 145.832 78 146C76.2495 144.745 75.1427 144.386 73 144z"/>
<path style="fill:#e9cdc4; stroke:none;" d="M156 147C159.244 147.89 161.952 146.241 165 145C161.756 144.11 159.048 145.759 156 147z"/>
<path style="fill:#e2b5a9; stroke:none;" d="M161 146C163.605 146.729 165.45 145.921 168 145C165.395 144.271 163.55 145.079 161 146z"/>
<path style="fill:#f4881a; stroke:none;" d="M44 145C44.8497 151.103 48.2962 155.142 51.8843 160C59.7896 170.703 71.8378 186.224 86 188C82.1806 184.318 77.3259 182.253 73 179.247C68.5612 176.162 64.7583 171.896 61.0394 168C54.3908 161.035 50.4813 151.87 44 145z"/>
<path style="fill:#dca293; stroke:none;" d="M78 145C80.2484 146.799 82.1632 147.493 85 148C82.7516 146.201 80.8368 145.507 78 145z"/>
<path style="fill:#ecd6cf; stroke:none;" d="M81 145C84.0393 147.506 87.0924 148.6 91 149C87.9607 146.494 84.9076 145.4 81 145z"/>
<path style="fill:#d38268; stroke:none;" d="M163 147C165.797 147.639 168.237 146.772 171 146C167.96 144.823 165.887 145.613 163 147z"/>
<path style="fill:#cf6a43; stroke:none;" d="M161 149C165.245 149.895 170.005 147.49 174 146C169.898 144.859 164.829 147.35 161 149z"/>
<path style="fill:#f4932e; stroke:none;" d="M200 145C196.983 150.189 193.486 156.208 192 162C195.836 158.703 201.205 150.15 200 145z"/>
<path style="fill:#f4b26e; stroke:none;" d="M42 146C42.6684 148.807 43.8435 151.351 45 154C45.7645 150.587 44.4595 148.341 42 146z"/>
<path style="fill:#d26a3b; stroke:none;" d="M72 147C74.3316 147.985 76.4567 147.981 79 148C76.5143 146.365 74.9167 146.445 72 147z"/>
<path style="fill:#d17e67; stroke:none;" d="M77 146C78.7505 147.255 79.8574 147.614 82 148C80.2495 146.745 79.1426 146.386 77 146z"/>
<path style="fill:#db9e8e; stroke:none;" d="M158 148C159.846 148.468 161.069 148.301 163 148C160.956 147.226 160.155 147.408 158 148z"/>
<path style="fill:#d75e14; stroke:none;" d="M166 155C168.973 152.684 170.96 150.654 172 147C168.402 148.844 166.933 151.086 166 155z"/>
<path style="fill:#f4cba1; stroke:none;" d="M203 147C202.014 148.479 202 148.203 202 150C203.289 148.557 203.401 148.766 203 147z"/>
<path style="fill:#ca501d; stroke:none;" d="M74 148C77.5993 154.226 83.217 158.594 87.8657 164.004C94.2493 171.432 99.9488 180.281 108 186C101.931 172.748 90.1038 163.104 81 152L87 153C84.2564 149.791 78.1592 148.299 74 148z"/>
<path style="fill:#c75f43; stroke:none;" d="M79 148C80.7173 149.84 81.5656 150.349 84 151C82.2827 149.16 81.4344 148.651 79 148z"/>
<path style="fill:#ce7861; stroke:none;" d="M82 148C83.7173 149.84 84.5656 150.349 87 151C85.2827 149.16 84.4343 148.651 82 148z"/>
<path style="fill:#d68e7c; stroke:none;" d="M85 148C87.3511 150.811 89.4292 152.151 93 153C90.5686 150.556 88.2726 149.086 85 148z"/>
<path style="fill:#e4bcb0; stroke:none;" d="M149 152C152.338 152.546 155.057 150.539 158 149C154.511 148.073 151.912 150.106 149 152z"/>
<path style="fill:#d6907d; stroke:none;" d="M151 154L162 149C157.711 148.038 153.322 150.396 151 154z"/>
<path style="fill:#c35439; stroke:none;" d="M155 153C159.3 154.044 165.006 150.771 169 149C164.324 147.621 159.194 151.008 155 153z"/>
<path style="fill:#f4d3b0; stroke:none;" d="M43 149L43 153C43.7102 151.24 43.7102 150.759 43 149z"/>
<path style="fill:#e3baae; stroke:none;" d="M89 149C90.4498 150.608 91.0514 151.064 93 152C91.5502 150.392 90.9485 149.936 89 149z"/>
<path style="fill:#f4a34f; stroke:none;" d="M199 149C198.132 151.355 197.426 153.531 197 156C198.836 153.692 199.797 151.889 199 149z"/>
<path style="fill:#f5dabf; stroke:none;" d="M203 149C202.014 150.479 202 150.203 202 152C203.766 151.021 203.955 150.778 203 149z"/>
<path style="fill:#c9684f; stroke:none;" d="M133 179C135.698 176.398 136.429 173.059 138.557 170C143.999 162.177 151.948 154.32 161 151C156.862 149.654 153.209 152.595 150 155.12C142.535 160.995 134.232 169.164 133 179z"/>
<path style="fill:#be4426; stroke:none;" d="M135 186C142.79 179.464 146.992 171.849 153.4 164.286C157.819 159.071 163.647 155.153 168 150C151.568 152.428 135.187 169.04 135 186z"/>
<path style="fill:#f4bd84; stroke:none;" d="M201 150C199.602 152.051 198.749 153.646 198 156C200.015 154.092 201.25 152.792 201 150z"/>
<path style="fill:#c8644a; stroke:none;" d="M87 151C88.2292 152.87 88.8683 153.224 91 154C89.5502 152.392 88.9486 151.936 87 151z"/>
<path style="fill:#f49a3f; stroke:none;" d="M46 152C48.7696 162.678 62.1595 177.411 72 182C67.8088 176.05 62.026 171.514 57.3002 166C53.3986 161.448 50.4256 156.045 46 152z"/>
<path style="fill:#e46c09; stroke:none;" d="M76 152C79.4614 159.467 86.5946 167.835 93 173C91.7405 164.375 82.8364 156.772 76 152z"/>
<path style="fill:#be4426; stroke:none;" d="M81 152C85.409 159.743 92.8385 164.258 97.8958 171.184C102.399 177.352 106.27 188.759 114 191C113.632 173.746 98.3758 154.246 81 152z"/>
<path style="fill:#dda697; stroke:none;" d="M93 152C94.6239 154.044 95.6428 154.896 98 156C96.3761 153.956 95.3572 153.104 93 152z"/>
<path style="fill:#e8c8bf; stroke:none;" d="M95 152C96.6239 154.044 97.6428 154.896 100 156C98.3761 153.956 97.3572 153.104 95 152z"/>
<path style="fill:#eeddd8; stroke:none;" d="M97 152C100.876 158.196 106.518 162.908 110.521 169C112.558 172.101 113.539 175.626 115 179C118.537 170.241 104.138 155.478 97 152z"/>
<path style="fill:#f5d0ab; stroke:none;" d="M201 152C198.268 155.845 195.63 159.554 194 164C197.289 161.209 201.621 156.523 201 152z"/>
<path style="fill:#f5d3b2; stroke:none;" d="M44 153C44.5886 156.823 45.9369 158.669 49 161C47.8579 157.687 46.6079 155.344 44 153z"/>
<path style="fill:#d07e68; stroke:none;" d="M91 153C96.1204 158.226 102.027 163.793 108 168C104.944 161.447 98.0869 154.843 91 153z"/>
<path style="fill:#dfad9f; stroke:none;" d="M146 157L151 154C148.184 153.389 147.325 154.556 146 157z"/>
<path style="fill:#cb511c; stroke:none;" d="M144 179C152.112 172.796 160.727 161.747 166 153C156.594 156.316 147.045 169.819 144 179z"/>
<path style="fill:#c55c41; stroke:none;" d="M91 154C95.0015 160.945 102.833 164.769 107 172C109.215 164.914 96.6538 156.394 91 154z"/>
<path style="fill:#d89481; stroke:none;" d="M131 181C133.674 177.309 134.817 172.755 137.539 169C141.533 163.492 146.924 159.331 151 154C140.848 158.299 131.899 170.004 131 181z"/>
<path style="fill:#c25136; stroke:none;" d="M133 186L135 186C135.425 171.345 147.342 164.647 155 154C143.409 159.31 133.151 173.072 133 186z"/>
<path style="fill:#f4dfc9; stroke:none;" d="M201 154C195.785 162.621 187.231 168.761 183 178C188.55 174.005 194.055 167.449 198.134 161.91C199.983 159.4 201.653 157.061 201 154z"/>
<path style="fill:#f4ba7e; stroke:none;" d="M47 156C47.6836 157.58 47.8048 157.777 49 159C48.3164 157.42 48.1952 157.223 47 156z"/>
<path style="fill:#e1b1a4; stroke:none;" d="M98 156C100.789 159.96 104.04 163.211 108 166C105.866 161.424 102.576 158.134 98 156z"/>
<path style="fill:#e4bdb1; stroke:none;" d="M134 170C138.588 166.018 142.575 161.008 146 156C139.884 157.794 135.756 164.089 134 170z"/>
<path style="fill:#d95f12; stroke:none;" d="M162 156C160.046 159.805 157.324 162.878 156 167C159.426 163.897 162.099 160.217 164 156L162 156z"/>
<path style="fill:#f4b573; stroke:none;" d="M196 156C194.6 159.015 193.004 161.825 192 165C194.821 162.395 196.482 159.517 198 156L196 156z"/>
<path style="fill:#f5ece2; stroke:none;" d="M44 157C45.5777 164.824 52.4897 170.709 58 176.039C61.0161 178.957 63.4002 182.54 66.4552 185.367C73.6207 191.997 84.4999 196.385 94 198C87.6595 192.426 78.6294 191.903 72.1698 186.496C66.242 181.535 60.3151 175.88 55.3009 170C51.4585 165.494 48.875 160.516 44 157z"/>
<path style="fill:#f4c08b; stroke:none;" d="M49 159C49.6354 162.044 50.3861 163.316 53 165C51.9947 162.415 51.0199 160.896 49 159z"/>
<path style="fill:#f4a95d; stroke:none;" d="M191 162L189 168C190.909 166.12 191.911 164.458 193 162L191 162z"/>
<path style="fill:#eacec5; stroke:none;" d="M135 163C133.32 167.331 131.277 171.533 130 176C133.525 172.482 135.126 167.569 137 163L135 163z"/>
<path style="fill:#f49f48; stroke:none;" d="M189 163C184.554 170.692 175.85 175.173 172 183C180.06 178.53 187.335 171.491 191 163L189 163z"/>
<path style="fill:#f4d4b1; stroke:none;" d="M51 164C51.9357 165.949 52.3924 166.55 54 168C53.0643 166.051 52.6076 165.45 51 164z"/>
<path style="fill:#f4b575; stroke:none;" d="M53 164C55.4461 171.195 63.1741 178.817 70 182C65.4072 175.48 59.0322 169.218 53 164z"/>
<path style="fill:#f5ede4; stroke:none;" d="M194 165C186.02 176.295 174.117 182.27 165 192C171.491 190.44 175.024 186.488 180 182.325C186.178 177.156 192.1 172.222 196 165L194 165z"/>
<path style="fill:#e3b8ad; stroke:none;" d="M108 166C109.185 169.057 110.482 170.904 113 173C111.815 169.943 110.518 168.096 108 166z"/>
<path style="fill:#de650e; stroke:none;" d="M154 167C148.734 174.564 139.009 181.328 136 190C143.395 183.786 151.54 175.608 156 167L154 167z"/>
<path style="fill:#f5d5b4; stroke:none;" d="M54 168C56.7057 173.802 62.1979 179.294 68 182C64.2388 176.661 59.3394 171.761 54 168z"/>
<path style="fill:#d6917f; stroke:none;" d="M108 168C108.684 169.58 108.805 169.777 110 171C109.316 169.42 109.195 169.223 108 168z"/>
<path style="fill:#f4c89a; stroke:none;" d="M188 168C185.785 170.95 183.534 173.647 182 177C185.488 174.49 187.851 171.717 190 168L188 168z"/>
<path style="fill:#cb6f57; stroke:none;" d="M108 170C108.694 175.302 111.762 179.79 113 185C114.837 179.866 111.659 173.624 108 170z"/>
<path style="fill:#db6210; stroke:none;" d="M93 171C96.1553 177.898 101.821 183.696 108 188C104.979 181.512 98.8239 175.114 93 171z"/>
<path style="fill:#da9b8b; stroke:none;" d="M110 171L115 187C117.389 181.291 114.411 174.839 110 171z"/>
<path style="fill:#f38819; stroke:none;" d="M160 188C169.2 184.175 177.017 179.156 183 171C176.641 172.655 172.611 178.103 167.486 181.949C164.762 183.993 161.884 185.122 160 188z"/>
<path style="fill:#e5beb2; stroke:none;" d="M131 175C129.493 178.007 128.416 180.657 128 184C130.319 181.347 131.791 178.525 131 175z"/>
<path style="fill:#f4bd85; stroke:none;" d="M177 180C179.217 178.837 180.394 177.914 182 176C179.515 177.013 178.402 177.726 177 180z"/>
<path style="fill:#f4d0ab; stroke:none;" d="M173 185C177.039 183.15 180.215 180.451 183 177C178.644 178.688 175.719 181.222 173 185z"/>
<path style="fill:#e8c8bf; stroke:none;" d="M116 179L117 188C118.312 184.782 117.767 181.951 116 179z"/>
<path style="fill:#c86349; stroke:none;" d="M132 179C130.478 184.417 130.001 189.388 130 195C131.842 190.66 133.85 183.461 132 179z"/>
<path style="fill:#c94f1e; stroke:none;" d="M133 186L132 193C136.376 189.149 141.236 184.106 144 179C139.768 180.653 136.992 184.015 133 186z"/>
<path style="fill:#f4b87b; stroke:none;" d="M175 180L175 182C176.635 181.455 176.455 181.635 177 180L175 180z"/>
<path style="fill:#d38671; stroke:none;" d="M130 181L130 185C130.71 183.241 130.71 182.759 130 181z"/>
<path style="fill:#f4d3b1; stroke:none;" d="M68 182C69.896 184.181 71.2593 185.069 74 186C72.104 183.819 70.7407 182.931 68 182z"/>
<path style="fill:#f4ad64; stroke:none;" d="M70 182C71.904 183.884 73.5337 184.953 76 186C74.2288 183.389 73.1186 182.514 70 182z"/>
<path style="fill:#e56e0b; stroke:none;" d="M101 182C103.251 187.083 106.459 192.408 112 194C110.444 188.571 105.505 185.136 101 182z"/>
<path style="fill:#e2b09f; stroke:none;" d="M129 182C126.885 186.992 127 191.658 127 197C128.573 193.261 130.321 185.807 129 182z"/>
<path style="fill:#f4b26d; stroke:none;" d="M158 190C163.358 191.743 171.713 186.056 175 182C168.911 183.604 163.922 187.845 158 190z"/>
<path style="fill:#f49e47; stroke:none;" d="M74 183C75.4498 184.608 76.0515 185.064 78 186C76.5502 184.392 75.9486 183.936 74 183z"/>
<path style="fill:#e1b1a2; stroke:none;" d="M116 184C116.238 189.536 117.235 193.717 115 199C119.688 195.961 118.341 188.404 116 184z"/>
<path style="fill:#f4993a; stroke:none;" d="M150 193C155.994 194.402 164.45 187.322 170 185C163.903 183.328 155.137 189.949 150 193z"/>
<path style="fill:#f5e4d2; stroke:none;" d="M70 185C72.8555 188.113 75.8785 190.031 80 191C77.0449 188.173 73.8981 186.242 70 185z"/>
<path style="fill:#cb6a50; stroke:none;" d="M114 185L114 194C115.256 191.006 115.256 187.994 114 185z"/>
<path style="fill:#f5e3d1; stroke:none;" d="M168 188C170.961 188.623 172.127 187.267 174 185L168 188z"/>
<path style="fill:#f5d3b2; stroke:none;" d="M74 186C78.0788 190.446 84.1694 193.548 90 195C86.5124 190.796 79.2843 187.37 74 186z"/>
<path style="fill:#f4ba7e; stroke:none;" d="M77 186C79.0956 188.518 80.9434 189.815 84 191C81.9044 188.482 80.0566 187.185 77 186z"/>
<path style="fill:#f4a049; stroke:none;" d="M79 186C80.2228 187.195 80.42 187.316 82 188C80.7772 186.805 80.58 186.684 79 186z"/>
<path style="fill:#f0d6c5; stroke:none;" d="M118 186C118 193.676 118.131 199.5 109 200C118.578 203.98 122.258 193.109 118 186z"/>
<path style="fill:#eacbc0; stroke:none;" d="M126 186L126 197C127.431 193.59 127.431 189.41 126 186z"/>
<path style="fill:#d47954; stroke:none;" d="M129 186L129 195C130.256 192.006 130.256 188.994 129 186z"/>
<path style="fill:#ca5a32; stroke:none;" d="M132 186C131.19 188.729 131.021 191.15 131 194C132.433 191.304 133.038 188.898 132 186z"/>
<path style="fill:#f4cfa9; stroke:none;" d="M165 188C167.462 188.697 168.665 188.11 171 187C168.726 186.591 167.219 187.212 165 188z"/>
<path style="fill:#d67f5b; stroke:none;" d="M115 187L114 197C116.292 193.975 116.467 190.497 115 187z"/>
<path style="fill:#f4a656; stroke:none;" d="M82 188C84.4043 190.605 86.5063 191.446 90 192C87.5391 190.094 84.9512 188.993 82 188z"/>
<path style="fill:#f49432; stroke:none;" d="M84 188C85.9531 189.724 87.4633 190.345 90 191C88.0469 189.276 86.5367 188.655 84 188z"/>
<path style="fill:#f48310; stroke:none;" d="M86 188C93.41 194.092 103.813 194.839 113 196C110.178 193.862 107.34 194.278 104 193.367C97.7885 191.672 92.5325 188.158 86 188z"/>
<path style="fill:#da9378; stroke:none;" d="M128 188L128 196C129.161 193.23 129.161 190.77 128 188z"/>
<path style="fill:#d9957e; stroke:none;" d="M116 189C115.936 192.078 115.562 194.975 115 198C117.148 195.164 117.378 192.291 116 189z"/>
<path style="fill:#f48e26; stroke:none;" d="M144 193C148.673 194.887 152.718 191.833 157 190C152.988 188.899 147.895 191.647 144 193z"/>
<path style="fill:#f4d2ae; stroke:none;" d="M162 191C163.58 190.316 163.777 190.195 165 189C163.42 189.684 163.223 189.805 162 191z"/>
<path style="fill:#f5ddc5; stroke:none;" d="M128 200L126 193C123.518 199.426 128.858 202.84 134.83 201.74C144.301 199.995 160.548 196.388 167 189C154.539 193.458 141.474 199.88 128 200z"/>
<path style="fill:#d1612d; stroke:none;" d="M112 191C112.176 192.878 112.438 194.199 113 196C113.779 194.231 113.912 192.964 114 191L112 191z"/>
<path style="fill:#f4b472; stroke:none;" d="M153 193C155.509 193.566 156.22 192.848 158 191C156.125 191.547 154.745 192.11 153 193z"/>
<path style="fill:#f4cca2; stroke:none;" d="M157 192C158.846 192.468 160.069 192.301 162 192C159.956 191.226 159.155 191.408 157 192z"/>
<path style="fill:#f4be87; stroke:none;" d="M88 192C91.0187 195.206 94.6574 196.467 99 197C95.9569 194.134 91.9538 193.245 88 192z"/>
<path style="fill:#f4993b; stroke:none;" d="M90 192C96.3907 197.054 106.203 197 114 197C110.424 195.099 106.872 195.474 103 194.727C98.3906 193.837 94.8354 192.044 90 192z"/>
<path style="fill:#f38718; stroke:none;" d="M130 195C134.094 196.468 139.58 195.003 144 195C139.772 193.226 134.333 193.719 130 195z"/>
<path style="fill:#f4a14c; stroke:none;" d="M142 195C144.646 195.815 147.226 195.213 150 195C147.194 193.854 144.929 194.308 142 195z"/>
<path style="fill:#f5dfc9; stroke:none;" d="M91 195C92.9803 196.884 94.3096 197.469 97 198C95.0221 196.268 93.5655 195.598 91 195z"/>
<path style="fill:#f1a75f; stroke:none;" d="M129 195C129.854 198.987 133.489 198 137 198L129 195z"/>
<path style="fill:#f3912e; stroke:none;" d="M134 195C136.613 196.098 139.165 195.993 142 196C139.387 194.902 136.835 195.007 134 195z"/>
<path style="fill:#f4c28d; stroke:none;" d="M129 196C128.317 197.506 128.174 198.315 128 200C135.08 199.98 142.348 198.425 149 196C142.346 193.62 135.222 200.69 129 196z"/>
<path style="fill:#f4b06b; stroke:none;" d="M99 196C100.506 196.683 101.315 196.826 103 197C101.494 196.317 100.685 196.174 99 196z"/>
<path style="fill:#f3a04a; stroke:none;" d="M130 196C133.432 197.44 137.3 197 141 197C137.568 195.56 133.7 196 130 196z"/>
<path style="fill:#f4cda4; stroke:none;" d="M97 197C99.0521 197.874 100.747 197.953 103 198C100.948 197.126 99.2528 197.047 97 197z"/>
<path style="fill:#f3bb83; stroke:none;" d="M103 197C106.722 199.229 110.759 198.997 115 199C111.29 197.334 107.051 197.084 103 197z"/>
<path style="fill:#eda05d; stroke:none;" d="M109 197C111.052 197.874 112.747 197.953 115 198C112.948 197.126 111.253 197.047 109 197z"/>
<path style="fill:#f5e2d0; stroke:none;" d="M119 197C113.219 203.55 107.259 198.215 100 198C103.958 201.194 108.915 202.364 113.995 201.941C117.26 201.669 119.715 200.402 119 197z"/>
<path style="fill:#f3c79f; stroke:none;" d="M107 199C109.613 200.098 112.165 199.993 115 200C112.387 198.902 109.835 199.007 107 199z"/>
<path style="fill:#f5f5f5; stroke:none;" d="M78 254L87 254L89 248C92.1661 254.007 93.4248 260.957 98.9599 265.45C104.542 269.981 110.125 270 117 270C127.241 270 136.693 269.056 141.811 258.91C146.115 250.378 147.652 241.325 145.5 232C144.386 227.174 141.919 222.835 141 218C136.95 215.965 133.419 212.757 128.91 211.554C125.429 210.625 121.568 211 118 211C114.129 211 109.864 210.536 106.09 211.554C96.2185 214.217 91.3657 224.753 90 234C89.2724 229.7 90.321 225.372 89.8951 221C89.5552 217.512 87.9524 214.339 87 211L64 211C60.7155 211.001 56.3724 210.422 53.4745 212.318C50.0063 214.587 49.3548 220.236 49.0895 224C48.3526 234.457 48.576 245.527 49.0394 256C49.2091 259.836 49.704 265.4 52.7685 268.142C56.5355 271.512 71.5166 271.586 74.7716 267.486C77.4825 264.071 77.6704 258.17 78 254M145 213C145 218.064 144.456 223.247 146.63 227.961C148.268 231.512 153.266 235.928 153.033 239.95C152.494 249.251 139.825 255.098 144.407 265.867C147.416 272.939 168.574 272.303 171 265C172.664 266.641 173.921 267.944 175 270L198 270C200.21 259.237 199.128 248.757 189 242C192.048 235.72 197.13 229.962 198.52 223C199.262 219.283 198.466 215.69 198 212C192.022 210.873 186.074 210.894 180 211.005C176.286 211.072 173.125 211.153 172 215C166.726 208.024 152.277 210.401 145 213z"/>
<path style="fill:#efefef; stroke:none;" d="M170 221C166.434 208.26 137.884 216.242 152 228C151.263 225.633 149.781 222.694 150.657 220.189C152.313 215.457 160.192 215.054 163.981 217.028C167.932 219.086 168.717 223.598 173 225C175.468 220.246 179.123 215.791 185 216.124C187.833 216.285 192.196 217.568 192.404 221.015C192.539 223.247 190.62 225.252 189.63 227.09C187.671 230.722 184.231 236.826 184.368 241C184.57 247.173 201.551 262.73 187.995 264.852C186.392 265.103 184.613 265.052 183.005 264.87C180.83 264.625 178.994 263.845 177 263C179.858 267.408 192.084 267.863 194.968 262.852C199.306 255.316 186.91 247.669 186.995 240.17C187.066 233.855 194.553 228.292 195.64 222.001C197.149 213.271 184.114 212.183 178.184 214.742C175.006 216.114 173.133 219.409 170 221z"/>
<path style="fill:#e6e6e7; stroke:none;" d="M57.1088 215.858C51.804 218.276 53 225.23 53 230C53 238.902 51.065 250.399 53.4336 258.999C55.1911 265.38 62.2023 267.413 67.9807 265.106C74.5973 262.465 70.9865 256.878 74.0278 252.318C76.8193 248.133 82.8347 250.677 85.1065 244.981C86.8387 240.637 84.8858 237.25 84.4884 233C84.0285 228.08 87.0703 224.004 84.5664 219.059C81.342 212.691 69.9277 214.962 64 215.001C61.7176 215.016 59.2388 214.887 57.1088 215.858z"/>
<path style="fill:#eaeaea; stroke:none;" d="M100 224C108.526 218.071 113.525 216 124 216C116.112 212.69 102.611 214.917 100 224z"/>
<path style="fill:#d7d7d9; stroke:none;" d="M112 216C116.298 217.804 122.303 217.629 127 218C122.923 214.911 116.945 216 112 216z"/>
<path style="fill:#dfe0e1; stroke:none;" d="M155 229C154.248 226.877 152.683 224.312 152.732 222.018C152.941 212.266 165.568 219.694 169 222C166.295 216.389 157.995 213.426 152.318 217.318C147.414 220.68 151.397 226.778 155 229z"/>
<path style="fill:#d3d4d6; stroke:none;" d="M170 225C174.038 226.345 175.506 222.693 178.3 220.313C181.692 217.424 187.079 217.137 190.397 220.273C191.497 221.312 191.607 222.645 192 224C195.121 216.351 184.355 214.28 179.015 217.028C175.318 218.93 173.597 222.98 170 225z"/>
<path style="fill:#d1d1d4; stroke:none;" d="M58 263C54.8936 253.045 55.9993 242.355 56 232C56.0003 227.752 55.2645 222.736 59.1481 219.894C64.6022 215.902 75.5577 218 82 218C76.7197 215.784 59.5097 214.808 56.0278 220.344C52.7893 225.493 55 237.06 55 243C55 249.347 53.1655 258.266 58 263z"/>
<path style="fill:#b9babd; stroke:none;" d="M96 246C97.7392 241.855 96.2309 237.242 97.7269 233C102.1 220.601 111.303 218 123 218C113.268 213.916 100.685 218.978 96.9699 229.015C95.0635 234.165 96 240.59 96 246z"/>
<path style="fill:#c8c8cb; stroke:none;" d="M152 224C152.795 222.775 153.516 221.288 154.569 220.26C161.415 213.579 167.352 226.472 174 227C170.31 224.458 167.921 220.053 163.985 218.028C158.092 214.995 152.485 217.646 152 224z"/>
<path style="fill:#b6b7bb; stroke:none;" d="M60 218C65.4692 220.295 73.0987 219 79 219C73.5308 216.705 65.9013 218 60 218z"/>
<path style="fill:#c3c3c6; stroke:none;" d="M79 218C82.7098 222.499 82.7834 224.908 80 230C86.2399 227.929 84.6977 219.73 79 218z"/>
<path style="fill:#a4a6ab; stroke:none;" d="M106 220C111.179 221.092 118.415 219 124 219C118.621 216.743 111.252 217.784 106 220z"/>
<path style="fill:#c3c4c7; stroke:none;" d="M124 218C125.248 218.685 125.548 218.749 127 219C125.752 218.315 125.452 218.251 124 218z"/>
<path style="fill:#aaabaf; stroke:none;" d="M153 224C155.733 220.813 157.744 219.321 162 219C157.223 217.019 153.799 218.988 153 224z"/>
<path style="fill:#bfc0c4; stroke:none;" d="M177 222C184.154 218.065 190.874 218.436 188 228C197.767 219.373 181.567 213.718 177 222z"/>
<path style="fill:#a0a1a6; stroke:none;" d="M57 258C60.0086 250.83 57.9845 239.754 58 232C58.0075 228.235 57.6716 223.338 61.3441 221.028C64.3441 219.141 69.6056 219.894 72.9961 220.019C76.1943 220.136 78.9389 221.281 82 222L82 227C85.8665 217.413 72.6871 218.988 67 219C64.3852 219.005 60.9098 218.544 58.8935 220.603C56.3801 223.171 57.0015 227.735 57 231L57 258z"/>
<path style="fill:#888990; stroke:none;" d="M101 228C108.642 221.494 114.026 220 124 220C116.017 216.65 103.964 219.378 101 228z"/>
<path style="fill:#aaacb0; stroke:none;" d="M124 219C125.248 219.685 125.548 219.749 127 220C125.752 219.315 125.452 219.251 124 219z"/>
<path style="fill:#cecfd1; stroke:none;" d="M127 219C131.058 222.32 134.357 225.414 137 230C138.814 224.197 132.052 219.779 127 219z"/>
<path style="fill:#93949a; stroke:none;" d="M154 225C156.45 222.141 158.219 220.587 162 220C157.46 218.169 154.727 220.441 154 225z"/>
<path style="fill:#a8aaae; stroke:none;" d="M162 219C163.223 220.195 163.42 220.316 165 221C163.777 219.805 163.58 219.684 162 219z"/>
<path style="fill:#9c9ea3; stroke:none;" d="M180 219C184.041 220.748 187.485 220.204 189 225C191.408 218.663 184.418 219.003 180 219z"/>
<path style="fill:#babbbf; stroke:none;" d="M57 220C54.3864 228.842 56 239.805 56 249C56 252.561 55.187 257.571 57.3179 260.682C59.2363 263.483 63.0369 262.99 66 263C63.421 261.798 60.5348 261.313 58.7423 258.852C56.5171 255.796 57.0014 251.563 57 248C56.9965 238.952 55.4162 228.458 59 220L57 220z"/>
<path style="fill:#7f8188; stroke:none;" d="M60 220C65.4692 222.295 73.0987 221 79 221C73.5308 218.705 65.9013 220 60 220z"/>
<path style="fill:#696b73; stroke:none;" d="M101 230C103.414 228.063 105.426 225.522 108.039 223.843C113.67 220.224 119.79 221.215 126 222C117.696 216.327 104.482 221.042 101 230z"/>
<path style="fill:#86878e; stroke:none;" d="M124 220C125.751 221.255 126.857 221.614 129 222C127.25 220.745 126.143 220.386 124 220z"/>
<path style="fill:#a8a9ae; stroke:none;" d="M127 220C128.904 221.884 130.534 222.953 133 224C131.094 221.677 129.892 220.806 127 220z"/>
<path style="fill:#81838a; stroke:none;" d="M157 220C159.052 220.874 160.747 220.953 163 221C160.948 220.126 159.253 220.047 157 220z"/>
<path style="fill:#818289; stroke:none;" d="M174 229C176.722 226.755 179.801 220.921 183.884 221.732C185.757 222.104 187.423 224.006 189 225C188.208 220.44 183.565 218.489 179.326 221.028C176.498 222.721 175.107 226.083 174 229z"/>
<path style="fill:#696b74; stroke:none;" d="M59 258C61.9042 251.079 59.9966 240.482 60 233C60.0014 229.85 59.263 225.066 62.3179 223.028C66.2249 220.421 74.4632 222 79 222C75.3832 220.482 62.7859 219.121 60.0278 222.603C58.0883 225.052 59 230.09 59 233L59 258z"/>
<path style="fill:#5a5c65; stroke:none;" d="M113 221C116.163 222.327 119.586 222 123 222C119.837 220.673 116.414 221 113 221z"/>
<path style="fill:#686a73; stroke:none;" d="M156 226C156.683 224.494 156.826 223.685 157 222C161.464 222.497 163.995 223.936 166 228C168.249 220.898 154.77 217.949 156 226z"/>
<path style="fill:#929399; stroke:none;" d="M163 221C164.341 222.274 165.403 223.041 167 224C165.774 221.965 165.297 221.674 163 221z"/>
<path style="fill:#555861; stroke:none;" d="M174 231C177.885 228.005 179.907 223.824 185 223C182.839 227.879 179.217 231.695 178 237C180.781 234.334 187.628 227.616 186.263 223.318C185.478 220.846 182.157 220.969 180.324 222.032C177.211 223.838 175.329 227.842 174 231z"/>
<path style="fill:#52555e; stroke:none;" d="M60 259L66 259C58.4379 253.937 60.9995 243.185 61 235C61.0002 231.899 60.1775 227.029 62.6034 224.603C65.751 221.456 73.904 223 78 223L78 225C74.8783 225.026 72.0395 225.276 69 226C73.6821 227.965 79.0654 227.6 80 222C75.443 222 65.3083 220.093 61.6034 223.028C59.082 225.025 60.0002 230.197 60 233L60 259z"/>
<path style="fill:#696c74; stroke:none;" d="M80 222L80 226C80.7102 224.241 80.7102 223.759 80 222z"/>
<path style="fill:#75777d; stroke:none;" d="M81 222C78.7935 228.986 71.4085 224.742 68 230C72.3904 228.14 83.7447 229.096 81 222z"/>
<path style="fill:#444751; stroke:none;" d="M127 257C125.752 256.315 125.452 256.251 124 256C131.939 246.733 133.06 231.278 121 225C126.081 223.776 128.993 225.965 132 230C133.199 226.414 130.292 224.121 126.995 222.843C121.986 220.902 111.69 220.936 107.09 223.857C96.7664 230.414 97.4543 249.17 107.213 256.258C112.001 259.735 121.62 258.281 127 257z"/>
<path style="fill:#6f7179; stroke:none;" d="M127 222C128.896 224.02 130.415 224.995 133 226C131.392 223.427 129.944 222.71 127 222z"/>
<path style="fill:#5a5d65; stroke:none;" d="M157 222L157 226C157.685 224.752 157.749 224.452 158 223L162 223C160.231 222.221 158.964 222.088 157 222z"/>
<path style="fill:#a8aaae; stroke:none;" d="M174 227C175.752 225.41 176.794 224.046 178 222C175.453 223.373 174.812 224.218 174 227z"/>
<path style="fill:#84858c; stroke:none;" d="M58 223L58 249C58 251.917 57.0913 256.939 59.0278 259.397C60.5852 261.373 63.7883 260.974 66 261C64.0194 260.066 61.461 259.643 60.1782 257.683C58.4386 255.025 59.0012 251.012 59 248C58.9971 240.518 60.904 229.921 58 223z"/>
<path style="fill:#474a54; stroke:none;" d="M62 223C64.3316 223.985 66.4567 223.981 69 224C66.2004 227.756 65.0555 230.293 65 235L67 235C67.7252 227.97 71.0599 225.168 78 225L78 223L62 223z"/>
<path style="fill:#494b56; stroke:none;" d="M158 223L159 227C159.685 225.752 159.749 225.452 160 224L167 230C165.619 224.773 163.341 223.174 158 223z"/>
<path style="fill:#a3a5a9; stroke:none;" d="M167 223L168 227C168.393 225.076 168.146 224.64 167 223z"/>
<path style="fill:#3e414c; stroke:none;" d="M160 224C160.686 230.194 166.433 234.655 165.848 241C165.261 247.367 159.225 251.668 158 258L163 258C166.287 246.934 177.509 245.657 180 258L185 258C184.038 251.621 177.87 246.251 177.463 239.91C177.063 233.676 183.444 228.726 185 223C178.392 223.522 177.542 231.13 171.919 232.093C167.896 232.783 163.346 225.776 160 224M61 224L61 257L65 257C65 249.793 65.218 245.811 71 241C64.6969 234.857 65.1993 231.199 69 224L61 224z"/>
<path style="fill:#3b3e49; stroke:none;" d="M110 255C108.982 246.693 105.403 239.752 108.498 231.184C109.459 228.525 111.752 226.534 113 224C98.9901 225.059 97.4558 250.858 110 255M121 224C123.288 226.649 126.309 228.9 128.012 232.004C132.604 240.375 128.537 248.826 124 256C133.758 254.49 138.204 239.703 134.062 231.286C131.454 225.988 126.485 224.133 121 224z"/>
<path style="fill:#9b9da2; stroke:none;" d="M133 224C133.936 225.949 134.392 226.55 136 228C135.064 226.051 134.608 225.45 133 224z"/>
<path style="fill:#bcbdc0; stroke:none;" d="M153 224C153.684 225.58 153.805 225.777 155 227C154.316 225.42 154.195 225.223 153 224z"/>
<path style="fill:#e2e2e3; stroke:none;" d="M97 225C91.3001 237.856 91.9354 261.568 109 265C106.555 262.629 103.602 260.716 101.546 257.96C93.8366 247.629 94.4144 236.253 99 225L97 225z"/>
<path style="fill:#999ba0; stroke:none;" d="M155 225C155.684 226.58 155.805 226.777 157 228C156.316 226.42 156.195 226.223 155 225z"/>
<path style="fill:#93959a; stroke:none;" d="M187 225L187 228C188.015 226.861 188.309 226.388 189 225L187 225z"/>
<path style="fill:#60626c; stroke:none;" d="M113 227C115.34 227.566 117.571 227.176 120 227C117.413 225.935 115.679 226.218 113 227z"/>
<path style="fill:#7c7d84; stroke:none;" d="M133 226C133.825 228.455 134.829 230.688 136 233C137.038 229.708 135.527 228.101 133 226z"/>
<path style="fill:#808288; stroke:none;" d="M157 226L158 230C158.393 228.076 158.146 227.64 157 226z"/>
<path style="fill:#575a62; stroke:none;" d="M158 226C159.566 230.721 164.657 234.943 164.722 240C164.811 246.873 157.396 251.686 157 259L163 259C161.231 258.221 159.964 258.088 158 258C161.165 248.086 170.463 241.753 162.83 231.019C161.411 229.022 159.877 227.528 158 226z"/>
<path style="fill:#7b7d84; stroke:none;" d="M167 226C167.684 227.58 167.805 227.777 169 229C168.316 227.42 168.195 227.223 167 226z"/>
<path style="fill:#86888e; stroke:none;" d="M186 226C184.957 228.095 184.397 229.699 184 232C185.631 229.957 186.444 228.583 186 226z"/>
<path style="fill:#8d8f95; stroke:none;" d="M71 236C69.7033 228.124 76.4494 229.641 82 228C79.055 227.293 74.0012 227.351 71.1481 228.603C67.2317 230.323 68.1189 234.123 71 236z"/>
<path style="fill:#777980; stroke:none;" d="M115 227C116.769 227.779 118.036 227.912 120 228C118.231 227.221 116.964 227.088 115 227z"/>
<path style="fill:#63666e; stroke:none;" d="M120 227C121.807 229.657 124.303 231.253 127 233C125.347 229.564 123.678 228.041 120 227z"/>
<path style="fill:#b9bbbe; stroke:none;" d="M155 227L158 234C159.038 230.708 157.527 229.101 155 227z"/>
<path style="fill:#b7b8bc; stroke:none;" d="M169 227C170.769 227.779 172.036 227.912 174 228C172.231 227.221 170.964 227.088 169 227z"/>
<path style="fill:#8b8d93; stroke:none;" d="M100 228C98.8047 230.166 98.309 231.553 98 234C99.4609 231.95 100.298 230.49 100 228z"/>
<path style="fill:#777980; stroke:none;" d="M112 228C108.1 233.681 108 238.299 108 245C109.224 242.082 108.605 239 109.563 236C110.477 233.138 112.529 230.598 114 228L112 228z"/>
<path style="fill:#93949a; stroke:none;" d="M113 229C115.34 229.566 117.571 229.176 120 229C117.413 227.935 115.679 228.218 113 229z"/>
<path style="fill:#63656e; stroke:none;" d="M133 228C133.684 229.58 133.805 229.777 135 231C134.316 229.42 134.195 229.223 133 228z"/>
<path style="fill:#5d5f68; stroke:none;" d="M167 228C167.684 229.58 167.805 229.777 169 231C168.316 229.42 168.195 229.223 167 228z"/>
<path style="fill:#a4a6aa; stroke:none;" d="M169 228C170.769 228.779 172.036 228.912 174 229C172.231 228.221 170.964 228.088 169 228z"/>
<path style="fill:#b0b1b6; stroke:none;" d="M186 228C184.493 231.335 182.898 234.437 182 238C184.731 235.105 186.434 231.652 188 228L186 228z"/>
<path style="fill:#d7d8da; stroke:none;" d="M188 228C186.414 230.618 185.045 233.126 184 236C186.603 233.762 188.576 231.534 188 228z"/>
<path style="fill:#b2b3b7; stroke:none;" d="M79 236C77.2921 235.254 74.0283 235.082 72.9205 233.456C70.5627 229.996 78.5165 230.018 80 230C77.7358 229.05 74.6968 228.431 72.3187 229.603C69.8575 230.817 69.8696 234.178 72.3171 235.397C74.2318 236.35 76.9341 235.993 79 236z"/>
<path style="fill:#adaeb2; stroke:none;" d="M115 229C116.769 229.779 118.036 229.912 120 230C118.231 229.221 116.964 229.088 115 229z"/>
<path style="fill:#92949a; stroke:none;" d="M120 229C122.019 231.277 123.713 233.241 125 236C126.254 232.007 123.629 230.053 120 229z"/>
<path style="fill:#d3d4d6; stroke:none;" d="M155 229C155.936 230.949 156.392 231.55 158 233C157.064 231.051 156.608 230.45 155 229z"/>
<path style="fill:#8f9197; stroke:none;" d="M169 229C170.769 229.779 172.036 229.912 174 230C172.231 229.221 170.964 229.088 169 229z"/>
<path style="fill:#5f626a; stroke:none;" d="M67 230C67.0715 237.895 69.4666 238.994 77 239C71.2933 236.507 69.8532 235.731 67 230z"/>
<path style="fill:#cdced0; stroke:none;" d="M82 237C81.7993 243.181 79.2547 246.303 73 247C79.3305 249.652 87.9663 242.865 82.3966 236.434C80.0877 233.767 76.1886 234.029 73 234L73 231L80 231C78.4077 230.333 69.6415 229.385 72.1759 233.456C73.5133 235.604 79.6198 236.441 82 237z"/>
<path style="fill:#b5b6b9; stroke:none;" d="M112 230C109.761 235.284 110 240.351 110 246C112.127 240.93 111.639 235.326 114 230L112 230z"/>
<path style="fill:#c7c7ca; stroke:none;" d="M113 233C115.398 231.973 117.416 231.322 120 231C116.883 229.737 114.829 230.176 113 233z"/>
<path style="fill:#b2b3b7; stroke:none;" d="M120 230C121.223 231.195 121.42 231.316 123 232C121.777 230.805 121.58 230.684 120 230z"/>
<path style="fill:#aaabb0; stroke:none;" d="M137 230C137.398 235.045 137.999 239.918 138 245C139.818 240.667 139.868 233.786 137 230z"/>
<path style="fill:#7c7e84; stroke:none;" d="M159 230C160.605 234.18 163.343 237.494 164 242C165.993 237.055 162.752 233.067 159 230z"/>
<path style="fill:#7a7c83; stroke:none;" d="M169 230C170.769 230.779 172.036 230.912 174 231C172.231 230.221 170.964 230.088 169 230z"/>
<path style="fill:#6f7179; stroke:none;" d="M183 230C179.954 234.209 178.155 237.758 178 243C179.884 239.34 183.854 234.017 183 230z"/>
<path style="fill:#555761; stroke:none;" d="M99 231C99 236.82 97.4645 245.262 100.264 250.545C105.823 261.035 123.066 264.76 131.366 254.812C136.937 248.135 136 240.1 136 232C133.697 237.488 135.566 243.422 132.517 249C125.036 262.688 107.041 260.391 101.213 246.83C99.0244 241.738 101.099 236.002 99 231z"/>
<path style="fill:#d7d7d9; stroke:none;" d="M115 231C117.107 232.086 119.787 232.722 121.397 234.572C124.773 238.45 122.585 244.865 121 249C125.86 245.849 124 237.231 124 232C120.975 231.438 118.078 231.064 115 231z"/>
<path style="fill:#e5e5e6; stroke:none;" d="M155 231C156.641 235.11 158.593 238.513 159 243C162.459 238.337 158.972 234.077 155 231z"/>
<path style="fill:#565962; stroke:none;" d="M169 231L169 233L174 233L174 231L169 231z"/>
<path style="fill:#999ba0; stroke:none;" d="M97 232C97 239.847 96.397 246.832 100 254C100.727 250.539 98.8997 247.447 98.3256 244C97.6534 239.964 98.596 235.803 97 232z"/>
<path style="fill:#e3e3e4; stroke:none;" d="M112 244C114.172 238.977 113.471 234.063 120 233C111.623 229.589 112 238.238 112 244z"/>
<path style="fill:#a6a7ac; stroke:none;" d="M159 232C159.684 233.58 159.805 233.777 161 235C160.316 233.42 160.195 233.223 159 232z"/>
<path style="fill:#f3f3f3; stroke:none;" d="M115.653 234.032C110.099 237.976 114.343 252.348 121.397 246.82C125.673 243.469 122.801 228.955 115.653 234.032z"/>
<path style="fill:#c0c0c3; stroke:none;" d="M124 233L124 245C125.512 241.396 125.512 236.604 124 233z"/>
<path style="fill:#86878e; stroke:none;" d="M126 233C125.999 237.763 125.596 242.284 125 247C127.767 243.348 127.756 237.185 126 233z"/>
<path style="fill:#6c6e76; stroke:none;" d="M127 233L127 246C128.591 242.209 128.591 236.791 127 233z"/>
<path style="fill:#6f7179; stroke:none;" d="M136 233C136 243.22 135.562 251.119 127 258C130.803 258.888 132.714 256.122 134.455 252.96C137.447 247.527 138.438 238.811 136 233z"/>
<path style="fill:#cacbcd; stroke:none;" d="M139 233C139 242.805 136.666 249.107 133 258C140.149 252.799 142.441 241.201 139 233z"/>
<path style="fill:#797b82; stroke:none;" d="M98 234L98 246C99.5124 242.396 99.5124 237.604 98 234z"/>
<path style="fill:#95969c; stroke:none;" d="M109 234L109 246C110.512 242.396 110.512 237.604 109 234z"/>
<path style="fill:#d0d0d3; stroke:none;" d="M111 234C111 238.079 109.741 244.152 113 247C112.471 242.814 112.616 237.85 111 234z"/>
<path style="fill:#8c8d93; stroke:none;" d="M137 234L137 249C138.74 244.852 138.74 238.148 137 234z"/>
<path style="fill:#d7d7d9; stroke:none;" d="M140 234L140 244C141.346 240.793 141.346 237.207 140 234z"/>
<path style="fill:#c3c4c7; stroke:none;" d="M159 234C159.684 235.58 159.805 235.777 161 237C160.316 235.42 160.195 235.223 159 234z"/>
<path style="fill:#8b8d93; stroke:none;" d="M182 234C178.032 240.53 178.451 245.666 185 250C183.858 247.417 181.506 244.789 181.012 242C180.515 239.202 182.419 236.774 182 234z"/>
<path style="fill:#e5e5e6; stroke:none;" d="M186 234C180.519 240.486 182.73 245.892 189 251C187.795 247.815 184.869 244.445 184.717 241.001C184.607 238.504 186.168 236.461 186 234z"/>
<path style="fill:#d1d2d3; stroke:none;" d="M95 235L95 245C96.3457 241.793 96.3457 238.207 95 235z"/>
<path style="fill:#95969c; stroke:none;" d="M161 235C162.336 239.732 161.391 242.424 160 247C163.9 243.282 165.073 238.993 161 235z"/>
<path style="fill:#7a7c83; stroke:none;" d="M69 236C72.8034 238.897 77.3398 237.744 79 243C81.4568 236.649 73.3425 236.809 69 236z"/>
<path style="fill:#909298; stroke:none;" d="M71 236C72.6401 236.709 74.2717 236.842 75.9591 237.42C86.1836 240.919 70.4084 245.815 69.0278 248.148C65.5 254.109 69.5637 260.276 60 261C61.1287 261.469 61.8564 261.886 63.1335 261.863C71.569 261.706 67.0332 253.924 70.6034 249.148C73.1965 245.679 77.6518 247.139 80.3966 244.397C82.2799 242.515 81.9713 239.428 82 237C78.2995 236.313 74.7626 236.01 71 236z"/>
<path style="fill:#676971; stroke:none;" d="M107 236C107.001 245.709 108.3 254.622 120 255L120 253C108.51 252.141 110.336 243.933 107 236z"/>
<path style="fill:#a3a3a8; stroke:none;" d="M125 236L125 244C126.161 241.23 126.161 238.77 125 236z"/>
<path style="fill:#585963; stroke:none;" d="M128 236L128 246C129.346 242.793 129.346 239.207 128 236z"/>
<path style="fill:#cccdcf; stroke:none;" d="M161 237C159.834 244.994 151.685 250.243 150.369 257.96C149.093 265.437 160.822 265.192 164.907 262.397C168.052 260.244 169.607 256.855 173 255C167.888 253.291 165.51 260.593 160.996 262.253C157.528 263.529 151.93 261.895 152.963 257.281C154.569 250.106 164.271 245.042 161 237z"/>
<path style="fill:#595b64; stroke:none;" d="M177 237L177 243C177.951 240.715 177.951 239.285 177 237z"/>
<path style="fill:#b1b2b6; stroke:none;" d="M162 238L162 242C162.71 240.241 162.71 239.759 162 238z"/>
<path style="fill:#c1c2c5; stroke:none;" d="M181 238L181 243C181.83 240.97 181.83 240.03 181 238z"/>
<path style="fill:#484a54; stroke:none;" d="M68 239C69.1394 240.015 69.6116 240.309 71 241C68.7649 242.331 66.6069 243.492 65.6019 246.056C63.9674 250.224 66.2451 254.248 62 257C63.506 257.683 64.3148 257.826 66 258C66 247.56 67.8047 243.009 79 243L79 239L68 239z"/>
<path style="fill:#aaabaf; stroke:none;" d="M180 239L180 243C180.71 241.241 180.71 240.759 180 239z"/>
<path style="fill:#6d6e77; stroke:none;" d="M164 242C162.602 244.05 161.749 245.646 161 248C163.015 246.092 164.25 244.792 164 242z"/>
<path style="fill:#585a63; stroke:none;" d="M66 258C68.1427 252.894 65.884 246.188 72.9799 244.318C74.5869 243.894 76.3588 244.019 78 244C66.907 239.347 66 249.989 66 258z"/>
<path style="fill:#e9e9e9; stroke:none;" d="M157 243C154.504 247.212 151.284 251.276 150 256C154.266 252.652 156.726 247.871 159 243L157 243z"/>
<path style="fill:#9e9fa5; stroke:none;" d="M181.333 243.667C181.278 243.722 181.222 244.778 181.667 244.333C181.722 244.278 181.778 243.222 181.333 243.667z"/>
<path style="fill:#bdbec1; stroke:none;" d="M182 243C183.206 247.64 186.23 251.143 189 255C190.491 250.535 185.005 245.942 182 243z"/>
<path style="fill:#707279; stroke:none;" d="M60 259C68.9301 262.707 66.3742 253.904 69.0278 249.059C70.9557 245.538 74.3935 245.117 78 245C73.8632 243.269 68.6309 244.05 67.3179 249.019C66.6605 251.507 67.4665 254.417 65.9738 256.682C64.5804 258.796 62.2536 258.828 60 259z"/>
<path style="fill:#e6e7e7; stroke:none;" d="M113 244C113.421 249.275 116.102 249.881 121 250L121 248C117.311 247.722 115.484 246.713 113 244z"/>
<path style="fill:#a9aaaf; stroke:none;" d="M124 245C122.895 247.259 121.922 248.342 120 250C123.458 250.728 125.011 248.177 124 245z"/>
<path style="fill:#c4c4c7; stroke:none;" d="M70 261C72.5328 254.964 69.3834 248.345 78 247C68.7477 243.269 70 255.342 70 261z"/>
<path style="fill:#76787f; stroke:none;" d="M109 246L109 249C109.696 247.446 109.696 247.554 109 246z"/>
<path style="fill:#a0a1a6; stroke:none;" d="M110 246C111.53 251.273 114.904 251.94 120 252C116.259 250.25 113.455 248.204 110 246z"/>
<path style="fill:#72737b; stroke:none;" d="M126 246C124.739 248.01 123.81 249.778 123 252C125.267 250.127 126.623 248.961 126 246z"/>
<path style="fill:#a7a8ac; stroke:none;" d="M159 246C156.87 249.232 155.095 252.277 154 256C156.728 253.354 159.572 249.923 159 246z"/>
<path style="fill:#7d7e85; stroke:none;" d="M160 247C158.286 249.624 156.944 252.013 156 255C158.464 252.716 160.502 250.449 160 247z"/>
<path style="fill:#656770; stroke:none;" d="M181 247C182.104 249.357 182.956 250.376 185 252C183.896 249.643 183.044 248.624 181 247z"/>
<path style="fill:#d8d8da; stroke:none;" d="M71 261C73.9398 253.994 71.1135 249.117 81 249C70.9892 244.801 71 253.727 71 261z"/>
<path style="fill:#52555e; stroke:none;" d="M163 258C167.433 253.443 170.201 246.57 176.55 252.899C177.453 253.799 178.239 255.013 179 256C179.668 250.987 173.894 246.807 169.043 248.608C165.067 250.085 163.683 254.229 163 258z"/>
<path style="fill:#aaabaf; stroke:none;" d="M69 249L69 261C70.5124 257.396 70.5124 252.604 69 249z"/>
<path style="fill:#bdbec1; stroke:none;" d="M97 249C97.6514 251.434 98.1602 252.283 100 254C99.1986 251.896 98.5034 250.663 97 249z"/>
<path style="fill:#c3c4c8; stroke:none;" d="M113 249C115.308 250.759 117.092 250.917 120 251C117.749 249.912 115.465 249.481 113 249z"/>
<path style="fill:#96979d; stroke:none;" d="M136 249C134.817 251.328 133.777 253.511 133 256C135.401 253.885 136.85 252.22 136 249z"/>
<path style="fill:#63656e; stroke:none;" d="M169 251C174.36 251.23 177.026 255.338 179 260L187 260C185.14 259.131 182.967 258.69 181.32 257.4C178.065 254.85 173.596 245.857 169 251z"/>
<path style="fill:#585a63; stroke:none;" d="M181 249C182.104 251.357 182.956 252.376 185 254C183.896 251.643 183.044 250.624 181 249z"/>
<path style="fill:#a5a6ab; stroke:none;" d="M170 250C168.157 253.326 166.158 256.364 165 260C168.875 256.48 170.386 253.028 176 255C174.495 251.988 173.24 250.925 170 250z"/>
<path style="fill:#929499; stroke:none;" d="M185 250C185.936 251.949 186.392 252.55 188 254C187.064 252.051 186.608 251.45 185 250z"/>
<path style="fill:#8f9197; stroke:none;" d="M120 251C121.248 251.685 121.548 251.749 123 252C121.752 251.315 121.452 251.251 120 251z"/>
<path style="fill:#7c7d84; stroke:none;" d="M168 251L167 255C168.274 253.659 169.041 252.597 170 251L168 251z"/>
<path style="fill:#7f8188; stroke:none;" d="M101 252C101.71 254.944 102.427 256.392 105 258C104.063 255.336 103.306 253.625 101 252z"/>
<path style="fill:#8e8f96; stroke:none;" d="M114 252C116.052 252.874 117.747 252.953 120 253C117.948 252.126 116.253 252.047 114 252z"/>
<path style="fill:#70727a; stroke:none;" d="M185 252L187 259C188.169 255.897 187.302 254.251 185 252z"/>
<path style="fill:#6a6c73; stroke:none;" d="M166 253L165 257C166.303 255.332 166.553 255.008 166 253z"/>
<path style="fill:#c1c2c5; stroke:none;" d="M170 253L176 257C174.444 254.15 173.207 253.497 170 253z"/>
<path style="fill:#cfd0d2; stroke:none;" d="M190 253C190.842 256.631 191.596 259.226 191 263C193.701 259.43 193.128 256.063 190 253z"/>
<path style="fill:#b5b6b9; stroke:none;" d="M100 254C100.936 255.949 101.392 256.55 103 258C102.064 256.051 101.608 255.45 100 254z"/>
<path style="fill:#545760; stroke:none;" d="M185 254L185 258L181 258C183.052 258.874 184.747 258.953 187 259C186.697 256.706 186.422 255.788 185 254z"/>
<path style="fill:#9a9ca1; stroke:none;" d="M188 254L190 260C186.104 260.713 182.896 260.713 179 260C184.321 264.031 194.987 260.848 188 254z"/>
<path style="fill:#666971; stroke:none;" d="M155 255L155 260L162 260C160.231 259.221 158.964 259.088 157 259L157 255L155 255z"/>
<path style="fill:#eaeaeb; stroke:none;" d="M150 257C143.862 265.284 157.371 267.278 162.996 265.106C165.936 263.972 167.547 261.185 170.281 259.898C172.38 258.91 174.131 260.106 176 261L174 255C168.764 255.885 167.456 260.68 162.985 262.972C157.12 265.981 150.891 263.355 150 257z"/>
<path style="fill:#929399; stroke:none;" d="M176 255C176.776 257.132 177.13 257.771 179 259C178.064 257.051 177.608 256.45 176 255z"/>
<path style="fill:#d7d8da; stroke:none;" d="M100 256C105.895 268.371 125.893 267.862 134 258C126.139 261.096 118.681 266.375 110 262.633C106.306 261.04 103.291 258.241 100 256z"/>
<path style="fill:#aeafb3; stroke:none;" d="M152 256L152 261C152.83 258.97 152.83 258.03 152 256z"/>
<path style="fill:#9c9ea3; stroke:none;" d="M153 256L153 262L162 262C157.959 260.235 155.606 259.892 153 256z"/>
<path style="fill:#83858c; stroke:none;" d="M154 256L154 260C154.71 258.241 154.71 257.759 154 256z"/>
<path style="fill:#cfd0d2; stroke:none;" d="M174 256C175.013 258.485 175.726 259.598 178 261C177.051 258.433 176.306 257.468 174 256z"/>
<path style="fill:#7f8188; stroke:none;" d="M188 256C186.256 259.168 184.565 259.731 181 260C184.083 261.282 186.792 260.763 190 260C189.489 258.048 189.267 257.543 188 256z"/>
<path style="fill:#bbbbbf; stroke:none;" d="M191 256L191 261C191.83 258.97 191.83 258.03 191 256z"/>
<path style="fill:#a3a4a9; stroke:none;" d="M112 262C118.755 264.835 128.395 262.586 133 257C125.577 259.475 119.972 261.999 112 262z"/>
<path style="fill:#87898f; stroke:none;" d="M155 260C159.325 261.811 163.428 260.957 166 257C162.2 258.486 159.139 259.869 155 260z"/>
<path style="fill:#dfdfe0; stroke:none;" d="M193 257C191.602 265.789 183.037 264.321 177 261C180.602 267.533 196.907 266.688 193 257z"/>
<path style="fill:#abacb0; stroke:none;" d="M103 258C105.41 260.734 107.382 261.599 111 262C108.539 260.094 105.951 258.993 103 258z"/>
<path style="fill:#8e8f95; stroke:none;" d="M105 258C106.223 259.195 106.42 259.316 108 260C106.777 258.805 106.58 258.684 105 258z"/>
<path style="fill:#73757d; stroke:none;" d="M124 259C125.248 259.685 125.548 259.749 127 260C125.752 259.315 125.452 259.251 124 259z"/>
<path style="fill:#b4b5b9; stroke:none;" d="M178 259C179.614 263.863 187.708 264.768 191 261C185.839 261.958 182.384 262.165 178 259z"/>
<path style="fill:#6f7179; stroke:none;" d="M109 260C113.471 261.876 119.183 261 124 261C119.529 259.124 113.817 260 109 260z"/>
<path style="fill:#b5b7ba; stroke:none;" d="M162 262C163.58 261.316 163.777 261.195 165 260C163.42 260.684 163.223 260.805 162 262z"/>
<path style="fill:#cdced0; stroke:none;" d="M58 263C62.4352 264.861 67.6119 264.46 71 261C66.5547 261.542 62.5414 262.95 58 263z"/>
<path style="fill:#898a90; stroke:none;" d="M111 261C114.697 262.552 119.017 262 123 262C119.303 260.448 114.983 261 111 261z"/>
<path style="fill:#c2c2c5; stroke:none;" d="M109 262C113.059 264.773 118.24 264 123 264C118.896 262.278 113.47 262.565 109 262z"/>
<path style="fill:#b5b5b9; stroke:none;" d="M154 262C156.613 263.098 159.164 262.993 162 263C159.387 261.902 156.835 262.007 154 262z"/>
<path style="fill:#cccdcf; stroke:none;" d="M180 263C182.89 264.213 185.874 263.998 189 264C186.11 262.787 183.126 263.002 180 263z"/>
</svg>
