<?xml version="1.0" encoding="utf-8"?>
<svg xmlns="http://www.w3.org/2000/svg" version="1.1" width="220.739351085" height="272.366294837">
<path d="M117.0,23.0 C125.079692475,23.0 131.082415558,23.6804025931 139.0,25.0 C141.0,25.3333333333 143.312945215,24.8752968103 145.0,26.0 L117.0,23.0 C119.773500981,24.8490006541 123.83772234,21.9459074466 127.0,23.0 L117.0,23.0 C120.16227766,24.0540925534 123.821391116,21.9962287735 127.0,23.0 L151.0,28.0 C162.089877753,31.502066659 172.866272485,38.8662724847 181.0,47.0 C186.960221949,52.9602219486 191.975498775,58.3900695041 196.5,65.5 C197.666666667,67.3333333333 199.028174684,69.0563493684 200.0,71.0 C201.0,73.0 203.0,77.0 203.0,77.0 C204.814834652,81.5370866292 207.348924956,87.4424746886 208.0,92.0 C208.333333333,94.3333333333 209.0,99.0 209.0,99.0 C209.0,108.817331984 210.739351085,120.412271201 208.0,130.0 C207.333333333,132.333333333 206.852072413,134.727806898 206.0,137.0 C205.0,139.666666667 203.0,145.0 203.0,145.0 C198.617791779,153.764416442 194.194882243,161.805117757 187.25,168.75 C184.75,171.25 182.25,173.75 179.75,176.25 C178.5,177.5 176.0,180.0 176.0,180.0 C166.676085877,186.659938659 156.469256593,193.706148681 145.0,196.0 C141.666666667,196.666666667 138.399346342,198.0 135.0,198.0 C133.333333333,198.0 130.0,198.0 130.0,198.0 C129.333333333,197.333333333 128.666666667,196.666666667 128.0,196.0 C128.0,187.111111111 126.945907447,185.108185107 131.0,177.0 C132.0,175.0 134.0,171.0 134.0,171.0 C136.957683672,166.070527214 139.120771507,161.794955494 144.0,158.0 C147.0,155.666666667 153.0,151.0 153.0,151.0 C159.01347376,147.99326312 162.651420703,145.0 169.0,145.0 C170.0,144.666666667 171.122941981,144.584705346 172.0,144.0 C173.176696811,143.215535459 175.0,141.0 175.0,141.0 C175.245614035,121.350877193 175.49122807,101.701754386 175.736842105,82.0526315789 C175.789473684,77.8421052632 175.842105263,73.6315789474 175.894736842,69.4210526316 C175.941422922,65.6861662733 176.677327839,62.3546556782 175.0,59.0 C174.0,59.0 173.0,59.0 172.0,59.0 C165.953395587,65.0466044126 175.637989085,54.8367851838 168.0,66.0 C165.833333333,69.1666666667 163.666666667,72.3333333333 161.5,75.5 L172.0,59.0 C171.467610899,59.778107148 170.532389101,60.221892852 170.0,61.0 L158.25,80.25 C157.166666667,81.8333333333 155.0,85.0 155.0,85.0 C153.986758497,86.013241503 151.940019618,88.6924359143 150.0,89.0 C145.973427848,89.6383589997 141.15971926,89.0 137.076923077,89.0 C129.897435897,89.0 122.717948718,89.0 115.538461538,89.0 C111.230769231,89.0 106.923076923,89.0 102.615384615,89.0 L155.0,85.0 C153.585786438,85.0 153.414213562,88.0 152.0,88.0 L98.3076923077,89.0 C96.8717948718,89.0 94.0,89.0 94.0,89.0 C87.1768779019,85.5884389509 83.3613139476,76.7588434619 79.25,70.75 C78.1666666667,69.1666666667 76.7125046212,67.781261553 76.0,66.0 C75.3333333333,64.3333333333 74.0,61.0 74.0,61.0 C73.0,60.6666666667 72.0,60.3333333333 71.0,60.0 C70.3333333333,60.3333333333 69.6666666667,60.6666666667 69.0,61.0 C69.2745098039,81.0392156863 69.5490196078,101.078431373 69.8235294118,121.117647059 C69.862745098,123.980392157 69.9019607843,126.843137255 69.9411764706,129.705882353 C69.9607843137,131.137254902 70.452682211,132.641953367 70.0,134.0 C68.5755137452,138.273458764 68.956715065,140.956715065 72.0,144.0 C80.2220720693,146.74069069 69.8918148932,143.648635816 78.0,145.0 C83.8370669647,145.972844494 89.1227058616,149.748470574 94.0,153.0 C98.9613467958,157.961346796 105.584096454,162.737510166 109.0,169.0 C110.42766122,171.617378904 113.0,177.0 113.0,177.0 C114.203330188,180.008325469 116.0,183.619901909 116.0,187.0 C116.0,190.0 116.0,196.0 116.0,196.0 C115.333333333,196.666666667 114.666666667,197.333333333 114.0,198.0 C102.263603744,198.0 87.7828093208,193.847966525 78.0,187.0 L114.0,198.0 C112.634613466,197.044229426 110.365386534,198.955770574 109.0,198.0 L73.0,183.5 C71.3333333333,182.333333333 68.0,180.0 68.0,180.0 C61.16378962,173.16378962 52.7707544953,166.587358092 48.0,158.0 C46.3333333333,155.0 43.8323523638,152.329409455 43.0,149.0 C41.7713352198,144.085340879 42.9718253158,145.971825316 40.0,143.0 C39.0,139.666666667 37.0,133.0 37.0,133.0 C37.0,131.666666667 37.3233808334,130.293523334 37.0,129.0 C36.638449237,127.553796948 35.0,126.490711985 35.0,125.0 C35.0,117.8 35.0,110.6 35.0,103.4 C35.0,95.7763893226 34.5952528879,99.7539041523 36.5,91.5 C37.0,89.3333333333 38.0,85.0 38.0,85.0 C41.3079379077,76.178832246 45.1092053907,68.7011351561 50.5,61.0 C51.6666666667,59.3333333333 52.5614436249,57.4385563751 54.0,56.0 C57.1111111111,52.8888888889 60.2222222222,49.7777777778 63.3333333333,46.6666666667 C64.8888888889,45.1111111111 68.0,42.0 68.0,42.0 C73.7568874367,38.2991437907 79.543382177,33.4833145473 86.0,31.0 L68.0,42.0 C69.7259963081,41.3361552661 70.9406703585,39.6638447339 72.6666666667,39.0 L92.5,28.5 C94.6666666667,27.6666666667 99.0,26.0 99.0,26.0" fill="rgb(244,168,90)"/>
<path d="M115.0,218.0 C117.968620135,218.0 121.191547917,217.595773958 124.0,219.0 C126.0,220.0 130.0,222.0 130.0,222.0 C133.849836586,225.849836586 132.215535459,223.823303189 135.0,228.0 C137.866578245,235.166445612 137.0,231.204945064 137.0,240.0 C137.0,242.333333333 137.0,247.0 137.0,247.0 C136.333333333,248.666666667 135.0,252.0 135.0,252.0 C132.484801779,255.772797331 130.081306333,257.959346833 126.0,260.0 C117.71796807,262.366294837 121.426703296,262.0 115.0,262.0 C106.844392035,259.669826296 110.019139192,261.346092795 105.0,258.0 C100.707474212,253.707474212 98.8453900889,251.536170267 97.0,246.0 C97.0,242.333333333 96.1107027082,238.557189167 97.0,235.0 C97.3333333333,233.666666667 97.3853637028,232.229272594 98.0,231.0 C98.6666666667,229.666666667 100.0,227.0 100.0,227.0 C106.527046277,220.472953723 103.470177872,222.264911064 108.0,220.0" fill="rgb(135,137,143)"/>
<path d="M79.0,219.0 C80.0,220.0 82.0,220.585786438 82.0,222.0 L79.0,219.0 C79.0,220.414213562 82.632455532,220.735088936 82.0,222.0 L82.0,225.0 C78.8684726331,231.263054734 68.0,224.503054848 68.0,233.0 C68.3333333333,233.666666667 68.6666666667,234.333333333 69.0,235.0 C69.6666666667,235.333333333 70.3333333333,235.666666667 71.0,236.0 C76.7860965932,236.0 77.2295247146,235.229524715 81.0,239.0 C81.0,240.0 81.0,241.0 81.0,242.0 C78.4729537233,244.527046277 79.8432740427,243.578362979 77.0,245.0 C75.0,245.0 72.4142135624,243.585786438 71.0,245.0 C70.0,246.0 68.0,248.0 68.0,248.0 C68.0,255.691814845 69.5239070135,256.476092986 65.0,261.0 C63.6666666667,261.0 62.3333333333,261.0 61.0,261.0 C60.0,260.0 58.0,258.0 58.0,258.0 C57.6666666667,257.0 57.3333333333,256.0 57.0,255.0 C57.0,246.388888889 57.0,237.777777778 57.0,229.166666667 C57.0,226.322318912 56.2297988078,224.21275149 58.0,222.0 C58.8834522086,220.895684739 61.0,219.0 61.0,219.0" fill="rgb(124,126,133)"/>
<path d="M155.0,220.0 C158.455895223,218.272052389 164.233728278,218.584320694 166.0,223.0 C166.666666667,224.666666667 166.204945064,228.0 168.0,228.0 C170.0,228.0 174.0,228.0 174.0,228.0 C177.171498585,222.714169025 177.0,224.943650632 177.0,222.0 C178.374368542,220.625631458 182.0,219.0 182.0,219.0 C183.333333333,219.0 184.666666667,219.0 186.0,219.0 C186.666666667,219.333333333 187.333333333,219.666666667 188.0,220.0 C189.23570226,223.707106781 189.471404521,222.057190958 188.0,225.0 C184.773601325,229.301864899 179.0,235.02829654 179.0,241.0 C180.394566715,245.183700144 180.248877444,245.623690351 184.0,250.0 C186.0,252.333333333 190.0,257.0 190.0,257.0 C189.666666667,258.0 189.333333333,259.0 189.0,260.0 C188.333333333,260.333333333 187.666666667,260.666666667 187.0,261.0 C185.333333333,261.0 182.0,261.0 182.0,261.0 C181.333333333,260.666666667 180.666666667,260.333333333 180.0,260.0 C177.098694856,257.098694856 175.83772234,253.83772234 173.0,251.0 C172.0,250.666666667 171.0,250.333333333 170.0,250.0 C169.333333333,250.666666667 168.52297636,251.215535459 168.0,252.0 C167.173101769,253.240347346 166.0,256.0 166.0,256.0 C165.358916608,256.641083392 162.150486383,260.69278766 160.0,261.0 C158.350084177,261.23570226 155.0,261.0 155.0,261.0 C154.333333333,260.333333333 153.666666667,259.666666667 153.0,259.0 C153.0,258.333333333 153.0,257.666666667 153.0,257.0 C155.874901285,251.250197431 160.952410586,247.142768243 163.0,241.0 C163.0,236.791692547 163.447213596,236.596284794 160.0,232.0 C158.0,229.333333333 154.0,224.0 154.0,224.0" fill="rgb(107,109,117)"/>
<path d="M116.0,228.0 C117.0,228.0 118.019419324,227.803883865 119.0,228.0 C125.113195453,229.222639091 125.0,235.486400648 125.0,240.0 C125.0,246.942809042 126.414213562,244.585786438 123.0,248.0 C123.0,248.333333333 123.0,248.666666667 123.0,249.0 C121.472953723,250.527046277 122.421637021,249.789181489 120.0,251.0 C118.0,251.0 114.0,251.0 114.0,251.0 C112.666666667,249.666666667 110.0,247.0 110.0,247.0 C109.666666667,246.0 109.333333333,245.0 109.0,244.0 C109.0,242.406956185 108.156725957,235.58058366 110.0,233.0 C111.095993249,231.465609452 114.0,229.0 114.0,229.0" fill="rgb(176,177,181)"/>
</svg>