<?xml version="1.0" encoding="utf-8"?>
<svg xmlns="http://www.w3.org/2000/svg" version="1.1" width="544.373302184" height="540.727443766">
<path d="M29.0,21.0 C41.7109679492,13.7365897433 52.9647960439,15.0 67.2654867257,15.0 C87.4867256637,15.0 107.707964602,15.0 127.92920354,15.0 C206.1179941,15.0 284.306784661,15.0 362.495575221,15.0 C400.241887906,15.0 437.98820059,15.0 475.734513274,15.0 C484.788743658,15.0 498.72697341,12.2725562343 507.0,17.0 C509.333333333,18.3333333333 512.099707625,19.0997076248 514.0,21.0 C516.666666667,23.6666666667 522.0,29.0 522.0,29.0 C529.263410257,41.7109679492 528.0,52.9647960439 528.0,67.2654867257 C528.0,87.4867256637 528.0,107.707964602 528.0,127.92920354 C528.0,206.1179941 528.0,284.306784661 528.0,362.495575221 C528.0,400.241887906 528.0,437.98820059 528.0,475.734513274 C528.0,485.237422217 530.417353522,498.165292957 526.0,507.0 C522.891948657,513.216102685 525.002761396,509.896962464 519.0,516.5 C517.333333333,518.333333333 514.0,522.0 514.0,522.0 C501.289032051,529.263410257 490.035203956,528.0 475.734513274,528.0 C455.513274336,528.0 435.292035398,528.0 415.07079646,528.0 C336.8820059,528.0 258.693215339,528.0 180.504424779,528.0 C142.758112094,528.0 105.01179941,528.0 67.2654867257,528.0 C58.2112563418,528.0 44.27302659,530.727443766 36.0,526.0 C33.6666666667,524.666666667 30.9002923752,523.900292375 29.0,522.0 C26.3333333333,519.333333333 21.0,514.0 21.0,514.0 C13.7365897433,501.289032051 15.0,490.035203956 15.0,475.734513274 C15.0,456.861356932 15.0,437.98820059 15.0,419.115044248 C15.0,342.274336283 15.0,265.433628319 15.0,188.592920354 C15.0,152.194690265 15.0,115.796460177 15.0,79.3982300885 C15.0,71.3097345133 15.0,63.2212389381 15.0,55.1327433628 C15.0,51.6865359135 14.0580864672,46.2966973648 15.0,43.0 C15.6666666667,40.6666666667 15.7960180028,38.1069684951 17.0,36.0 C18.3333333333,33.6666666667 21.0,29.0 21.0,29.0" fill="rgb(53,53,53)"/>
<path d="M40.0,32.0 C50.0944620959,27.9622151616 62.5183431125,30.0 73.3125,30.0 C97.5803571429,30.0 121.848214286,30.0 146.116071429,30.0 C229.705357143,30.0 313.294642857,30.0 396.883928571,30.0 C423.848214286,30.0 450.8125,30.0 477.776785714,30.0 C484.401014365,30.0 499.874057386,27.0197336175 505.0,33.0 C506.790130427,35.088485498 513.0,40.8115320659 513.0,45.0 C513.0,57.25 513.0,69.5 513.0,81.75 C513.0,118.5 513.0,155.25 513.0,192.0 C513.0,204.25 513.0,216.5 513.0,228.75 C513.0,231.279627428 514.223543401,238.858799049 513.0,241.0 C511.666666667,243.333333333 509.738290847,245.415982034 509.0,248.0 C507.370474547,253.703339085 505.869212734,265.282696816 499.0,267.0 C497.383095833,267.404226042 495.547461151,266.381015539 494.0,267.0 C492.333333333,267.666666667 490.795054936,269.0 489.0,269.0 C487.0,269.0 484.83829006,268.212161403 483.0,269.0 C480.666666667,270.0 476.0,272.0 476.0,272.0 C475.0,272.0 474.0,272.0 473.0,272.0 C471.666666667,272.666666667 469.0,274.0 469.0,274.0 C463.255505956,274.0 458.509008301,267.480730062 454.4,263.6 C445.290134532,254.996238169 436.127538817,246.772949014 426.5,238.75 C421.750652658,234.792210548 417.785053468,229.828042774 413.0,226.0 C411.333333333,224.666666667 410.134374746,222.0 408.0,222.0 C406.333333333,222.0 403.0,222.0 403.0,222.0 C394.80814089,227.324708422 386.413712802,232.374067075 378.666666667,238.333333333 C375.207528265,240.994209027 370.986794254,243.026411492 369.0,247.0 C371.919983975,264.519903851 381.844437671,281.953069861 388.5625,298.375 C390.8125,303.875 393.0625,309.375 395.3125,314.875 C395.875,316.25 397.0,317.514391959 397.0,319.0 C397.0,320.666666667 397.0,324.0 397.0,324.0 C392.166745914,330.283230312 387.539068937,335.921862126 384.0,343.0 C383.0,345.0 382.58113883,347.41886117 381.0,349.0 C379.666666667,350.333333333 377.0,353.0 377.0,353.0 C368.02362946,354.795274108 358.932496069,352.625769836 350.0,354.0 C341.096106555,355.369829761 333.334541303,356.0 324.333333333,356.0 C318.175623441,356.0 308.5014588,354.79941648 303.0,357.0 C301.333333333,357.666666667 298.0,359.0 298.0,359.0 C295.646012274,363.707975453 293.0,372.707201346 293.0,378.0 C293.0,380.333333333 293.737864787,382.786405638 293.0,385.0 C292.333333333,387.0 291.0,388.891814893 291.0,391.0 L298.0,359.0 C298.0,359.745355992 297.0,360.254644008 297.0,361.0 L291.0,397.0 C291.0,399.0 291.0,403.0 291.0,403.0 C306.394560508,414.545920381 279.633396227,395.219083558 302.0,408.0 C314.66581286,415.237607348 328.729817857,419.361119857 342.0,425.2 C347.0,427.4 352.0,429.6 357.0,431.8 C358.666666667,432.533333333 360.712452806,432.712452806 362.0,434.0 C363.0,435.0 365.0,437.0 365.0,437.0 C365.0,439.0 364.257218647,441.143046618 365.0,443.0 C365.666666667,444.666666667 367.0,446.204945064 367.0,448.0 C367.0,450.0 366.212161403,452.16170994 367.0,454.0 C370.393919299,461.91914503 370.0,458.461408965 370.0,464.0 C372.976825342,469.953650683 372.822792121,468.971509848 368.0,475.0 C366.666666667,476.666666667 364.0,480.0 364.0,480.0 C357.555555556,487.111111111 351.111111111,494.222222222 344.666666667,501.333333333 C342.518518519,503.703703704 340.37037037,506.074074074 338.222222222,508.444444444 C337.148148148,509.62962963 335.0,512.0 335.0,512.0 C330.722289112,514.138855444 324.584953948,513.0 319.846153846,513.0 C311.076923077,513.0 302.307692308,513.0 293.538461538,513.0 C289.153846154,513.0 284.769230769,513.0 280.384615385,513.0 C278.923076923,513.0 276.0,513.0 276.0,513.0 C274.666666667,511.666666667 272.0,509.0 272.0,509.0 C271.5,507.0 271.0,505.0 270.5,503.0 C270.0,501.0 269.0,497.0 269.0,497.0 C266.6,490.866666667 264.2,484.733333333 261.8,478.6 C261.2,477.066666667 261.646545205,474.0 260.0,474.0 L269.0,497.0 C267.353454795,497.0 268.846545205,492.4 267.2,492.4 L254.0,474.0 C252.0,474.0 248.0,474.0 248.0,474.0 C207.556571455,490.177371418 293.770329614,456.409890129 235.0,476.0 C233.0,476.666666667 231.108185107,478.0 229.0,478.0 C226.666666667,478.0 224.213594362,477.262135213 222.0,478.0 C213.763932023,480.745355992 218.086996779,479.701857603 209.0,481.0 C206.666666667,481.333333333 204.357022604,482.0 202.0,482.0 C199.0,482.0 193.0,482.0 193.0,482.0 C187.823017535,476.823017535 185.72077641,469.596677036 181.5,463.5 C180.0,461.333333333 177.0,457.0 177.0,457.0 C177.0,449.382611524 187.094342438,439.886789075 192.0,434.0 C193.666666667,432.0 195.83571672,430.32856656 197.0,428.0 C197.666666667,426.666666667 199.0,424.0 199.0,424.0 C203.266666667,418.666666667 207.533333333,413.333333333 211.8,408.0 C212.866666667,406.666666667 215.0,405.707499797 215.0,404.0 C215.0,402.333333333 215.0,399.0 215.0,399.0 C207.917087744,391.130097494 201.871067492,382.871067492 194.4,375.4 C191.866666667,372.866666667 189.333333333,370.333333333 186.8,367.8 C185.533333333,366.533333333 183.0,364.0 183.0,364.0 C174.933657655,364.0 166.405725997,372.167747573 160.0,376.285714286 C157.333333333,378.0 154.666666667,379.714285714 152.0,381.428571429 C150.666666667,382.285714286 148.0,384.0 148.0,384.0 C147.0,383.666666667 146.0,383.333333333 145.0,383.0 C145.0,379.336884573 149.068112847,377.440401259 151.666666667,375.166666667 C158.333333333,369.333333333 165.0,363.5 171.666666667,357.666666667 C175.0,354.75 178.333333333,351.833333333 181.666666667,348.916666667 C182.777777778,347.944444444 185.0,346.0 185.0,346.0 C190.174724899,346.0 194.825275101,350.0 200.0,350.0 C208.054092553,350.0 204.786405638,349.262135213 210.0,351.0 C217.146288319,358.146288319 219.721562072,368.443124144 224.0,377.0 C225.885618083,380.771236166 225.952349611,385.314229299 228.0,389.0 C229.666666667,392.0 232.057190958,394.700168354 233.0,398.0 C233.666666667,400.333333333 235.0,405.0 235.0,405.0 C236.0,407.0 235.763932023,411.0 238.0,411.0 L235.0,405.0 C237.236067977,405.0 235.763932023,411.0 238.0,411.0 L244.5,411.0 C246.666666667,411.0 251.0,411.0 251.0,411.0 C254.555555556,410.333333333 258.111111111,409.666666667 261.666666667,409.0 C263.444444444,408.666666667 267.0,408.0 267.0,408.0 C277.713921561,404.785823532 275.443650996,408.112698008 278.0,403.0 C278.0,396.655336658 276.95892916,389.24642504 278.0,383.0 C279.002453313,376.985280122 280.0,371.563027702 280.0,365.5 C280.0,361.833333333 280.0,358.166666667 280.0,354.5 C280.0,352.666666667 280.0,349.0 280.0,349.0 C280.333333333,346.333333333 278.935467345,342.720443879 281.0,341.0 C283.0,339.333333333 287.0,336.0 287.0,336.0 C290.333333333,334.333333333 294.170417708,333.42535625 297.0,331.0 C299.333333333,329.0 304.0,325.0 304.0,325.0 C308.889960182,325.0 313.125846307,327.297192365 317.666666667,329.0 C327.612927024,332.729847634 337.077559146,337.601898236 347.0,341.5 C354.543835934,344.463649831 360.917626793,348.694124402 369.0,346.0 C374.42220929,338.770387613 379.945989131,331.806875776 384.5,324.0 C388.503871026,317.136221099 388.0,320.315407332 388.0,315.0 C378.574364224,303.689237068 368.73393426,292.865240597 358.8,282.0 C355.6,278.5 352.4,275.0 349.2,271.5 C348.133333333,270.333333333 346.0,269.580787427 346.0,268.0 C346.0,266.0 346.0,262.0 346.0,262.0 C347.333333333,258.0 350.0,254.216370214 350.0,250.0 C350.0,247.666666667 350.0,243.0 350.0,243.0 C351.0,241.666666667 353.0,239.0 353.0,239.0 C360.38276672,235.30861664 369.973208571,233.015309388 377.0,229.0 C379.333333333,227.666666667 381.415982034,225.738290847 384.0,225.0 C386.333333333,224.333333333 389.284061643,224.715938357 391.0,223.0 C394.751983003,219.248016997 392.112117211,221.317100996 400.0,218.5 C402.333333333,217.666666667 407.0,216.0 407.0,216.0 C408.333333333,215.0 411.0,214.666666667 411.0,213.0 C411.0,201.80784226 411.456171553,206.965115093 410.0,197.5 C409.666666667,195.333333333 409.0,191.0 409.0,191.0 C407.479714368,185.298928879 407.30310041,178.30310041 403.0,174.0 C399.222222222,174.0 395.444444444,174.0 391.666666667,174.0 C389.777777778,174.0 386.0,174.0 386.0,174.0 C374.0,173.2 362.0,172.4 350.0,171.6 C347.0,171.4 343.126029163,173.126029163 341.0,171.0 C339.666666667,169.666666667 337.0,167.0 337.0,167.0 C335.333333333,163.666666667 334.42535625,159.829582292 332.0,157.0 C325.51492875,149.434083542 327.374368542,152.748737084 325.0,148.0 C325.0,142.030520839 327.841919688,137.024378948 330.076923077,131.538461538 C332.897435897,124.615384615 335.717948718,117.692307692 338.538461538,110.769230769 C340.230769231,106.615384615 341.923076923,102.461538462 343.615384615,98.3076923077 L325.0,148.0 C325.503062516,146.765210187 324.496937484,145.234789813 325.0,144.0 L345.307692308,94.1538461538 C345.871794872,92.7692307692 347.0,90.0 347.0,90.0 C347.0,88.0 348.585247978,85.2194215217 347.0,84.0 C341.180119973,79.5231692102 335.508877321,74.9699925638 329.333333333,71.0 L347.0,90.0 C345.317643049,88.9184848174 348.682356951,85.0815151826 347.0,84.0 L324.666666667,68.0 C323.111111111,67.0 320.0,65.0 320.0,65.0 C319.0,64.6666666667 318.0,64.3333333333 317.0,64.0 C310.861521236,65.5346196909 307.501052515,69.9990431678 302.846153846,74.2307692308 C294.948717949,81.4102564103 287.051282051,88.5897435897 279.153846154,95.7692307692 C275.309756981,99.26385729 271.679923405,103.660038297 267.0,106.0 C261.502525833,106.0 256.497474167,102.0 251.0,102.0 C248.333333333,102.0 243.0,102.0 243.0,102.0 C237.229506745,97.383605396 234.124822628,92.4368791982 232.0,85.0 C231.333333333,82.6666666667 231.178511302,80.1213203436 230.0,78.0 C223.976174805,67.1571146495 226.085254706,72.2557641192 223.0,63.0 C207.692742122,17.0782263673 228.308565293,75.94427191 219.0,55.0 C218.014422446,52.7824505027 218.085254706,50.1705094128 217.0,48.0 C216.0,46.0 214.0,42.0 214.0,42.0 C207.363469067,41.3966790061 196.495890317,39.7520548415 190.0,43.0 C184.807430412,45.596284794 187.490711985,45.0 182.0,45.0 C179.333333333,46.0 174.185345464,45.1580362124 174.0,48.0 C173.4,57.2 172.8,66.4 172.2,75.6 C171.9,80.2 171.6,84.8 171.3,89.4 C171.2,90.9333333333 171.0,94.0 171.0,94.0 C171.0,97.7777777778 171.0,101.555555556 171.0,105.333333333 C171.0,107.222222222 171.0,111.0 171.0,111.0 C165.911078524,116.088921476 159.803166841,118.14762487 154.0,122.5 C152.0,124.0 148.0,127.0 148.0,127.0 C141.945907447,127.0 144.58113883,127.527046277 140.0,126.0 C139.333333333,125.333333333 138.666666667,124.666666667 138.0,124.0 C127.029038873,124.0 147.572478777,124.514495755 130.0,121.0 C122.166501763,119.433300353 115.17421118,115.742158178 107.857142857,112.571428571 C105.0,111.333333333 102.142857143,110.095238095 99.2857142857,108.857142857 C97.8571428571,108.238095238 95.0,107.0 95.0,107.0 C92.9748737342,106.324957911 87.017766953,101.982233047 84.0,105.0 C81.2022937084,107.797706292 79.1111111111,111.222222222 76.6666666667,114.333333333 C75.4444444444,115.888888889 73.0,119.0 73.0,119.0 C71.0,122.111111111 69.0,125.222222222 67.0,128.333333333 C66.0,129.888888889 64.0,133.0 64.0,133.0 C64.0,134.666666667 64.0,138.0 64.0,138.0 C74.0,149.19047619 84.0,160.380952381 94.0,171.571428571 C98.720209189,176.853567426 106.0,181.67235775 106.0,189.0 C104.666666667,192.666666667 102.0,196.098433363 102.0,200.0 C102.0,202.333333333 102.866578245,204.833554388 102.0,207.0 C101.333333333,208.666666667 100.0,212.0 100.0,212.0 C91.7709560361,218.171782973 81.9805945599,219.704933037 73.0,224.0 C66.8666666667,226.933333333 60.7333333333,229.866666667 54.6,232.8 C50.0085646137,234.99590388 44.5828252111,235.417174789 41.0,239.0 C38.2962125117,247.111362465 42.2906601689,258.19516881 44.0,266.4 L41.0,239.0 C41.2149866605,240.03193597 39.7850133395,240.96806403 40.0,242.0 L45.0,271.2 C45.3333333333,272.8 46.0,276.0 46.0,276.0 C50.2931643507,280.293164351 56.4344974758,277.143768842 62.0,278.0 C72.1353578348,279.559285821 81.2448059192,280.0 91.5,280.0 C97.7007448932,280.0 105.405729619,279.20286481 111.0,282.0 C115.299640667,286.299640667 116.816920115,290.743688161 120.333333333,295.666666667 L111.0,282.0 C112.095993249,283.534390548 113.904006751,284.465609452 115.0,286.0 L123.666666667,300.333333333 C124.777777778,301.888888889 127.0,305.0 127.0,305.0 C125.926014313,311.443914125 125.838983424,314.601694293 122.0,321.0 C121.0,322.666666667 119.558503899,324.138320336 119.0,326.0 C118.0,329.333333333 117.790497795,333.015837009 116.0,336.0 C115.0,337.666666667 113.0,339.056349368 113.0,341.0 L127.0,305.0 C127.0,307.02758751 126.692913966,309.094486592 126.0,311.0 L113.0,344.0 C111.98111904,346.80192264 109.0,349.01857603 109.0,352.0 L127.0,305.0 C127.0,307.02758751 126.711933505,309.101510654 126.0,311.0 L109.0,355.0 C106.915844297,360.557748542 105.0,361.893865904 105.0,368.0 C113.579216976,376.579216976 125.589433855,380.589433855 134.0,389.0 C133.666666667,390.333333333 133.0,393.0 133.0,393.0 C130.450490243,393.849836586 126.0,397.0 126.0,397.0 C120.99306757,397.0 123.747409319,397.664363839 118.5,393.0 C117.0,391.666666667 114.0,389.0 114.0,389.0 C112.166666667,387.833333333 110.333333333,386.666666667 108.5,385.5 C106.666666667,384.333333333 103.0,382.0 103.0,382.0 C99.0364287133,378.036428713 98.3075743432,379.193192426 99.0,374.0 C99.4925451038,370.305911721 101.0,363.0 101.0,363.0 C103.5,355.222222222 106.0,347.444444444 108.5,339.666666667 C109.0,338.111111111 109.797334945,336.621320438 110.0,335.0 C110.333333333,332.333333333 111.0,327.0 111.0,327.0 C112.385509397,322.843471808 118.534032477,314.267016239 112.0,311.0 C106.222222222,308.111111111 100.444444444,305.222222222 94.6666666667,302.333333333 L111.0,327.0 C109.114381917,326.057190958 114.885618083,321.942809042 113.0,321.0 L90.3333333333,300.166666667 C88.8888888889,299.444444444 86.0,298.0 86.0,298.0 C82.0,296.333333333 78.2743736699,293.712395612 74.0,293.0 C72.0,292.666666667 68.0,292.0 68.0,292.0 C61.6363636364,300.484848485 55.2727272727,308.96969697 48.9090909091,317.454545455 C46.1818181818,321.090909091 43.4545454545,324.727272727 40.7272727273,328.363636364 C39.8181818182,329.575757576 38.0,332.0 38.0,332.0 C33.3384814155,340.157657523 36.6874192494,339.0 30.0,339.0 C30.0,272.305555556 30.0,205.611111111 30.0,138.916666667 C30.0,115.777777778 30.0,92.6388888889 30.0,69.5 C30.0,62.6944444444 30.0,55.8888888889 30.0,49.0833333333 C30.0,47.7222222222 29.4638320658,46.2510585131 30.0,45.0 C31.0,42.6666666667 33.0,38.0 33.0,38.0" fill="rgb(210,210,210)"/>
<path d="M203.0,41.0 C206.0,41.0 209.878679656,38.8786796564 212.0,41.0 C216.39498921,45.3949892096 220.026853895,54.0805616836 222.0,60.0 L203.0,41.0 C203.948683298,43.8460498942 211.051316702,38.1539501058 212.0,41.0 L224.0,66.0 C224.666666667,68.0 226.0,72.0 226.0,72.0 C229.200561057,77.7610099018 232.463432487,84.2927230961 235.0,90.0 C235.985577554,92.2175494973 235.543978022,95.0586373629 237.0,97.0 C238.0,98.3333333333 240.0,101.0 240.0,101.0 C243.492849839,102.16428328 247.539880785,100.741774831 251.0,102.0 C254.666666667,103.333333333 258.098433363,106.0 262.0,106.0 C264.0,106.0 268.0,106.0 268.0,106.0 C272.60683834,103.69658083 276.354153309,99.2234969922 280.153846154,95.7692307692 C286.923076923,89.6153846154 293.692307692,83.4615384615 300.461538462,77.3076923077 C303.846153846,74.2307692308 307.230769231,71.1538461538 310.615384615,68.0769230769 C311.743589744,67.0512820513 312.475275,65.0 314.0,65.0 C315.666666667,65.0 319.0,65.0 319.0,65.0 C324.866666667,69.0 330.733333333,73.0 336.6,77.0 C338.066666667,78.0 339.613850941,78.8910807527 341.0,80.0 C342.666666667,81.3333333333 346.0,84.0 346.0,84.0 C346.333333333,85.6666666667 347.0,89.0 347.0,89.0 C341.523809524,102.571428571 336.047619048,116.142857143 330.571428571,129.714285714 C328.928571429,133.785714286 327.285714286,137.857142857 325.642857143,141.928571429 C325.095238095,143.285714286 323.456483562,144.641208906 324.0,146.0 C324.666666667,147.666666667 324.831793733,149.637092688 326.0,151.0 C328.0,153.333333333 332.0,158.0 332.0,158.0 C333.666666667,161.333333333 334.364768617,165.364768617 337.0,168.0 C338.0,169.0 340.0,171.0 340.0,171.0 C346.666666667,171.444444444 353.333333333,171.888888889 360.0,172.333333333 L340.0,171.0 C341.666666667,171.111111111 343.333333333,171.222222222 345.0,171.333333333 L365.0,172.666666667 C366.666666667,172.777777778 370.0,173.0 370.0,173.0 C377.619047619,173.238095238 385.238095238,173.476190476 392.857142857,173.714285714 C395.904761905,173.80952381 399.843955919,171.843955919 402.0,174.0 C407.747884951,179.747884951 407.468868155,185.638114404 409.0,193.6 L370.0,173.0 C370.287907934,174.497121258 374.283520637,171.645735885 374.571428571,173.142857143 L410.0,198.8 C410.333333333,200.533333333 411.0,204.0 411.0,204.0 C411.0,206.666666667 411.0,212.0 411.0,212.0 C401.182584053,221.817415947 385.601913474,222.370335158 374.0,229.0 C368.728033658,232.012552195 363.107593615,234.446203193 358.0,237.0 C356.114381917,237.942809042 352.0,239.0 352.0,239.0 C351.333333333,240.333333333 350.0,243.0 350.0,243.0 C350.0,252.108185107 350.737864787,247.786405638 348.0,256.0 C347.333333333,258.0 346.0,262.0 346.0,262.0 C346.0,264.333333333 344.425538534,267.277932772 346.0,269.0 C355.6,279.5 365.2,290.0 374.8,300.5 C379.756705307,305.92139643 376.98800455,302.78560546 383.0,310.0 C384.666666667,312.0 388.0,316.0 388.0,316.0 C388.0,316.666666667 388.0,317.333333333 388.0,318.0 C367.504438113,343.619452358 400.772607021,301.31835017 381.0,329.0 C379.333333333,331.333333333 376.0,336.0 376.0,336.0 C374.666666667,337.333333333 373.095993249,338.465609452 372.0,340.0 C370.333333333,342.333333333 369.867441756,347.0 367.0,347.0 C365.333333333,347.0 362.0,347.0 362.0,347.0 C350.188020619,342.427620885 337.371956984,336.591144311 326.0,333.0 C321.448924677,331.562818319 317.527692569,328.509230856 313.0,327.0 C311.0,326.333333333 307.0,325.0 307.0,325.0 C300.865625254,325.0 304.041158413,324.16707327 298.0,329.0 C296.333333333,330.333333333 293.0,333.0 293.0,333.0 C289.666666667,334.666666667 283.0,338.0 283.0,338.0 C276.685074364,347.472388455 281.759609121,360.442345273 280.0,371.0 C279.333333333,375.0 278.0,378.94482498 278.0,383.0 C278.0,388.0 278.0,393.0 278.0,398.0 C278.0,399.666666667 278.0,403.0 278.0,403.0 C273.4767427,407.5232573 267.001524938,407.799695012 261.0,409.0 L278.0,403.0 C277.075499673,403.184900065 276.924500327,404.815099935 276.0,405.0 L256.0,410.0 C254.333333333,410.333333333 251.0,411.0 251.0,411.0 C248.833333333,410.833333333 246.666666667,410.666666667 244.5,410.5 C242.333333333,410.333333333 238.0,410.0 238.0,410.0 C238.0,407.266750844 238.23570226,411.471404521 236.0,407.0 L238.0,410.0 C237.850928802,409.701857603 238.105409255,409.316227766 238.0,409.0 L234.0,401.0 C230.629592233,390.8887767 224.544281962,381.923989494 221.0,372.0 C219.333333333,367.333333333 219.503966007,361.503966007 216.0,358.0 C207.285954792,349.285954792 218.414213562,361.357022604 214.0,354.0 C213.272393125,352.787321875 211.0,351.0 211.0,351.0 C207.428141949,350.107035487 203.460119215,351.258225169 200.0,350.0 C196.333333333,348.666666667 192.901566637,346.0 189.0,346.0 C187.333333333,346.0 184.0,346.0 184.0,346.0 C175.870176953,351.419882031 168.699414048,359.904515638 161.285714286,366.428571429 C157.714285714,369.571428571 154.142857143,372.714285714 150.571428571,375.857142857 C149.380952381,376.904761905 147.0,379.0 147.0,379.0 C143.230868038,381.741186881 137.601368382,388.906848811 132.0,387.0 C126.8888452,385.260032409 121.125636454,379.435225359 116.666666667,376.333333333 L147.0,379.0 C145.139080351,377.705447201 143.360919649,384.294552799 141.5,383.0 L112.833333333,373.666666667 C111.555555556,372.777777778 109.0,371.0 109.0,371.0 C107.666666667,369.666666667 105.0,367.0 105.0,367.0 C105.0,361.440526289 108.273653553,357.17903934 110.0,352.0 C111.75,346.75 113.5,341.5 115.25,336.25 C117.707106781,328.878679656 116.175042089,332.649915823 120.0,325.0 C121.0,323.0 123.0,319.0 123.0,319.0 C123.133906655,318.631756698 128.476928343,307.840013693 127.0,304.0 C125.627531198,300.431581115 122.555555556,297.777777778 120.333333333,294.666666667 C119.222222222,293.111111111 117.0,290.0 117.0,290.0 C116.333333333,288.333333333 115.0,285.0 115.0,285.0 C110.758002728,280.758002728 109.551774168,281.045981181 103.0,280.5 C101.0,280.333333333 97.0,280.0 97.0,280.0 C89.9713141363,280.0 81.9357425679,281.067037318 75.0,280.0 L97.0,280.0 C95.187985221,279.721228496 93.312014779,280.278771504 91.5,280.0 L68.5,279.0 C66.3333333333,278.666666667 62.0,278.0 62.0,278.0 C58.7496934543,278.0 47.2655594244,280.821573352 46.0,275.0 C44.75,269.25 43.5,263.5 42.25,257.75 C41.8333333333,255.833333333 41.0,252.0 41.0,252.0 C41.0,250.0 41.0,248.0 41.0,246.0 C41.0,244.0 41.0,240.0 41.0,240.0 C45.2533256394,235.746674361 50.8691227224,236.130877278 55.0,232.0 C64.9549655762,227.733586182 75.6681021695,223.665948915 85.0,219.0 C89.9984001186,216.500799941 95.3001437453,216.133237503 100.0,213.0 C100.666666667,211.0 102.0,209.108185107 102.0,207.0 C102.0,204.666666667 101.202599519,202.192851321 102.0,200.0 C103.333333333,196.333333333 106.0,192.901566637 106.0,189.0 C106.0,187.333333333 106.0,184.0 106.0,184.0 C97.0,173.928571429 88.0,163.857142857 79.0,153.785714286 C76.0,150.428571429 73.0,147.071428571 70.0,143.714285714 L106.0,184.0 C105.0,182.880952381 104.0,181.761904762 103.0,180.642857143 L67.0,140.357142857 C66.0,139.238095238 64.0,137.0 64.0,137.0 C64.0,129.402721628 72.9198057212,120.106925705 77.5,114.0 C79.0,112.0 80.232233047,109.767766953 82.0,108.0 C83.0,107.0 85.0,105.0 85.0,105.0 C93.7372863803,105.0 103.017209323,110.426016512 111.142857143,113.571428571 C114.095238095,114.714285714 117.761398234,114.761398234 120.0,117.0 L85.0,105.0 C85.9428090416,105.942809042 87.7620310788,104.504812432 89.0,105.0 L122.0,119.0 C124.552138312,120.020855325 128.056349368,119.056349368 130.0,121.0 C133.751983003,124.751983003 131.112117211,122.682899004 139.0,125.5 C141.333333333,126.333333333 146.0,128.0 146.0,128.0 C152.024034164,125.991988612 155.34293955,120.424454479 161.0,118.0 C163.333333333,117.0 166.476845379,117.030872828 168.0,115.0 C169.0,113.666666667 171.0,111.0 171.0,111.0 C171.0,97.7386785708 171.617985276,84.7302208582 172.5,71.5 C172.8,67.0 173.1,62.5 173.4,58.0 L171.0,111.0 C171.12564702,109.115294702 170.87435298,107.218038632 171.0,105.333333333 L173.7,53.5 C173.8,52.0 174.0,49.0 174.0,49.0 C175.333333333,48.0 178.0,46.0 178.0,46.0 C180.666666667,45.6666666667 183.59629915,46.2018504252 186.0,45.0 C187.333333333,44.3333333333 190.0,43.0 190.0,43.0" fill="rgb(72,72,72)"/>
<path d="M142.0,383.0 C146.5,384.5 145.5,387.5 141.0,386.0" fill="rgb(143,143,141)"/>
<path d="M136.0,387.0 C140.5,388.5 139.5,391.5 135.0,390.0" fill="rgb(91,91,89)"/>
<path d="M200.0,54.0 C201.333333333,54.0 202.735088936,53.5783629786 204.0,54.0 C206.084540345,54.6948467815 207.973416903,60.2287505059 208.333333333,61.0 C211.359781377,67.4852458073 214.027400643,73.7886588878 216.5,80.5 C217.666666667,83.6666666667 217.613696489,87.6136964895 220.0,90.0 C223.403421419,93.4034214191 224.422351519,99.9291733413 226.5,104.5 C227.333333333,106.333333333 229.0,110.0 229.0,110.0 C230.333333333,111.0 233.0,113.0 233.0,113.0 C237.05517502,113.0 240.94482498,115.0 245.0,115.0 C247.333333333,115.0 252.0,115.0 252.0,115.0 C256.32223538,117.16111769 260.915347711,120.0 266.0,120.0 C267.666666667,120.0 271.0,120.0 271.0,120.0 C282.149336617,110.877815496 293.235920064,101.313141273 303.75,91.5 C306.119248924,89.2887010043 311.929262176,81.7676844561 315.0,81.0 C316.333333333,80.6666666667 319.0,80.0 319.0,80.0 C322.0,82.0 325.450490243,83.4504902432 328.0,86.0 C329.333333333,87.3333333333 332.0,90.0 332.0,90.0 C332.0,91.3333333333 332.0,92.6666666667 332.0,94.0 C327.816928689,98.1830713114 328.551075194,103.897849613 326.0,109.0 C321.851921158,117.296157683 319.546684006,125.685677131 315.666666667,134.0 C314.111111111,137.333333333 311.0,140.321567698 311.0,144.0 C311.0,146.333333333 311.0,151.0 311.0,151.0 C316.181397168,161.362794336 326.255573962,169.766721887 330.0,181.0 C343.577428075,186.43097123 359.968850275,184.485644602 374.375,184.875 C380.921059476,185.051920526 390.250888934,184.250888934 395.0,189.0 C395.666666667,191.0 397.0,192.891814893 397.0,195.0 C397.0,198.333333333 397.0,205.0 397.0,205.0 C396.0,206.0 394.0,208.0 394.0,208.0 C368.496361758,213.100727648 418.728161491,202.506239574 382.0,213.0 C376.067271803,214.695065199 371.241298346,217.75372928 366.0,220.0 C364.437753852,220.669534063 362.5202339,220.23988305 361.0,221.0 C356.246465359,223.376767321 350.500060119,228.0 345.0,228.0 C339.360862509,231.383482494 340.869226987,229.261546025 339.0,233.0 C339.0,235.666666667 339.990375137,238.524062158 339.0,241.0 C338.333333333,242.666666667 337.0,244.204945064 337.0,246.0 C337.0,247.666666667 337.560560662,249.430430147 337.0,251.0 L339.0,233.0 C338.103102941,235.511311764 339.896897059,238.488688236 339.0,241.0 L334.5,258.0 C333.666666667,260.333333333 332.0,265.0 332.0,265.0 C332.0,271.745355993 331.105572809,269.211145618 333.0,273.0 C343.0,284.282051282 353.0,295.564102564 363.0,306.846153846 C365.953308604,310.178091759 372.0,314.326086175 372.0,319.0 C369.102472532,324.795054936 370.990375137,321.885827971 366.0,327.5 C364.666666667,329.0 362.0,332.0 362.0,332.0 C353.708226105,332.0 347.809657024,325.952414256 340.0,324.0 C337.333333333,323.333333333 334.386572122,323.363755499 332.0,322.0 C329.666666667,320.666666667 327.60717963,318.651794907 325.0,318.0 C315.046287262,315.511571815 319.502358096,317.137435498 311.5,313.5 C309.666666667,312.666666667 306.0,311.0 306.0,311.0 C296.646087794,311.0 304.626978434,309.915347711 294.0,317.0 C291.0,319.0 285.0,323.0 285.0,323.0 C282.666666667,324.166666667 280.333333333,325.333333333 278.0,326.5 C275.666666667,327.666666667 271.0,330.0 271.0,330.0 C268.094569091,334.358146364 268.581872085,338.644726855 268.2,343.8 C267.523615221,352.931194518 267.0,361.848410351 267.0,371.0 C267.0,374.666666667 267.36484697,378.351530303 267.0,382.0 C266.666666667,385.333333333 266.0,392.0 266.0,392.0 C264.666666667,393.333333333 262.0,396.0 262.0,396.0 C259.0,396.666666667 256.073181486,398.0 253.0,398.0 C251.333333333,398.0 248.0,398.0 248.0,398.0 C247.0,397.0 245.632455532,396.264911064 245.0,395.0 C244.0,393.0 242.0,389.0 242.0,389.0 C240.626461949,382.132309745 236.528975818,380.64487909 235.0,373.0 C233.855797124,367.278985619 231.692260607,362.725167102 229.333333333,357.333333333 C228.195281084,354.732071049 226.118462272,352.609745302 225.0,350.0 C224.330465937,348.437753852 225.061777413,346.327221766 224.0,345.0 C222.666666667,343.333333333 220.0,340.0 220.0,340.0 C212.976106749,337.65870225 206.398284277,339.642244385 199.0,337.0 L220.0,340.0 C219.007316864,339.645470308 217.992683136,339.354529692 217.0,339.0 L192.0,334.5 C189.666666667,333.666666667 185.0,332.0 185.0,332.0 C182.151998752,332.0 177.0,335.0 177.0,335.0 C166.75,344.25 156.5,353.5 146.25,362.75 C141.504729424,367.032317349 138.532470729,372.0 132.0,372.0 C130.0,370.666666667 127.699673171,369.699673171 126.0,368.0 C124.0,366.0 120.0,362.0 120.0,362.0 C120.0,357.783629786 124.0,350.0 124.0,350.0 C124.0,341.750210443 123.292893219,351.767766953 126.0,345.0 C127.020855325,342.447861688 128.0,337.0 128.0,337.0 C134.488171919,330.511828081 123.890599608,341.849000654 131.0,330.0 C133.902878599,325.161869002 135.536253681,320.83016858 137.5,315.5 L128.0,337.0 C128.325934138,336.115321625 129.674065862,335.884678375 130.0,335.0 L139.25,310.75 C139.833333333,309.166666667 141.0,306.0 141.0,306.0 C141.0,300.488674984 138.243946002,298.325261336 135.0,294.0 L141.0,306.0 C140.2,304.933333333 141.8,303.066666667 141.0,302.0 L132.0,290.0 C131.0,288.666666667 129.0,286.0 129.0,286.0 C127.0,281.666666667 126.726779962,275.98142397 123.0,273.0 C121.333333333,271.666666667 118.0,269.0 118.0,269.0 C105.917563653,269.0 94.2114491552,267.0 82.25,267.0 C76.96,267.0 70.175,268.035 65.0,267.0 C63.3333333333,266.666666667 60.0,266.0 60.0,266.0 C58.6666666667,264.666666667 56.0,262.0 56.0,262.0 C55.3333333333,259.333333333 54.0,256.748737084 54.0,254.0 C54.0,252.0 54.0,248.0 54.0,248.0 C56.3333333333,246.333333333 58.1325582443,243.0 61.0,243.0 C66.0526697571,243.0 67.1251487119,243.406138466 73.0,239.0 C78.6078133912,234.794139957 84.8355454643,233.061670451 91.4,230.6 C97.6442895916,228.258391403 107.296135612,225.703864388 112.0,221.0 C113.779677323,213.881290707 112.386058016,207.188340455 115.0,200.0 C117.359934595,193.510179863 121.30321991,186.909659731 119.0,180.0 C113.030616069,172.040821425 105.081500438,165.819071992 99.0,158.0 C96.6666666667,155.0 94.6874192494,151.687419249 92.0,149.0 C87.5961004998,144.5961005 80.0,139.782813169 80.0,133.0 C81.6088797086,129.782240583 87.0,124.759197925 87.0,122.0 C88.0,121.333333333 89.0,120.666666667 90.0,120.0 C96.3465732556,120.0 102.853714329,123.753795935 108.75,126.0 C110.5,126.666666667 112.675812618,126.675812618 114.0,128.0 L90.0,120.0 C90.7071067812,120.707106781 92.0715233091,119.628609324 93.0,120.0 L116.0,130.0 C230.090448964,175.636179585 85.9813510698,115.167694621 126.0,134.0 C130.102288298,135.930488611 135.11227842,135.667367052 139.0,138.0 C140.666666667,139.0 144.0,141.0 144.0,141.0 C146.333333333,141.0 149.133333333,142.4 151.0,141.0 C156.030394719,137.227203961 161.388667308,131.805666346 167.0,129.0 L144.0,141.0 C146.086996779,139.956501611 148.913003221,142.043498389 151.0,141.0 L174.0,125.5 C176.333333333,124.333333333 181.0,122.0 181.0,122.0 C184.017621002,114.455947496 184.0,106.732675863 184.0,98.6666666667 L181.0,122.0 C181.0,120.204945064 183.0,118.795054936 183.0,117.0 L184.0,92.3333333333 C184.0,90.2222222222 184.0,86.0 184.0,86.0 C184.533333333,79.0666666667 185.066666667,72.1333333333 185.6,65.2 C185.733333333,63.4666666667 184.770727406,61.2292725943 186.0,60.0 C187.333333333,58.6666666667 190.0,56.0 190.0,56.0" fill="rgb(84,90,152)"/>
<path d="M233.0,153.0 C235.943391428,153.367923929 245.156390274,154.104260183 248.0,156.0 C251.832050294,158.554700196 249.798149575,158.0 254.0,158.0 C257.333333333,160.0 260.666666667,162.0 264.0,164.0 C265.666666667,165.0 269.0,167.0 269.0,167.0 C277.659375255,174.937760651 285.569085829,181.834307387 290.666666667,192.666666667 C292.444444444,196.444444444 294.852990804,199.985467814 296.0,204.0 C296.666666667,206.333333333 298.0,211.0 298.0,211.0 C299.329282481,221.634259845 300.961981702,234.698847575 297.0,245.0 L298.0,211.0 C297.035272712,213.508290948 299.964727288,216.491709052 299.0,219.0 L294.5,251.5 C293.666666667,253.666666667 292.0,258.0 292.0,258.0 C287.391659311,265.16852996 283.512489522,271.487510478 277.5,277.5 C275.666666667,279.333333333 272.0,283.0 272.0,283.0 C266.328340237,287.051185545 258.768636065,293.195030383 252.0,295.0 L272.0,283.0 C269.229377588,283.738832643 267.770622412,287.261167357 265.0,288.0 L244.5,297.0 C242.0,297.666666667 237.0,299.0 237.0,299.0 C234.5,299.166666667 232.0,299.333333333 229.5,299.5 C227.0,299.666666667 222.0,300.0 222.0,300.0 C220.566279122,298.566279122 216.0,299.0 216.0,299.0 C209.589290416,297.520605481 203.916565829,296.42773072 198.0,293.666666667 L216.0,299.0 C213.985001494,298.059667364 211.514998506,298.440332636 209.5,297.5 L193.0,291.333333333 C191.333333333,290.555555556 188.0,289.0 188.0,289.0 C181.579211275,285.147526765 177.053129003,280.053129003 171.75,274.75 C170.5,273.5 169.027493671,272.438491139 168.0,271.0 C166.333333333,268.666666667 163.0,264.0 163.0,264.0 C158.324453841,254.648907681 154.500738104,246.506642933 153.333333333,236.0 L163.0,264.0 C162.753067601,261.777608408 160.246932399,260.222391592 160.0,258.0 L152.666666667,230.0 C152.444444444,228.0 152.0,224.0 152.0,224.0 C153.502984516,212.72761613 154.935485114,203.36290105 160.666666667,193.333333333 C162.444444444,190.222222222 163.8500646,186.866580533 166.0,184.0 C167.0,182.666666667 169.0,180.0 169.0,180.0 C174.50985899,174.49014101 179.135651981,169.90608709 185.5,165.5 C187.666666667,164.0 192.0,161.0 192.0,161.0 C197.1512891,158.996720906 204.526772006,154.547322799 210.0,154.0 C213.333333333,153.666666667 220.0,153.0 220.0,153.0" fill="rgb(36,41,73)"/>
<path d="M223.0,165.0 C230.806423756,165.0 239.95620658,166.046229738 247.0,169.333333333 L223.0,165.0 C225.114427327,165.986732752 227.885572673,164.013267248 230.0,165.0 L252.0,171.666666667 C253.666666667,172.444444444 257.0,174.0 257.0,174.0 C259.333333333,175.666666667 264.0,179.0 264.0,179.0 C271.424532733,186.424532733 280.104492288,194.383138388 283.0,205.0 C284.0,208.666666667 286.0,216.0 286.0,216.0 C286.0,218.333333333 286.0,223.0 286.0,223.0 C286.333333333,223.333333333 286.666666667,223.666666667 287.0,224.0 C287.0,232.19859821 286.438973122,242.786668676 282.0,250.0 L287.0,224.0 C285.951805149,225.703316633 288.048194851,228.296683367 287.0,230.0 L278.0,256.5 C276.666666667,258.666666667 274.0,263.0 274.0,263.0 C272.166666667,264.833333333 270.333333333,266.666666667 268.5,268.5 C266.666666667,270.333333333 263.0,274.0 263.0,274.0 C256.375103661,278.732068814 250.603690179,282.349077455 242.666666667,284.333333333 L263.0,274.0 C260.218172886,274.695456778 258.781827114,278.304543222 256.0,279.0 L237.333333333,285.666666667 C235.555555556,286.111111111 232.0,287.0 232.0,287.0 C222.75372501,287.0 212.507685542,287.581061446 204.0,283.0 L232.0,287.0 C230.092312617,285.972783717 227.407687383,288.027216283 225.5,287.0 L197.5,279.5 C195.333333333,278.333333333 191.0,276.0 191.0,276.0 C187.333333333,272.666666667 182.973213749,269.964284999 180.0,266.0 C178.0,263.333333333 174.0,258.0 174.0,258.0 C170.644017841,250.808609659 165.0,242.300167647 165.0,234.0 L174.0,258.0 C174.0,256.160783849 171.666666667,254.839216151 171.666666667,253.0 L165.0,226.5 C165.0,224.0 165.0,219.0 165.0,219.0 C165.666666667,216.0 167.0,210.0 167.0,210.0 C169.963634488,201.109096535 174.346809786,192.653190214 181.0,186.0 L167.0,210.0 C168.490711985,208.509288015 167.509288015,205.490711985 169.0,204.0 L185.0,182.0 C186.333333333,180.666666667 189.0,178.0 189.0,178.0 C190.833333333,176.833333333 192.666666667,175.666666667 194.5,174.5 C196.333333333,173.333333333 200.0,171.0 200.0,171.0 C205.127242661,171.0 198.439339828,171.471404521 204.0,169.0 C206.217549497,168.014422446 211.0,167.0 211.0,167.0" fill="rgb(157,157,157)"/>
<path d="M402.0,238.0 C408.377770436,238.0 411.828042777,242.648822897 416.375,246.75 C427.0,256.333333333 437.625,265.916666667 448.25,275.5 C451.4375,278.375 454.625,281.25 457.8125,284.125 C458.875,285.083333333 459.569157931,287.0 461.0,287.0 C464.0,287.0 467.503849117,288.664100589 470.0,287.0 C475.07203622,283.61864252 485.822355403,280.0 492.0,280.0 C494.666666667,280.0 497.445796573,280.766261028 500.0,280.0 C511.009637555,276.697108734 506.698485196,275.899495065 513.0,278.0 C512.777777778,289.555555556 512.555555556,301.111111111 512.333333333,312.666666667 C512.25,317.0 512.166666667,321.333333333 512.083333333,325.666666667 C512.055555556,327.111111111 512.0,330.0 512.0,330.0 C501.745733935,335.127133033 534.373302184,319.110011681 500.0,332.0 C450.049405747,350.731472845 513.90330907,327.854259567 488.0,335.0 C483.975160679,336.110300502 480.444444444,338.555555556 476.666666667,340.333333333 C474.777777778,341.222222222 471.0,343.0 471.0,343.0 C460.852748938,350.103075743 451.663804902,357.765992997 444.5,368.0 C439.717699215,374.831858264 441.909822938,371.180354125 438.0,379.0 C437.0,381.0 435.0,385.0 435.0,385.0 C432.511066818,392.466799546 430.235568732,399.526528319 429.5,407.25 C429.166666667,410.75 428.833333333,414.25 428.5,417.75 C428.333333333,419.5 428.0,423.0 428.0,423.0 C428.666666667,425.333333333 430.0,427.573296704 430.0,430.0 C430.0,432.666666667 429.267410326,435.43593614 430.0,438.0 C431.523596428,443.332587498 433.339781735,449.019345206 435.0,454.0 C436.508896797,458.526690391 440.177935943,463.320284698 442.5,467.5 C443.333333333,469.0 445.0,472.0 445.0,472.0 C449.73284168,477.048364459 454.475820996,483.856865747 460.0,488.0 C462.666666667,490.0 468.0,494.0 468.0,494.0 C475.022467616,497.745316062 481.956552118,501.405045517 489.0,504.0 L468.0,494.0 C469.772425887,494.652999011 471.159483297,496.241932043 473.0,496.666666667 L495.5,505.5 C497.666666667,506.0 502.0,507.0 502.0,507.0 C499.503542113,516.985831546 483.230207442,512.910071883 475.117647059,512.852941176 C448.666666667,512.666666667 422.215686275,512.480392157 395.764705882,512.294117647 C386.019607843,512.225490196 376.274509804,512.156862745 366.529411765,512.088235294 C363.745098039,512.068627451 360.960784314,512.049019608 358.176470588,512.029411765 C356.784313725,512.019607843 354.0,512.0 354.0,512.0 C354.0,505.800893292 353.528595479,512.891805812 362.0,502.0 C370.12206407,491.557346195 366.400623775,495.772667973 372.75,489.0 C375.25,486.333333333 377.75,483.666666667 380.25,481.0 C381.5,479.666666667 384.0,477.0 384.0,477.0 C386.819728667,469.950678332 384.465534932,467.396604797 382.0,460.0 C381.333333333,458.0 380.0,454.0 380.0,454.0 C379.333333333,451.0 378.0,448.073181486 378.0,445.0 C378.0,442.333333333 378.701646415,439.572703523 378.0,437.0 C377.0,433.333333333 375.0,426.0 375.0,426.0 C372.266750844,426.0 376.471404521,426.23570226 372.0,424.0 L375.0,426.0 C374.701857603,425.850928802 374.316227766,426.105409255 374.0,426.0 L366.0,422.0 C358.99893344,419.666311147 352.907412323,415.302470774 346.0,413.0 C338.628899935,410.542966645 331.882036044,408.010890769 325.0,405.0 C320.378618688,402.978145676 312.921397449,401.137117959 309.0,398.0 C307.333333333,396.666666667 304.0,394.0 304.0,394.0 C304.0,385.613696489 303.580941823,389.955604828 305.5,381.0 C306.0,378.666666667 307.0,374.0 307.0,374.0 C312.557401686,367.053247892 313.923296639,369.0 323.0,369.0 C325.0,369.0 329.0,369.0 329.0,369.0 C342.216388449,367.111944507 355.396944014,368.015854767 368.5,366.0 C370.666666667,365.666666667 372.80784226,365.0 375.0,365.0 C378.666666667,365.0 386.0,365.0 386.0,365.0 C392.794091099,358.205908901 395.336549349,347.482973928 401.25,339.75 C403.416666667,336.916666667 405.583333333,334.083333333 407.75,331.25 C408.833333333,329.833333333 411.0,327.0 411.0,327.0 C412.728838576,321.813484273 410.064821705,317.165000702 408.166666667,312.333333333 C403.828706704,301.291253428 398.609032112,289.827096337 395.0,279.0 C393.585786438,274.757359313 389.877058019,271.385290097 389.0,267.0 C388.666666667,265.333333333 388.76011695,263.5202339 388.0,262.0 C386.666666667,259.333333333 384.0,254.0 384.0,254.0 C384.0,250.666666667 390.0,246.0 390.0,246.0" fill="rgb(114,144,22)"/>
<path d="M73.0,308.0 C77.1434206885,308.0 81.1134030293,310.056701515 85.0,312.0 C89.0,314.0 93.8377223398,314.83772234 97.0,318.0 C98.0,319.0 100.277350098,319.613249509 100.0,321.0 C99.3333333333,324.333333333 99.1935901869,327.817092835 98.0,331.0 C97.0,333.666666667 95.0,336.151998752 95.0,339.0 L73.0,308.0 C73.0,309.333333333 77.3662948372,306.71796807 77.0,308.0 L95.0,343.0 C92.2603997384,352.588600916 93.0,338.719522364 93.0,350.0 C92.3333333333,351.333333333 91.0,354.0 91.0,354.0 C91.0,358.646129513 89.0,361.353870487 89.0,366.0 C87.8888888889,369.555555556 86.7777777778,373.111111111 85.6666666667,376.666666667 C85.1111111111,378.444444444 84.0,382.0 84.0,382.0 C84.6666666667,383.333333333 86.0,386.0 86.0,386.0 C89.9149197339,386.0 84.3110086668,385.7866052 93.0,391.0 C100.448935317,395.46936119 105.458933645,399.049111371 112.0,404.5 L86.0,386.0 C86.2560737599,386.2133948 86.7439262401,385.7866052 87.0,386.0 L116.5,408.25 C118.0,409.5 121.0,412.0 121.0,412.0 C127.361383709,412.0 129.656320892,409.910673776 135.333333333,406.666666667 C145.986524831,400.579128668 156.22701928,393.751356244 166.6,387.2 C170.532725915,384.716173106 175.207801449,380.0 180.0,380.0 C184.8,385.066666667 189.6,390.133333333 194.4,395.2 C195.6,396.466666667 197.576815682,397.307262726 198.0,399.0 C198.333333333,400.333333333 199.0,403.0 199.0,403.0 C190.692307692,413.846153846 182.384615385,424.692307692 174.076923077,435.538461538 C171.307692308,439.153846154 168.538461538,442.769230769 165.769230769,446.384615385 C164.846153846,447.58974359 163.0,450.0 163.0,450.0 C161.762891749,459.896866011 160.43796929,455.813157006 165.333333333,462.666666667 L163.0,450.0 C164.56203071,452.186842994 160.43796929,455.813157006 162.0,458.0 L168.666666667,467.333333333 C169.777777778,468.888888889 172.0,472.0 172.0,472.0 C174.75,477.25 177.5,482.5 180.25,487.75 C181.166666667,489.5 181.603078782,491.603078782 183.0,493.0 C184.0,494.0 186.0,496.0 186.0,496.0 C194.834494068,496.0 205.573814414,495.808728529 214.0,493.0 C216.0,492.333333333 217.891814893,491.0 220.0,491.0 C222.333333333,491.0 224.833554388,491.866578245 227.0,491.0 C228.666666667,490.333333333 230.204945064,489.0 232.0,489.0 C235.0,489.0 238.316718427,490.341640786 241.0,489.0 C242.333333333,488.333333333 243.509288015,487.0 245.0,487.0 C246.666666667,487.0 250.0,487.0 250.0,487.0 C253.525736363,491.700981817 254.908459219,496.089224583 257.0,501.666666667 C257.666666667,503.444444444 259.0,507.0 259.0,507.0 C258.666666667,509.0 258.0,513.0 258.0,513.0 C231.574712644,513.0 205.149425287,513.0 178.724137931,513.0 C168.988505747,513.0 159.252873563,513.0 149.517241379,513.0 C146.735632184,513.0 143.954022989,513.0 141.172413793,513.0 C139.781609195,513.0 137.0,513.0 137.0,513.0 C130.655989847,506.655989847 127.888400971,497.643761359 122.666666667,490.333333333 C109.524565585,471.934391819 93.7559039962,452.984856613 75.0,440.0 C66.2853241655,433.966762884 56.82349748,426.210070349 47.0,422.0 C42.3333333333,420.0 36.5901098714,419.590109871 33.0,416.0 C32.0,415.0 30.0,413.0 30.0,413.0 C30.0,402.181818182 30.0,391.363636364 30.0,380.545454545 C30.0,375.909090909 30.0,371.272727273 30.0,366.636363636 C30.0,365.090909091 30.0,362.0 30.0,362.0 C49.4278392681,342.572160732 19.9693263268,371.136246482 36.0,358.0 C38.2455752783,356.159875814 39.3846153846,353.282051282 41.0769230769,350.923076923 C46.1538461538,343.846153846 51.2307692308,336.769230769 56.3076923077,329.692307692 C58.8461538462,326.153846154 61.3846153846,322.615384615 63.9230769231,319.076923077 L30.0,362.0 C30.8243562231,360.850897386 32.1756437769,360.149102614 33.0,359.0 L66.4615384615,315.538461538 C67.3076923077,314.358974359 69.0,312.0 69.0,312.0" fill="rgb(116,146,34)"/>
<path d="M504.0,344.0 C506.333333333,344.0 509.350084177,342.350084177 511.0,344.0 C514.065901837,347.065901837 513.0,350.212021487 513.0,354.4 C513.0,360.0 513.0,365.6 513.0,371.2 C513.0,400.6 513.0,430.0 513.0,459.4 C513.0,467.8 513.0,476.2 513.0,484.6 C513.0,487.4 514.979898987,491.020101013 513.0,493.0 C508.689562136,497.310437864 502.608660206,494.362309388 497.5,493.0 C495.0,492.333333333 490.0,491.0 490.0,491.0 C478.578484041,485.289242021 470.318140382,479.318140382 461.333333333,470.333333333 C455.463409257,464.463409257 458.096703981,467.72339197 453.5,460.5 C452.333333333,458.666666667 450.0,455.0 450.0,455.0 C447.373773448,449.747546896 443.98570226,443.914213562 443.0,438.0 L450.0,455.0 C449.509856919,452.059141512 446.490143081,449.940858488 446.0,447.0 L442.0,432.0 C441.666666667,430.0 441.0,426.0 441.0,426.0 C441.0,417.857127624 440.367395215,408.897814354 443.0,401.0 C444.0,398.0 446.0,392.0 446.0,392.0 C450.521947608,382.956104783 454.485474778,375.514525222 461.666666667,368.333333333 L446.0,392.0 C447.58113883,390.41886117 447.41886117,387.58113883 449.0,386.0 L466.333333333,363.666666667 C467.888888889,362.111111111 471.0,359.0 471.0,359.0 C474.0,357.0 476.775096901,354.61245155 480.0,353.0 C483.333333333,351.333333333 490.0,348.0 490.0,348.0" fill="rgb(183,183,183)"/>
<path d="M31.0,430.0 C37.3762355219,430.0 46.7492728919,436.293604394 52.0,440.0 C69.4437552147,452.313238975 86.5322769727,465.165346216 100.0,482.0 C104.995992068,488.244990085 109.569230674,494.35384601 114.0,501.0 L31.0,430.0 C31.5547001962,430.832050294 33.4452998038,429.167949706 34.0,430.0 L117.0,505.5 C118.0,507.0 120.0,510.0 120.0,510.0 C119.666666667,511.0 119.333333333,512.0 119.0,513.0 C103.039215686,513.0 87.0784313725,513.0 71.1176470588,513.0 C65.3137254902,513.0 59.5098039216,513.0 53.7058823529,513.0 L119.0,513.0 C117.549019608,513.0 116.098039216,513.0 114.647058824,513.0 L49.3529411765,513.0 C47.9019607843,513.0 45.0,513.0 45.0,513.0 C42.3373709354,511.668685468 34.6658686655,508.887026886 33.0,505.0 C32.0,502.666666667 30.0,498.0 30.0,498.0" fill="rgb(211,211,211)"/>
</svg>