<?xml version="1.0" encoding="utf-8"?>
<svg xmlns="http://www.w3.org/2000/svg" version="1.1" width="497.822857143" height="819.0">
<path d="M245.0,10.0 C271.368119483,13.7668742119 294.961798638,24.9617986381 313.8,43.8 C317.023834197,47.0238341969 321.322279793,50.318134715 324.0,54.0 C326.666666667,57.6666666667 330.566279122,60.6988373665 332.0,65.0 C333.123551978,68.3706559339 334.491879856,70.4918798558 337.0,73.0 C343.75140861,73.0 349.137399429,70.0 356.0,70.0 C361.5,70.0 367.0,70.0 372.5,70.0 C380.19215774,70.0 376.187985221,69.7212284955 384.5,71.0 C386.666666667,71.3333333333 391.0,72.0 391.0,72.0 C399.628001875,74.3008004999 407.548874306,76.2744371531 415.5,80.25 C418.5,81.75 421.5,83.25 424.5,84.75 C426.0,85.5 429.0,87.0 429.0,87.0 C439.754841806,94.1698945375 448.28953418,102.28953418 457.4,111.4 C462.602948672,116.602948672 460.00183953,113.627529353 465.0,120.5 C466.333333333,122.333333333 469.0,126.0 469.0,126.0 C472.606720262,132.011200437 476.611946615,138.43285319 479.0,145.0 C480.333333333,148.666666667 483.0,156.0 483.0,156.0 C484.066083128,160.264332511 487.0,171.262436443 487.0,175.0 C487.0,181.095238095 487.0,187.19047619 487.0,193.285714286 C487.0,197.491428571 487.822857143,202.885714286 487.0,207.0 C486.0,212.0 485.61245155,217.162645351 484.0,222.0 L483.0,156.0 C482.130773013,158.607680962 485.869226987,161.392319038 485.0,164.0 L482.0,228.0 C481.333333333,230.0 480.0,234.0 480.0,234.0 C475.669987998,244.103361339 470.874560048,256.125439952 463.0,264.0 C458.539018811,268.460981189 455.0,270.616032694 455.0,277.0 C455.333333333,278.0 455.666666667,279.0 456.0,280.0 C456.666666667,280.666666667 457.333333333,281.333333333 458.0,282.0 C461.30615371,291.918461131 466.0,303.351515541 466.0,314.0 C466.0,320.933333333 466.0,327.866666667 466.0,334.8 C466.0,342.220683175 465.045299109,349.841453119 463.0,357.0 C462.333333333,359.333333333 461.0,364.0 461.0,364.0 C455.507655038,378.646253233 448.237658935,394.762341065 437.0,406.0 C433.071813285,409.928186715 429.265709156,414.44524237 425.0,418.0 C423.0,419.666666667 419.0,423.0 419.0,423.0 C407.187347862,431.268856496 395.027313412,438.992196168 381.0,443.0 C378.666666667,443.666666667 376.379578358,444.524084328 374.0,445.0 C370.666666667,445.666666667 364.0,447.0 364.0,447.0 C352.104980578,448.321668825 338.831314394,449.535281656 327.0,447.0 C322.333333333,446.0 317.527692569,445.509230856 313.0,444.0 C310.0,443.0 304.0,441.0 304.0,441.0 C294.177944666,438.544486166 306.198989667,442.099494833 296.0,437.0 C294.666666667,436.333333333 292.0,435.0 292.0,435.0 C291.0,435.0 290.0,435.0 289.0,435.0 C277.321011551,446.678988449 265.84145145,456.079274275 251.0,463.5 C241.642977396,468.178511302 246.474873734,466.175042089 236.5,469.5 C234.0,470.333333333 229.0,472.0 229.0,472.0 C212.962068649,475.20758627 195.231574198,477.24631484 179.0,474.0 C166.415943029,471.483188606 172.224903099,473.0749677 161.5,469.5 C159.0,468.666666667 154.0,467.0 154.0,467.0 C137.332018379,458.66600919 121.16682896,449.600194752 109.0,435.0 C106.084730434,431.50167652 100.160585696,424.60097616 98.0,421.0 C96.0,417.666666667 92.0,411.0 92.0,411.0 C91.3333333333,409.666666667 90.361550763,408.446203052 90.0,407.0 C89.6666666667,405.666666667 89.0,403.0 89.0,403.0 C88.3333333333,402.333333333 87.6666666667,401.666666667 87.0,401.0 C82.5593070941,389.158152251 78.0,375.825102611 78.0,363.0 C78.0,357.75 78.0,352.5 78.0,347.25 C78.0,341.528595479 79.2374368671,343.237436867 77.0,341.0 C73.6666666667,339.333333333 70.0326055953,338.166146854 67.0,336.0 C64.6666666667,334.333333333 60.0,331.0 60.0,331.0 C48.3082917627,321.64663341 36.3516191976,310.232914556 29.0,297.0 C27.3333333333,294.0 25.0852547064,291.255764119 24.0,288.0 C21.701857603,281.105572809 23.490711985,283.490711985 20.0,280.0 C17.374095484,272.122286452 14.1831724363,264.282207054 13.0,256.0 C12.6666666667,253.666666667 12.0,249.0 12.0,249.0 C12.0,232.743740255 10.3215802234,215.615654386 16.0,200.0 C20.6792539732,187.132051574 18.2551663562,192.489667288 22.6666666667,183.666666667 L12.0,249.0 C12.7453559925,247.509288015 11.2546440075,245.490711985 12.0,244.0 L25.3333333333,178.333333333 C26.2222222222,176.555555556 28.0,173.0 28.0,173.0 C38.4515085478,157.903376542 49.2892719777,145.030504015 64.5,134.5 C69.7466486488,130.867704782 74.3095818113,128.345209094 80.0,125.5 L28.0,173.0 C30.357022604,171.821488698 30.142977396,167.678511302 32.5,166.5 L84.5,123.25 C86.0,122.5 89.0,121.0 89.0,121.0 C92.0,120.0 94.8695048315,118.447213595 98.0,118.0 C100.333333333,117.666666667 102.811559452,117.875376219 105.0,117.0 C106.666666667,116.333333333 110.0,115.0 110.0,115.0 C110.333333333,114.333333333 110.666666667,113.666666667 111.0,113.0 C111.0,98.280358043 117.8723222,81.1915167005 126.0,69.0 C133.18393809,58.2240928645 129.747629975,62.8154625319 136.0,55.0 C137.333333333,53.3333333333 140.0,50.0 140.0,50.0 C150.201051565,39.798948435 160.463024414,30.2684877932 173.5,23.75 C177.806866953,21.5965665236 182.43723176,18.5209227468 187.0,17.0 C190.0,16.0 196.0,14.0 196.0,14.0 C198.666666667,13.3333333333 201.295600293,12.4917090377 204.0,12.0 C207.666666667,11.3333333333 215.0,10.0 215.0,10.0" fill="rgb(220,153,10)"/>
<path d="M293.0,436.0 C300.075544374,439.537772187 299.574020845,437.444125072 301.0,446.0 C301.333333333,448.0 302.0,452.0 302.0,452.0 C303.227275991,461.409115933 304.600309181,470.803246403 305.5,480.25 C305.833333333,483.75 306.166666667,487.25 306.5,490.75 C306.666666667,492.5 307.0,496.0 307.0,496.0 C307.834539565,514.359870434 308.668270488,532.649024629 307.0,551.0 C302.683106751,598.485825743 290.915683687,644.669168796 273.5,689.0 C265.504146925,709.353080553 256.477668349,729.29094136 246.0,748.5 C243.13065249,753.760470435 240.084207998,758.859653336 237.0,764.0 L307.0,496.0 C306.055783861,497.573693565 308.194216139,499.926306435 307.25,501.5 L234.0,769.0 C233.0,770.666666667 231.0,774.0 231.0,774.0 C226.22087526,781.16868711 221.138205626,789.861794374 215.0,796.0 C211.333333333,799.666666667 208.638007235,804.680996383 204.0,807.0 C202.666666667,807.666666667 200.0,809.0 200.0,809.0 C198.666666667,809.0 197.333333333,809.0 196.0,809.0 C195.0,808.0 193.0,806.0 193.0,806.0 C193.0,801.0 192.019419324,795.902903378 193.0,791.0 C196.68455946,772.577202699 202.655717631,754.63939612 209.428571429,737.142857143 C215.496202167,721.468144401 221.541881338,705.807861057 228.5,690.5 C230.751753925,685.546141365 233.879731426,681.011543902 236.0,676.0 C248.892747418,645.526233377 259.536382433,614.781705403 265.0,582.0 C267.921683785,564.469897287 270.732764821,546.741292507 272.0,529.0 C272.612851657,520.420076802 273.0,512.093436488 273.0,503.5 L193.0,806.0 C193.0,803.5 193.0,801.0 193.0,798.5 L273.0,497.75 C273.0,495.833333333 271.644712003,493.355287997 273.0,492.0 L193.0,806.0 C194.767766953,804.232233047 192.723921185,800.984709337 193.0,798.5 L274.0,491.0 C275.025958494,481.766373552 273.0,471.696934607 273.0,462.333333333 L193.0,806.0 C193.0,803.5 193.0,801.0 193.0,798.5 L273.0,456.666666667 C273.0,454.777777778 273.0,451.0 273.0,451.0 C280.585524799,443.414475201 276.897646675,446.892117992 284.0,440.5 C285.666666667,439.0 289.0,436.0 289.0,436.0" fill="rgb(78,132,0)"/>
<path d="M264.0,54.0 C269.233334103,55.0466668207 276.004945269,56.0049452692 280.0,60.0 C282.0,62.0 286.0,66.0 286.0,66.0 C287.190270324,67.7854054863 289.49250323,70.9700129201 290.0,73.0 C290.333333333,74.3333333333 291.0,77.0 291.0,77.0 C291.0,88.2992037596 291.644877359,100.065367922 288.0,111.0 C284.983511147,120.04946656 282.187989867,129.496081061 281.0,139.0 C280.316894798,144.464841619 278.947121596,152.735607981 280.0,158.0 C280.586945004,160.934725018 280.846887113,163.309403263 282.0,166.0 C282.58722022,167.370180512 284.0,170.0 284.0,170.0 C288.849836586,174.849836586 286.431070919,172.954047279 291.0,176.0 C293.0,176.666666667 294.891814893,178.0 297.0,178.0 C299.333333333,178.0 304.0,178.0 304.0,178.0 C326.093832968,170.635389011 331.007205829,143.992794171 346.0,129.0 C349.587628866,125.412371134 353.711340206,119.680412371 358.0,117.0 C360.666666667,115.333333333 366.0,112.0 366.0,112.0 C370.888922188,110.777769453 374.312815729,109.578203932 380.0,111.0 C381.333333333,111.333333333 384.0,112.0 384.0,112.0 C391.701098388,115.850549194 397.405821168,120.405821168 403.5,126.5 C405.333333333,128.333333333 409.0,132.0 409.0,132.0 C418.319444822,143.183333787 426.806674548,155.137514778 433.666666667,168.0 C435.444444444,171.333333333 437.805361773,174.416085318 439.0,178.0 C440.433720878,182.301162634 443.0,186.466176497 443.0,191.0 C443.0,196.471404521 441.821488698,194.821488698 444.0,197.0 C444.0,198.333333333 444.147242035,199.674821687 444.0,201.0 C443.812302498,202.689277519 443.0,206.0 443.0,206.0 C441.356815291,210.107961771 441.171025637,211.828974363 438.0,215.0 C436.666666667,216.333333333 434.0,219.0 434.0,219.0 C432.0,220.333333333 428.0,223.0 428.0,223.0 C423.091200701,223.0 429.251734607,222.528595479 424.0,225.0 C417.596887209,228.013229549 407.972031715,230.090604559 401.0,231.0 C381.506222433,233.542666639 360.834273006,234.777151329 344.0,246.0 C343.0,247.0 341.727606875,247.787321875 341.0,249.0 C340.0,250.666666667 338.0,254.0 338.0,254.0 C337.333333333,256.333333333 336.0,258.573296704 336.0,261.0 C336.0,263.0 336.0,267.0 336.0,267.0 C336.40400433,268.21201299 337.704793972,273.057190958 339.0,275.0 C339.924500327,276.386750491 342.0,279.0 342.0,279.0 C357.957067909,292.297556591 377.821859613,296.410929807 396.0,305.5 C400.672577506,307.836288753 407.211014865,310.211014865 411.0,314.0 C413.666666667,316.666666667 419.0,322.0 419.0,322.0 C420.073368331,323.610052496 422.637502307,327.187511536 423.0,329.0 C423.333333333,330.666666667 424.0,334.0 424.0,334.0 C424.0,342.570060467 422.570559288,348.382401187 418.0,356.0 C417.0,357.666666667 415.0,361.0 415.0,361.0 C404.009240933,375.287986788 392.150286555,388.899808963 377.0,399.0 C371.527787672,402.648141552 366.232910586,405.383544707 360.333333333,408.333333333 C358.555555556,409.222222222 355.0,411.0 355.0,411.0 C352.333333333,411.666666667 349.748737084,413.0 347.0,413.0 C344.333333333,413.0 339.0,413.0 339.0,413.0 C334.138530006,412.027706001 331.088195062,410.725463375 327.0,408.0 C325.760305431,406.760305431 317.754247233,399.508494467 316.0,396.0 C312.685192833,389.370385666 307.822797435,382.291189741 306.0,375.0 C304.231708207,367.926832828 301.982001157,361.810860118 299.333333333,355.0 C297.125252709,349.322078393 294.342236817,341.342236817 290.0,337.0 C288.333333333,335.333333333 285.0,332.0 285.0,332.0 C280.057190958,329.528595479 282.414213562,330.471404521 278.0,329.0 C274.666666667,329.0 268.0,329.0 268.0,329.0 C264.059227608,330.313590797 260.900414199,332.099585801 258.0,335.0 C247.651891857,355.696216287 251.0,380.006656119 251.0,402.5 C251.0,409.017994025 250.576879933,419.6346801 247.0,425.0 C245.666666667,427.0 243.0,431.0 243.0,431.0 C240.393376048,433.606623952 238.307440901,436.34627955 235.0,438.0 C233.394454056,438.802772972 230.0,440.0 230.0,440.0 C219.835507344,442.032898531 209.750552319,440.65645712 200.0,437.0 C197.333333333,436.0 194.602536431,435.156682858 192.0,434.0 C189.0,432.666666667 183.0,430.0 183.0,430.0 C171.734155598,424.367077799 160.867307647,418.677366832 150.5,411.5 C148.333333333,410.0 145.863389981,408.863389981 144.0,407.0 C140.113402062,403.113402062 133.903780069,398.64604811 131.0,394.0 C129.333333333,391.333333333 126.0,386.0 126.0,386.0 C124.31483984,380.944519521 125.0,384.054092553 125.0,376.5 C125.0,374.333333333 125.0,370.0 125.0,370.0 C135.190893947,339.427318158 175.910954692,331.267135925 186.0,301.0 C186.0,298.0 186.727606875,294.9104275 186.0,292.0 C185.666666667,290.666666667 185.0,288.0 185.0,288.0 C184.0,286.333333333 183.374368542,284.374368542 182.0,283.0 C181.0,282.0 179.0,280.0 179.0,280.0 C176.695262146,278.847631073 173.23570226,277.0 171.0,277.0 C168.0,277.0 162.0,277.0 162.0,277.0 C143.620268457,280.06328859 127.924213387,289.518946653 110.0,294.0 C107.906076749,294.523480813 98.9037791859,297.0 96.0,297.0 C92.6666666667,297.0 86.0,297.0 86.0,297.0 C85.5946580818,296.884188023 78.9248504982,295.443637874 77.0,294.0 C74.9172667531,292.437950065 71.0,289.0 71.0,289.0 C69.4800279369,286.973370582 65.7714985851,282.314495755 65.0,280.0 C64.3333333333,278.0 63.0,274.0 63.0,274.0 C59.6903426431,254.142055858 60.3923366074,233.84214866 64.0,214.0 C66.6593038981,199.37382856 69.6161086563,184.575837016 78.0,172.0 C81.0,169.0 83.2052668078,164.897366596 87.0,163.0 C89.0,162.0 93.0,160.0 93.0,160.0 C96.7973511161,159.050662221 99.8128157291,157.953203932 104.0,159.0 C106.666666667,159.666666667 112.0,161.0 112.0,161.0 C119.108725234,164.554362617 126.442035237,167.315739455 133.0,172.0 C141.681304342,178.200931673 150.417378877,185.208689439 160.0,190.0 C164.393825973,192.196912987 174.572156877,198.0 180.0,198.0 C182.333333333,198.0 187.0,198.0 187.0,198.0 C188.333333333,197.666666667 189.770727406,197.614636297 191.0,197.0 C192.333333333,196.333333333 195.0,195.0 195.0,195.0 C196.666666667,193.333333333 200.0,190.0 200.0,190.0 C200.666666667,188.333333333 202.0,186.795054936 202.0,185.0 C202.0,182.333333333 202.0,177.0 202.0,177.0 C197.659663917,163.978991752 187.578065403,152.578065403 178.0,143.0 C172.89774894,137.89774894 167.173179374,132.961684821 163.0,127.0 C159.224180017,121.605971453 153.857193337,115.500176681 152.0,109.0 C151.333333333,106.666666667 150.0,104.426703296 150.0,102.0 C150.0,100.333333333 150.0,97.0 150.0,97.0 C151.062096285,92.7516148615 152.577092374,89.6343614387 155.0,86.0 C157.666666667,83.3333333333 159.801998127,79.9987511707 163.0,78.0 C178.430725397,68.3557966271 195.158372843,62.5683254313 213.0,59.0 C219.601275438,57.6797449123 226.322362346,55.8347047067 233.0,55.0 C235.666666667,54.6666666667 241.0,54.0 241.0,54.0" fill="rgb(255,255,200)"/>
<path d="M266.0,60.0 C269.413481436,61.1378271453 274.276898474,62.2768984739 277.0,65.0 C278.666666667,66.6666666667 280.945907447,67.8918148932 282.0,70.0 C283.0,72.0 285.0,73.7639320225 285.0,76.0 C285.0,81.25 285.0,86.5 285.0,91.75 C285.0,108.697132683 276.863835994,124.225476051 275.0,141.0 C274.629820741,144.331613329 273.436346143,152.054423001 274.0,156.0 C274.333333333,158.333333333 274.254644008,160.763932023 275.0,163.0 C275.666666667,165.0 277.0,169.0 277.0,169.0 C279.599519746,174.199039491 283.157600206,177.771733471 288.0,181.0 C299.277101714,184.383130514 294.51989783,184.0 302.0,184.0 C303.666666667,183.666666667 307.0,183.0 307.0,183.0 C327.250299532,174.899880187 334.361212184,152.79848477 347.0,137.0 C351.298978595,131.626276757 356.319421701,124.787052199 362.0,121.0 L307.0,183.0 C308.493575988,182.004282675 310.441455862,181.89059665 312.0,181.0 L365.0,119.0 C366.294300458,118.260399738 369.0,117.0 369.0,117.0 C371.0,117.0 373.0,117.0 375.0,117.0 C377.0,117.0 381.0,117.0 381.0,117.0 C383.0,118.0 385.180436643,118.700311888 387.0,120.0 C389.333333333,121.666666667 394.0,125.0 394.0,125.0 C407.759485771,138.759485771 418.673751879,153.429065787 428.333333333,170.333333333 C429.222222222,171.888888889 430.565470062,173.261880247 431.0,175.0 C431.333333333,176.333333333 431.028174684,178.028174684 432.0,179.0 C435.744409938,182.744409938 435.350928802,181.754644008 437.0,190.0 C437.333333333,191.666666667 438.0,195.0 438.0,195.0 C438.0,199.390937092 438.843274043,202.313451915 437.0,206.0 C436.130773013,207.738453975 434.0,211.0 434.0,211.0 C416.853653897,228.146346103 390.73623884,224.56594029 369.0,230.0 C362.644006209,231.588998448 355.920342316,233.039828842 350.0,236.0 C348.0,237.0 345.788854382,237.658359214 344.0,239.0 C342.666666667,240.0 340.0,242.0 340.0,242.0 C337.193367439,244.806632561 334.323380833,247.0298575 333.0,251.0 C332.333333333,253.0 331.0,257.0 331.0,257.0 C331.0,261.333333333 329.629679681,265.889039042 331.0,270.0 C331.666666667,272.0 333.0,276.0 333.0,276.0 C336.361485244,282.722970489 343.305005442,288.652502721 350.0,292.0 C363.173327686,298.586663843 377.150863706,302.838860172 390.5,309.0 C396.090426978,311.580197067 403.627570358,314.627570358 408.0,319.0 C410.0,321.0 414.0,325.0 414.0,325.0 C414.666666667,326.0 415.403715206,326.956501611 416.0,328.0 C416.739600262,329.294300458 418.0,332.0 418.0,332.0 C418.0,335.0 418.727606875,338.0895725 418.0,341.0 C417.666666667,342.333333333 417.0,345.0 417.0,345.0 C415.333333333,348.333333333 414.067245576,351.899131635 412.0,355.0 C410.666666667,357.0 408.0,361.0 408.0,361.0 C398.173718615,373.282851731 387.416777944,385.462050399 374.0,394.0 C370.333333333,396.333333333 366.887301263,399.056349368 363.0,401.0 C359.793957941,402.603021029 357.544741722,402.455258278 355.0,405.0 C352.666666667,405.666666667 350.426703296,407.0 348.0,407.0 C344.333333333,407.0 337.0,407.0 337.0,407.0 C335.0,406.0 332.58113883,405.58113883 331.0,404.0 C328.333333333,401.333333333 323.0,396.0 323.0,396.0 C318.272294547,388.90844182 313.535408394,380.240077281 311.0,372.0 C308.63216444,364.304534431 306.622392772,356.244785545 303.0,349.0 C300.384381704,343.768763408 298.267810405,337.267810405 294.0,333.0 C292.0,331.0 290.529822128,328.264911064 288.0,327.0 C286.666666667,326.333333333 284.0,325.0 284.0,325.0 C282.0,324.333333333 278.0,323.0 278.0,323.0 C275.0,323.0 271.884571843,322.175836616 269.0,323.0 C266.666666667,323.666666667 262.0,325.0 262.0,325.0 C257.420306587,327.747816048 254.917442844,329.623835734 252.0,334.0 C242.137459872,353.725080257 245.0,378.122427531 245.0,399.5 C245.0,404.708170098 245.454673424,409.908643017 244.0,415.0 C243.333333333,417.333333333 243.248528546,419.919119091 242.0,422.0 C241.0,423.666666667 239.0,427.0 239.0,427.0 C234.707474212,431.292525788 232.536170267,433.154609911 227.0,435.0 C223.333333333,435.0 219.616777721,435.602796287 216.0,435.0 C214.0,434.666666667 210.0,434.0 210.0,434.0 C200.767920187,431.36226291 205.264952859,432.871135715 196.5,429.5 C194.333333333,428.666666667 191.6414763,428.6414763 190.0,427.0 C186.627878996,423.627878996 188.863761419,425.377895621 182.666666667,422.666666667 C173.154777505,418.505215159 163.37139466,414.278545995 155.0,408.0 C145.491505533,400.86862915 149.357022604,404.357022604 143.0,398.0 L210.0,434.0 C208.284061643,432.284061643 204.715938357,433.715938357 203.0,432.0 L139.0,394.0 C137.666666667,392.666666667 135.0,390.0 135.0,390.0 C133.666666667,387.666666667 131.651794907,385.60717963 131.0,383.0 C130.666666667,381.666666667 130.0,379.0 130.0,379.0 C130.0,377.333333333 129.595773958,375.616904167 130.0,374.0 C130.333333333,372.666666667 131.0,370.0 131.0,370.0 C140.329738789,351.340522422 158.794428168,342.205571832 173.0,328.0 C176.0,325.0 179.454415588,322.39411255 182.0,319.0 C184.0,316.333333333 186.509288015,313.98142397 188.0,311.0 C188.666666667,309.666666667 190.0,307.0 190.0,307.0 C190.666666667,304.666666667 192.0,302.426703296 192.0,300.0 C192.0,297.333333333 192.0,292.0 192.0,292.0 C191.333333333,289.666666667 190.0,285.0 190.0,285.0 C189.0,283.333333333 188.374368542,281.374368542 187.0,280.0 C185.666666667,278.666666667 183.0,276.0 183.0,276.0 C179.22712342,273.484748947 173.762175105,271.0 169.0,271.0 C167.333333333,271.0 164.0,271.0 164.0,271.0 C163.666666667,271.333333333 163.466666667,271.933333333 163.0,272.0 C144.504142417,274.642265369 171.750903999,268.0664256 149.5,274.0 C137.013639605,277.329696105 125.276040797,282.907986401 113.0,287.0 C109.141666567,288.286111144 101.685994341,291.0 98.0,291.0 L164.0,271.0 C163.528595479,271.0 163.471404521,272.0 163.0,272.0 L91.5,291.0 C89.3333333333,291.0 85.0,291.0 85.0,291.0 C83.3333333333,290.333333333 81.4017024105,290.121361928 80.0,289.0 C78.3333333333,287.666666667 75.0,285.0 75.0,285.0 C75.0,284.666666667 75.0,284.333333333 75.0,284.0 C73.6666666667,282.333333333 71.7926868804,280.981717201 71.0,279.0 C70.3333333333,277.333333333 69.0,274.0 69.0,274.0 C65.0027948041,254.01397402 66.6627586585,233.023448049 70.0,213.0 C72.2575180605,199.454891637 75.2688377714,186.596743343 83.0,175.0 C90.8498365856,167.150163414 87.2543741081,169.830417261 93.0,166.0 C97.3320578811,164.555980706 99.2548042552,163.563701064 105.0,165.0 C106.333333333,165.333333333 109.0,166.0 109.0,166.0 C123.200943683,171.680377473 135.256253471,180.614252361 147.833333333,189.166666667 C155.573976533,194.430304043 163.817991862,199.704497966 173.0,202.0 C200.452612503,208.863153126 154.128157291,197.625631458 181.0,203.0 C189.535533906,204.707106781 167.043314105,204.0 185.0,204.0 C187.304442881,203.615926187 191.538230797,203.230884602 194.0,202.0 C195.738453975,201.130773013 199.0,199.0 199.0,199.0 C204.849836586,193.150163414 202.692559099,195.961161351 206.0,191.0 C206.666666667,189.0 208.0,187.108185107 208.0,185.0 C208.0,182.666666667 208.0,178.0 208.0,178.0 C206.454508291,172.590779019 205.520560951,167.694081267 202.0,163.0 C199.233344393,159.311125857 194.388625299,152.566973999 191.0,149.0 C184.785971864,142.458917752 177.496716383,136.145731298 172.0,129.0 C168.822940498,124.869822648 164.527304164,120.549147495 162.0,116.0 C160.333333333,113.0 157.0,107.0 157.0,107.0 C156.666666667,105.666666667 156.0,104.374368542 156.0,103.0 C156.0,100.666666667 156.0,96.0 156.0,96.0 C157.0,94.0 157.41886117,91.5811388301 159.0,90.0 C161.333333333,87.6666666667 166.0,83.0 166.0,83.0 C181.492929823,72.6713801181 198.881871659,67.6236256682 217.0,64.0 C229.985361896,61.4029276207 242.691645317,59.0 256.0,59.0" fill="rgb(255,231,0)"/>
<path d="M248.0,199.0 C261.010862056,199.0 275.883394364,198.883394364 286.0,209.0 C289.333333333,212.333333333 293.385118198,215.077677297 296.0,219.0 C297.333333333,221.0 298.9250323,222.8500646 300.0,225.0 C300.666666667,226.333333333 302.0,229.0 302.0,229.0 C302.666666667,230.666666667 303.564635229,232.258540917 304.0,234.0 C304.333333333,235.333333333 305.0,238.0 305.0,238.0 C305.0,242.828712261 306.319778189,250.38077634 305.0,255.0 C304.333333333,257.333333333 303.0,262.0 303.0,262.0 C299.020378617,269.959242767 297.834301268,272.165698732 291.5,278.5 C289.666666667,280.333333333 286.0,284.0 286.0,284.0 C283.0,285.666666667 280.287141724,288.013857483 277.0,289.0 C273.666666667,290.0 267.0,292.0 267.0,292.0 C262.093333333,292.0 255.8,292.96 251.0,292.0 C249.333333333,291.666666667 246.0,291.0 246.0,291.0 C244.0,290.333333333 241.842885351,290.023825195 240.0,289.0 C237.0,287.333333333 231.0,284.0 231.0,284.0 C226.720575827,280.79043187 223.505076272,278.67343503 220.0,274.0 C219.0,272.666666667 217.857492926,271.429154876 217.0,270.0 C216.0,268.333333333 214.0,265.0 214.0,265.0 C214.0,262.057190958 214.471404521,263.471404521 212.0,261.0 C211.640298064,259.741043223 209.0,251.213873507 209.0,249.0 C209.0,246.0 209.0,240.0 209.0,240.0 C209.333333333,238.0 209.358820531,235.923538406 210.0,234.0 C210.666666667,232.0 212.0,228.0 212.0,228.0 C213.125990112,225.748019777 215.055791592,221.268243142 217.0,219.0 C218.227143982,217.568332021 221.0,216.885618083 221.0,215.0 C221.0,213.333333333 224.0,211.0 224.0,211.0 C226.111434849,211.0 229.593887005,206.336729441 232.0,205.0 C233.954675092,203.914069393 238.0,202.0 238.0,202.0" fill="rgb(255,255,255)"/>
<path d="M241.0,207.0 C259.537316805,201.70362377 278.958149882,205.944199843 291.0,222.0 C295.482043742,227.976058323 300.0,235.173745202 300.0,243.0 C300.0,245.666666667 300.0,251.0 300.0,251.0 C299.373391224,254.133043878 298.561528523,259.267325085 297.0,262.0 C295.666666667,264.333333333 293.0,269.0 293.0,269.0 C288.937043572,273.062956428 285.148292626,278.191840386 280.0,281.0 C277.382621096,282.42766122 272.0,285.0 272.0,285.0 C270.666666667,285.333333333 269.374368542,286.0 268.0,286.0 C266.0,286.0 262.0,286.0 262.0,286.0 C261.666666667,286.333333333 261.333333333,286.666666667 261.0,287.0 C259.333333333,287.0 256.0,287.0 256.0,287.0 C255.666666667,286.666666667 255.333333333,286.333333333 255.0,286.0 C253.0,286.0 250.897366596,286.632455532 249.0,286.0 C247.0,285.333333333 243.0,284.0 243.0,284.0 C236.367990063,280.683995031 229.468421472,277.255790061 225.0,271.0 C223.333333333,268.666666667 220.0,264.0 220.0,264.0 C217.90671339,259.813426779 215.0,254.917789672 215.0,250.0 L220.0,264.0 C220.0,261.763932023 217.0,260.236067977 217.0,258.0 L215.0,244.0 C215.0,242.0 215.0,238.0 215.0,238.0 C215.666666667,235.666666667 217.0,231.0 217.0,231.0 C221.466017101,222.067965799 226.666286955,215.555808696 235.0,210.0" fill="rgb(255,211,153)"/>
</svg>