<?xml version="1.0" encoding="utf-8"?>
<svg xmlns="http://www.w3.org/2000/svg" version="1.1" width="323.350453967" height="318.690527193">
<path d="M142.0,10.0 C147.769508186,7.1152459068 153.058981826,8.0 159.5,8.0 C170.0,8.0 180.5,8.0 191.0,8.0 C196.535882933,8.0 203.659994552,6.3199891048 207.0,13.0 C211.407511536,21.8150230713 209.0,34.2602044246 209.0,44.0 C209.0,51.5 209.0,59.0 209.0,66.5 C209.0,70.8908828068 209.832050294,73.7786331371 205.0,77.0 C200.179752483,80.2134983449 194.305851335,79.0 188.615384615,79.0 C176.717948718,79.0 164.820512821,79.0 152.923076923,79.0 C148.050525216,79.0 139.338436783,81.0306206989 138.0,73.0 C135.917351177,60.5041070639 137.0,47.4508689007 137.0,34.8 C137.0,30.4636103152 136.288252149,25.270487106 137.0,21.0 C137.333333333,19.0 138.0,15.0 138.0,15.0" fill="rgb(212,0,0)"/>
<path d="M236.0,17.0 C253.066666667,17.0 270.133333333,17.0 287.2,17.0 C290.223705813,17.0 300.674878398,14.6590844082 302.0,19.0 C303.031874995,22.3802801546 301.854731598,28.4424461059 301.8,32.0 C301.644444444,42.1111111111 301.488888889,52.2222222222 301.333333333,62.3333333333 C301.244444444,68.1111111111 301.155555556,73.8888888889 301.066666667,79.6666666667 C301.044444444,81.1111111111 302.444615375,84.0 301.0,84.0 C296.817802899,84.0 292.740716519,77.7407165189 289.857142857,74.8571428571 C278.682539683,63.6825396825 267.507936508,52.5079365079 256.333333333,41.3333333333 C251.253968254,36.253968254 246.174603175,31.1746031746 241.095238095,26.0952380952 C239.063492063,24.0634920635 235.0,20.0 235.0,20.0" fill="rgb(0,255,204)"/>
<path d="M14.0,29.0 C19.6157797522,23.3842202478 26.1340522227,25.0 33.75,25.0 C50.75,25.0 67.75,25.0 84.75,25.0 C91.1493615435,25.0 99.8204865318,23.455121633 106.0,25.0 C107.333333333,25.3333333333 109.028174684,25.0281746842 110.0,26.0 C111.0,27.0 113.0,29.0 113.0,29.0 C113.0,38.3333333333 113.0,47.6666666667 113.0,57.0 C113.0,60.1111111111 113.0,63.2222222222 113.0,66.3333333333 C113.0,67.8888888889 113.0,71.0 113.0,71.0 C107.812634431,76.1873655692 100.174790833,74.0 93.0909090909,74.0 C77.5909090909,74.0 62.0909090909,74.0 46.5909090909,74.0 C39.5454545455,74.0 32.5,74.0 25.4545454545,74.0 C22.6363636364,74.0 18.9927554743,75.9927554743 17.0,74.0 C16.0,73.0 14.0,71.0 14.0,71.0 C12.1028408889,63.4113635556 13.0,55.3629333116 13.0,47.5714285714 C13.0,44.3333333333 13.0,41.0952380952 13.0,37.8571428571 C13.0,36.2380952381 13.0,33.0 13.0,33.0" fill="rgb(0,128,0)"/>
<path d="M244.0,79.0 C244.0,83.9223702299 236.002433587,90.2828895869 232.8,94.0 C221.6,107.0 210.4,120.0 199.2,133.0 C197.127576149,135.40549197 187.866017339,149.302223144 184.0,146.0 C181.593838684,143.944737209 182.222222222,139.925925926 181.333333333,136.888888889 C178.666666667,127.777777778 176.0,118.666666667 173.333333333,109.555555556 C172.929545213,108.175946145 169.818827255,99.9970839948 173.0,99.0 C188.354166667,94.1875 203.708333333,89.375 219.0625,84.5625 C223.25,83.25 227.4375,81.9375 231.625,80.625 C234.416666667,79.75 240.0,78.0 240.0,78.0" fill="rgb(85,0,212)"/>
<path d="M46.0,91.0 C52.102011539,91.0 59.3170454881,89.8428030489 65.0,93.0 C68.0,94.6666666667 74.0,98.0 74.0,98.0 C78.3483305973,102.348330597 84.9003746488,107.701123946 87.0,114.0 C87.6666666667,116.0 89.0,120.0 89.0,120.0 C89.0,123.747211896 90.5464684015,132.649318463 89.0,136.0 L89.0,120.0 C88.2550076845,121.614150017 89.7449923155,123.719183316 89.0,125.333333333 L86.0,142.5 C85.0,144.666666667 83.0,149.0 83.0,149.0 C77.1591129676,154.840887032 73.8561331088,158.604861642 66.5,162.0 C64.3333333333,163.0 62.3863035105,165.0 60.0,165.0 C56.4444444444,165.0 52.8888888889,165.0 49.3333333333,165.0 C47.5555555556,165.0 44.0,165.0 44.0,165.0 C35.9196376412,162.30654588 30.7193901186,158.79132913 25.0,152.5 C23.3333333333,150.666666667 20.0,147.0 20.0,147.0 C19.1666666667,144.833333333 18.3333333333,142.666666667 17.5,140.5 C16.6666666667,138.333333333 15.0,134.0 15.0,134.0 C15.0,130.0 13.9011154884,125.846095791 15.0,122.0 C15.6666666667,119.666666667 17.0,115.0 17.0,115.0 C20.6133685505,108.676605037 25.4757933527,100.728118084 32.0,97.0 C34.3333333333,95.6666666667 39.0,93.0 39.0,93.0" fill="rgb(0,0,255)"/>
<path d="M279.0,112.0 C286.777777778,112.555555556 294.555555556,113.111111111 302.333333333,113.666666667 C303.188580587,113.727755756 312.0,113.881379045 312.0,116.0 C312.0,137.264389612 308.405960614,158.547679058 306.0,179.666666667 C305.166666667,186.981481481 304.333333333,194.296296296 303.5,201.611111111 C303.133408116,204.828973205 301.0,211.0 301.0,211.0 C294.777777778,210.555555556 288.555555556,210.111111111 282.333333333,209.666666667 C279.222222222,209.444444444 273.0,209.0 273.0,209.0 C271.333333333,208.333333333 267.817367493,208.785740068 268.0,207.0 C268.571428571,201.412698413 269.142857143,195.825396825 269.714285714,190.238095238 C271.285714286,174.873015873 272.857142857,159.507936508 274.428571429,144.142857143 C275.0,138.555555556 275.571428571,132.968253968 276.142857143,127.380952381 C276.428571429,124.587301587 277.0,119.0 277.0,119.0" fill="rgb(255,0,255)"/>
<path d="M113.0,126.0 C118.928866738,126.0 122.918770632,129.673719703 127.875,132.75 C138.75,139.5 149.625,146.25 160.5,153.0 C164.125,155.25 167.75,157.5 171.375,159.75 C172.583333333,160.5 175.278910617,160.605446913 175.0,162.0 C173.150430038,171.247849808 166.660628612,179.009880453 161.777777778,187.0 C159.333333333,191.0 156.888888889,195.0 154.444444444,199.0 C153.62962963,200.333333333 153.482407118,202.505864294 152.0,203.0 C146.850768295,204.716410568 142.181993396,199.795562594 137.75,197.0625 C125.25,189.354166667 112.75,181.645833333 100.25,173.9375 C96.4515444794,171.595119096 88.9968516765,167.009444971 89.0,167.0 C89.6666666667,165.0 91.0,161.0 91.0,161.0" fill="rgb(127,255,42)"/>
<path d="M227.0,142.0 C233.102434014,142.610243401 240.112758219,142.112758219 245.0,147.0 C247.666666667,149.666666667 253.0,155.0 253.0,155.0 C254.333333333,158.0 257.0,164.0 257.0,164.0 C257.0,166.166666667 257.0,168.333333333 257.0,170.5 C257.0,172.666666667 257.0,177.0 257.0,177.0 C256.333333333,178.666666667 256.102057129,180.583069406 255.0,182.0 C252.666666667,185.0 248.0,191.0 248.0,191.0 C245.833333333,192.166666667 243.666666667,193.333333333 241.5,194.5 C239.333333333,195.666666667 235.0,198.0 235.0,198.0 C231.333333333,198.0 224.0,198.0 224.0,198.0 C219.31905307,195.919579142 210.820659307,193.17120873 208.0,188.0 L224.0,198.0 C222.427951152,195.117910446 216.572048848,196.882089554 215.0,194.0 L205.0,182.5 C204.0,180.666666667 202.0,177.0 202.0,177.0 C202.0,172.666666667 200.240066647,167.959850044 202.0,164.0 C203.333333333,161.0 206.0,155.0 206.0,155.0 C208.666666667,152.333333333 210.766191666,148.940285 214.0,147.0 C215.666666667,146.0 219.0,144.0 219.0,144.0" fill="rgb(179,179,179)"/>
<path d="M31.0,184.0 C35.5955239177,185.531841306 35.3188308496,188.89369108 36.8,193.266666667 C40.5333333333,204.288888889 44.2666666667,215.311111111 48.0,226.333333333 C49.8666666667,231.844444444 51.7333333333,237.355555556 53.6,242.866666667 C54.0666666667,244.244444444 55.3528080117,245.588767953 55.0,247.0 C54.6666666667,248.333333333 55.3740293172,251.030533985 54.0,251.0 C43.5,250.766666667 33.0,250.533333333 22.5,250.3 C19.5,250.233333333 16.5,250.166666667 13.5,250.1 C12.0,250.066666667 9.0,250.0 9.0,250.0" fill="rgb(255,255,0)"/>
<path d="M205.0,202.0 C210.115796629,203.705265543 211.750715087,209.901315761 214.25,214.5 C219.111111111,223.444444444 223.972222222,232.388888889 228.833333333,241.333333333 C230.222222222,243.888888889 233.0,246.091413308 233.0,249.0 C233.0,250.943650632 230.0,254.0 230.0,254.0 C220.878787879,258.878787879 211.757575758,263.757575758 202.636363636,268.636363636 C198.727272727,270.727272727 194.818181818,272.818181818 190.909090909,274.909090909 C189.606060606,275.606060606 187.0,277.0 187.0,277.0 C179.571117622,275.514223524 179.312701977,271.055371639 175.75,264.5 C171.583333333,256.833333333 167.416666667,249.166666667 163.25,241.5 C160.643480249,236.704003659 156.198366419,232.404900744 158.0,227.0" fill="rgb(0,128,128)"/>
<path d="M90.0,211.0 C101.850983545,211.0 113.387565187,211.325004829 125.2,212.2 C128.570450745,212.449663018 137.583017653,210.847336919 139.0,216.0 C141.037037037,223.407407407 143.074074074,230.814814815 145.111111111,238.222222222 C146.516858526,243.334031002 152.309154949,254.611971785 150.0,260.0 C149.122222833,262.048146723 144.565693723,264.555251233 143.0,265.555555556 C135.0,270.666666667 127.0,275.777777778 119.0,280.888888889 C116.525516894,282.469808651 111.640684039,287.654856382 108.0,286.0 C101.733224152,283.151465524 95.3184222484,275.43201854 90.0,271.0 C85.2,267.0 80.4,263.0 75.6,259.0 C74.4,258.0 72.0,257.562049935 72.0,256.0 C72.0,246.739630868 78.6728215298,235.650664023 82.0,227.0 C83.1111111111,224.111111111 84.2222222222,221.222222222 85.3333333333,218.333333333 C85.8888888889,216.888888889 87.0,214.0 87.0,214.0" fill="rgb(238,170,255)"/>
<path d="M257.0,238.0 C266.0,238.0 275.0,238.0 284.0,238.0 C287.0,238.0 290.878679656,235.878679656 293.0,238.0 C298.518446652,243.518446652 301.783483299,250.865942098 305.714285714,257.571428571 C306.862202929,259.52964029 313.350453967,267.8972762 313.0,270.0 C311.291181286,280.252912286 304.452004114,288.579993143 299.142857143,297.428571429 L257.0,238.0 C256.228256367,239.286239389 262.271743633,236.713760611 261.5,238.0 L296.571428571,301.714285714 C295.714285714,303.142857143 295.665986256,306.0 294.0,306.0 C284.5,306.0 275.0,306.0 265.5,306.0 C262.333333333,306.0 257.669982396,308.690527193 256.0,306.0 C252.571428571,300.476190476 249.142857143,294.952380952 245.714285714,289.428571429 C243.85995218,286.441034068 238.490559235,280.433914647 238.0,277.0 C236.482829162,266.379804135 240.900798153,263.173603233 246.142857143,254.0 C247.666666667,251.333333333 249.19047619,248.666666667 250.714285714,246.0 C251.476190476,244.666666667 253.0,242.0 253.0,242.0" fill="rgb(255,102,0)"/>
<path d="M41.0,261.0 C46.3049651103,261.0 52.9613347649,259.807430412 57.0,265.0 C62.0668248712,271.51448912 70.5444139134,282.455586087 62.0,291.0 C58.6076379042,294.392362096 53.2379723661,301.693108041 47.0,301.0 C44.0,300.666666667 40.5115119565,301.674341304 38.0,300.0 C36.0,298.666666667 32.0,296.0 32.0,296.0 C30.3333333333,294.0 27.9668846365,292.417211591 27.0,290.0 C26.3333333333,288.333333333 25.0,285.0 25.0,285.0 C25.0,282.333333333 25.0,277.0 25.0,277.0 C26.0,274.666666667 26.2049450643,271.795054936 28.0,270.0 C30.0,268.0 34.0,264.0 34.0,264.0" fill="rgb(212,85,0)"/>
</svg>