<?xml version="1.0" encoding="utf-8"?>
<svg xmlns="http://www.w3.org/2000/svg" version="1.1" width="531.0" height="662.899856479">
<path d="M69.0,26.0 C74.395302372,24.201565876 88.4444388829,25.2963009309 90.0,24.0 C98.7064440773,16.7446299356 107.481538033,18.7592309835 117.0,14.0 C121.123105626,12.6256314581 130.0,13.0 130.0,13.0 C131.666666667,13.6666666667 135.0,15.0 135.0,15.0 C138.48010217,15.0 145.0,12.0 145.0,12.0 C156.054092553,12.0 151.83772234,10.9459074466 158.0,13.0 C161.877058019,15.5847053462 159.859824575,14.619941525 164.0,16.0 C166.333333333,16.0 171.0,16.0 171.0,16.0 C173.592724864,13.4072751356 182.0,16.0 182.0,16.0 C184.515728302,17.8867962264 190.0,21.0 190.0,21.0 C195.0,21.0 205.0,21.0 205.0,21.0 C207.0,22.3333333333 211.0,25.0 211.0,25.0 C213.333333333,27.3333333333 214.700168354,32.0 218.0,32.0 C221.0,32.0 227.0,32.0 227.0,32.0 C230.751194255,34.5007961703 235.830938013,38.4647504103 239.0,41.0 C240.472420348,42.1779362781 243.0,45.0 243.0,45.0 C243.0,45.3333333333 243.0,45.6666666667 243.0,46.0 C254.554784763,57.5547847627 258.144518096,71.2890361916 265.0,85.0 C265.666666667,85.0 266.333333333,85.0 267.0,85.0 C267.0,84.3333333333 267.0,83.6666666667 267.0,83.0 C273.58821911,63.2353426699 285.465737824,44.6895081177 303.0,33.0 C306.293090409,31.3534547953 314.0,32.0 314.0,32.0 C322.849836586,23.1501634144 318.862141838,26.0919054415 325.0,22.0 C326.885618083,21.0571909584 331.0,20.0 331.0,20.0 C338.989949494,21.1414213562 335.642977396,21.0 341.0,21.0 C345.527692569,19.4907691436 354.0,15.0 354.0,15.0 C358.678556283,15.0 368.0,16.0 368.0,16.0 C371.262348116,14.9125506281 373.737651884,13.0874493719 377.0,12.0 C380.333333333,12.0 387.0,12.0 387.0,12.0 C391.296981765,14.5781890589 402.0,13.0 402.0,13.0 C405.333333333,13.0 412.0,13.0 412.0,13.0 C414.983286778,13.994428926 420.0,18.0 420.0,18.0 C425.478635542,18.0 430.783237051,17.2610790168 436.0,19.0 C443.792516319,25.4937635992 439.396583441,24.0 449.0,24.0 C451.333333333,24.0 456.0,24.0 456.0,24.0 C457.333333333,24.3333333333 460.0,25.0 460.0,25.0 C464.301162634,26.4337208778 471.0,33.0 471.0,33.0 C476.146735751,35.5733678754 488.0,36.0 488.0,36.0 C491.772797331,38.5151982207 493.959346833,40.9186936668 496.0,45.0 C496.0,51.0369234254 494.0,63.0 494.0,63.0 C497.447213595,67.596284794 496.254644008,65.509288015 498.0,69.0 C498.0,72.7267799625 496.0,80.0 496.0,80.0 C495.0,81.3333333333 493.0,84.0 493.0,84.0 C493.0,84.6666666667 493.0,85.3333333333 493.0,86.0 C492.666666667,86.6666666667 492.333333333,87.3333333333 492.0,88.0 C492.333333333,91.3333333333 493.0,98.0 493.0,98.0 C490.8500646,102.299870799 485.0,110.0 485.0,110.0 C485.0,113.333333333 485.0,120.0 485.0,120.0 C483.271159669,125.186520992 475.0,133.0 475.0,133.0 C474.150163414,135.549509757 474.0,141.0 474.0,141.0 C470.924034958,147.151930085 465.869727491,150.130272509 461.0,155.0 C459.666666667,156.333333333 457.0,159.0 457.0,159.0 C454.568673082,165.483538449 454.462774996,169.122335002 448.0,173.0 C446.333333333,174.0 443.0,176.0 443.0,176.0 C437.269118317,177.146176337 439.5202339,176.23988305 436.0,178.0 C433.649849512,183.875376219 435.269295518,181.730704482 432.0,185.0 C432.0,185.333333333 432.0,185.666666667 432.0,186.0 C427.783629786,190.216370214 416.0,194.0 416.0,194.0 C416.0,194.666666667 416.0,195.333333333 416.0,196.0 C428.519253812,204.346169208 441.660681832,211.547575775 451.0,224.0 C454.879282673,229.172376897 457.702680217,234.504467028 461.0,240.0 C462.0,241.666666667 464.0,245.0 464.0,245.0 C467.585349946,255.756049839 472.0,267.448854933 472.0,279.0 C472.0,284.0 469.763932023,289.527864045 472.0,294.0 C473.0,296.0 475.0,300.0 475.0,300.0 C486.695025297,311.695025297 500.262885395,320.525770789 508.0,336.0 C510.0,340.0 512.585786438,343.757359313 514.0,348.0 C515.0,351.0 517.0,357.0 517.0,357.0 C519.004336774,365.017347097 521.0,372.61496833 521.0,381.0 C521.0,386.676462122 520.0,398.0 520.0,398.0 C517.065309608,412.673451959 512.107725335,428.448313903 502.0,440.0 C499.666666667,442.666666667 496.584648577,444.830702847 495.0,448.0 C492.621351204,452.757297592 493.629719751,457.110840748 492.0,462.0 C489.298623453,470.10412964 485.68044561,477.958663169 483.0,486.0 C479.779551876,495.661344373 479.575335735,505.465771373 476.0,515.0 C474.062624286,520.166335238 469.0,530.0 469.0,530.0 C458.646079472,547.256534213 444.829973199,563.094459334 427.0,573.0 C421.679556017,575.955802213 415.882135767,577.07071854 411.0,580.0 C399.208126928,587.075123843 389.504714189,596.747642905 377.0,603.0 C367.878425118,607.560787441 358.005344791,610.497327604 349.0,615.0 C337.780305657,620.609847171 330.573629986,632.213185007 319.0,638.0 C314.333333333,640.333333333 309.949747468,643.350084177 305.0,645.0 C302.0,646.0 296.0,648.0 296.0,648.0 C285.158720585,650.710319854 272.798277747,652.899856479 262.0,652.0 C255.983929568,651.498660797 244.0,650.0 244.0,650.0 C230.146726772,646.536681693 216.661473024,641.48107129 205.0,633.0 C198.492470845,628.267251523 192.13985568,619.56992784 185.0,616.0 C164.29192899,605.645964495 144.148171866,597.361128899 125.0,583.0 C112.760984532,573.820738399 97.5109098965,570.510909897 86.0,559.0 C81.496914638,554.496914638 73.0,545.0 73.0,545.0 C52.2294910711,517.305988095 48.6747831758,483.024349527 38.0,451.0 C35.4547593885,443.364278165 25.6629471043,434.231187479 21.5,426.5 C18.3452663272,420.641208893 14.0,408.0 14.0,408.0 C10.8561352879,395.424541152 9.43139164451,381.843041777 12.0,369.0 C13.0453171104,363.773414448 14.021506077,357.946234807 16.0,353.0 C16.6666666667,351.333333333 18.0,348.0 18.0,348.0 C22.4836977865,339.032604427 26.7246275027,328.275372497 34.0,321.0 C42.4813810609,312.518618939 56.1083896752,304.674830974 60.0,293.0 C60.0,278.007586367 60.0730139904,260.853972019 67.0,247.0 C69.5342103745,241.931579251 75.0,232.0 75.0,232.0 C85.7764138199,215.83537927 100.36627679,206.42248214 116.0,196.0 C115.666666667,195.0 115.333333333,194.0 115.0,193.0 C111.51989783,193.0 105.0,190.0 105.0,190.0 C101.268636051,187.512424034 96.0,180.0 96.0,180.0 C96.0,177.254644008 96.596284794,178.298142397 94.0,177.0 C90.4796076365,176.295921527 84.0,173.0 84.0,173.0 C77.1501634144,166.150163414 79.5689290811,169.353393622 76.0,164.0 C74.5527864045,161.105572809 75.0,162.745355992 75.0,159.0 C74.0,158.0 72.0,156.0 72.0,156.0 C71.6666666667,156.0 71.3333333333,156.0 71.0,156.0 C68.9818838683,154.385507095 63.574065959,150.361098938 62.0,148.0 C60.509288015,145.763932023 58.0,141.0 58.0,141.0 C57.6666666667,138.333333333 57.0,133.0 57.0,133.0 C54.3333333333,130.333333333 49.0,125.0 49.0,125.0 C46.7441434246,120.488286849 50.2292492938,113.875099153 47.0,110.0 C45.3333333333,108.0 42.0,104.0 42.0,104.0 C40.1789455482,101.268418322 38.0,95.0 38.0,95.0 C38.0,91.6500414596 39.0,85.0 39.0,85.0 C37.5701857603,82.1403715206 35.4298142397,79.8596284794 34.0,77.0 C34.0,74.3333333333 34.0,69.0 34.0,69.0 C35.3333333333,66.6666666667 38.0,62.0 38.0,62.0 C38.0,61.0 38.0,60.0 38.0,59.0 C35.8918148932,54.7836297864 36.0,45.0 36.0,45.0 C37.490711985,42.01857603 42.0,37.0 42.0,37.0 C45.8770580193,34.4152946538 43.8598245749,35.380058475 48.0,34.0 C51.3194875781,34.0 56.6790506867,35.490711985 60.0,33.0 C62.0827332469,31.4379500648 66.0,28.0 66.0,28.0" fill="rgb(0,0,0)"/>
<path d="M56.0,50.0 C61.0,50.0 66.0,50.0 71.0,50.0 C74.3333333333,50.0 81.0,53.3333333333 81.0,50.0 C81.0,44.7846179772 77.3087095478,46.0738713567 79.0,41.0 C81.6997942308,39.6501028846 88.0,40.0 88.0,40.0 C93.4422217685,40.7774602526 98.5025258325,44.0 104.0,44.0 C105.666666667,44.0 109.0,44.0 109.0,44.0 C108.666666667,42.3333333333 108.0,39.0 108.0,39.0 C108.333333333,37.6666666667 109.0,35.0 109.0,35.0 C110.0,35.0 111.0,35.0 112.0,35.0 C112.333333333,35.3333333333 112.666666667,35.6666666667 113.0,36.0 C119.693005482,36.0 124.591501455,40.0 131.0,40.0 C131.333333333,39.3333333333 131.666666667,38.6666666667 132.0,38.0 C131.333333333,36.6666666667 130.0,34.0 130.0,34.0 C130.333333333,33.0 130.666666667,32.0 131.0,31.0 C136.054092553,31.0 133.735088936,30.5783629786 138.0,32.0 C141.577174492,33.9261708803 151.935371577,43.1292568458 155.0,37.0 C155.0,36.3333333333 155.0,35.6666666667 155.0,35.0 C154.666666667,34.6666666667 154.333333333,34.3333333333 154.0,34.0 C154.333333333,33.0 154.666666667,32.0 155.0,31.0 C156.0,31.0 157.0,31.0 158.0,31.0 C162.687976555,33.8127859332 171.0,41.0 171.0,41.0 C173.596284794,42.298142397 172.254644008,42.0 175.0,42.0 C175.666666667,41.3333333333 176.333333333,40.6666666667 177.0,40.0 C177.333333333,38.0 178.0,34.0 178.0,34.0 C178.666666667,34.0 179.333333333,34.0 180.0,34.0 C186.605096372,37.3025481862 189.284468072,44.7614893573 196.0,47.0 C196.666666667,46.3333333333 197.333333333,45.6666666667 198.0,45.0 C198.0,44.3333333333 198.0,43.6666666667 198.0,43.0 C198.333333333,42.3333333333 198.666666667,41.6666666667 199.0,41.0 C200.333333333,40.6666666667 203.0,40.0 203.0,40.0 C208.108365377,45.1083653773 212.717751376,53.8588756882 219.0,57.0 C219.666666667,56.6666666667 220.333333333,56.3333333333 221.0,56.0 C221.0,55.3333333333 221.0,54.6666666667 221.0,54.0 C221.333333333,53.3333333333 221.666666667,52.6666666667 222.0,52.0 C223.0,51.6666666667 224.0,51.3333333333 225.0,51.0 C232.479473191,58.4794731911 239.211127534,66.4222550684 244.0,76.0 C245.801234145,79.6024682896 249.0,87.0 249.0,87.0 C251.271966603,93.8158998075 252.0,98.2472375713 252.0,105.5 C252.0,109.347798794 251.0,117.0 251.0,117.0 C248.227115421,122.545769158 240.0,132.0 240.0,132.0 C233.379826327,136.413449115 236.1499354,134.9250323 232.0,137.0 C228.25541976,137.0 202.992566894,116.995540136 198.0,114.0 C175.662595532,100.597557319 152.495894599,88.907598036 128.0,80.0 C121.433258246,77.6120939075 112.015615831,71.0 105.0,71.0 C105.333333333,72.0 105.666666667,73.0 106.0,74.0 C137.558275743,89.7791378714 168.968651007,105.574920805 197.0,128.0 C202.638995714,132.511196571 220.0,143.564823838 220.0,151.0 C218.179829215,156.460512354 215.179948383,162.820051617 211.0,167.0 C209.0,169.0 205.0,173.0 205.0,173.0 C200.03851966,176.721110255 202.386750491,175.075499673 198.0,178.0 C186.894770597,183.552614702 176.506117932,187.749388207 164.0,189.0 C157.034739669,189.696526033 143.0,189.0 143.0,189.0 C143.0,188.333333333 143.0,187.666666667 143.0,187.0 C146.745355992,183.254644008 146.447213595,185.341640786 145.0,181.0 C139.380589197,180.197227028 133.599227746,180.933204624 128.0,180.0 C124.251126295,179.375187716 117.0,177.0 117.0,177.0 C117.0,176.333333333 117.0,175.666666667 117.0,175.0 C118.333333333,174.0 121.0,172.0 121.0,172.0 C120.666666667,171.0 120.333333333,170.0 120.0,169.0 C115.48663164,169.0 111.204948095,167.576855536 107.0,166.0 C103.926075691,164.847278384 98.0,162.0 98.0,162.0 C98.0,160.333333333 98.0,157.0 98.0,157.0 C99.3333333333,156.666666667 102.0,156.0 102.0,156.0 C102.0,151.189080754 89.7738305959,148.515887064 86.0,146.0 C84.0,144.666666667 80.0,142.0 80.0,142.0 C79.3333333333,141.333333333 78.6666666667,140.666666667 78.0,140.0 C78.9428090416,137.171572875 86.0,136.0 86.0,136.0 C86.0,135.333333333 86.0,134.666666667 86.0,134.0 C80.0293561917,131.014678096 74.7901315073,127.790131507 70.0,123.0 C69.0,122.0 67.0,120.0 67.0,120.0 C67.3333333333,119.0 67.6666666667,118.0 68.0,117.0 C70.2056438663,116.632392689 75.2403473459,115.860521019 74.0,114.0 C71.12,109.68 65.68,105.68 62.0,102.0 C60.6666666667,100.666666667 58.0,98.0 58.0,98.0 C58.3333333333,97.0 58.6666666667,96.0 59.0,95.0 C62.0,95.0 67.0513167019,97.8460498942 68.0,95.0 C68.8027729719,92.5916810842 65.0,88.0 65.0,88.0 C61.3333333333,84.6666666667 54.0,78.0 54.0,78.0 C52.5285954792,75.0571909584 52.7642977396,76.7071067812 54.0,73.0 C59.6537204505,74.1307440901 57.3003268288,74.0 61.0,74.0 C61.6666666667,73.6666666667 62.3333333333,73.3333333333 63.0,73.0 C63.0,71.6666666667 63.0,70.3333333333 63.0,69.0 C61.2080426592,63.6241279777 55.0,54.0 55.0,54.0" fill="rgb(140,192,75)"/>
<path d="M479.0,51.0 C479.0,57.9119434209 470.0,64.5349601929 470.0,73.0 C470.666666667,73.3333333333 471.333333333,73.6666666667 472.0,74.0 C481.0,74.0 480.0,71.3333333333 480.0,77.0 C475.0,81.6666666667 465.0,91.0 465.0,91.0 C465.333333333,92.3333333333 466.0,95.0 466.0,95.0 C469.0,95.3333333333 475.0,92.9815382873 475.0,96.0 C475.0,98.2360679775 472.0,102.0 472.0,102.0 C470.666666667,103.333333333 468.0,106.0 468.0,106.0 C464.905683935,108.750503168 459.0,111.466086639 459.0,116.0 C461.170509413,117.085254706 466.0,118.0 466.0,118.0 C466.0,118.666666667 466.0,119.333333333 466.0,120.0 C462.454091173,123.545908827 454.423523509,133.0 449.0,133.0 C449.0,134.333333333 449.0,135.666666667 449.0,137.0 C451.0,137.333333333 455.0,138.0 455.0,138.0 C455.0,138.666666667 455.0,139.333333333 455.0,140.0 C451.150163414,143.849836586 453.176696811,142.215535459 449.0,145.0 C444.125493716,147.785432163 430.089004177,151.267012531 432.0,157.0 C433.333333333,157.333333333 436.333333333,156.666666667 436.0,158.0 C435.666666667,159.333333333 435.0,162.0 435.0,162.0 C430.183362168,164.408318916 420.0,168.0 420.0,168.0 C416.514874628,168.0 413.0,168.007293524 413.0,172.0 C414.0,173.0 416.0,175.0 416.0,175.0 C415.666666667,176.0 415.333333333,177.0 415.0,178.0 C405.904669269,180.273832683 395.307359749,177.846320126 387.0,182.0 C387.0,182.666666667 387.0,183.333333333 387.0,184.0 C388.0,185.0 390.0,187.0 390.0,187.0 C389.666666667,188.0 389.333333333,189.0 389.0,190.0 C382.325005202,190.0 369.0,189.0 369.0,189.0 C352.156410008,185.937529092 336.481202364,181.481202364 324.0,169.0 C320.071092472,164.08886559 314.0,153.0 314.0,153.0 C314.0,148.823345305 320.0,142.0 320.0,142.0 C343.114571204,121.196885916 368.835583982,104.091342232 396.0,89.0 C402.050389264,85.638672631 426.279699643,76.1609010719 428.0,71.0 C421.112376222,71.0 411.174407473,77.7031503035 404.666666667,80.0 C379.515024935,88.877050023 354.200397362,101.199735092 332.0,116.0 C325.767099844,120.155266771 305.485046262,139.242523131 299.0,136.0 C293.986502359,132.657668239 289.165898786,129.276497976 286.0,124.0 C285.0,122.333333333 283.0,119.0 283.0,119.0 C280.881300189,112.643900567 281.0,99.0 281.0,99.0 C283.426218752,86.8689062379 288.698203932,75.0399695941 296.0,65.0 C299.615116743,60.0292144777 308.0,51.0 308.0,51.0 C308.666666667,51.0 309.333333333,51.0 310.0,51.0 C310.666666667,51.6666666667 311.333333333,52.3333333333 312.0,53.0 C312.0,53.6666666667 312.0,54.3333333333 312.0,55.0 C317.071442045,58.3809613632 321.282307664,50.4832417888 325.0,46.5 C327.333333333,44.0 332.0,39.0 332.0,39.0 C334.121320344,39.7071067812 335.0,45.0 335.0,45.0 C337.471404521,47.4714045208 336.057190958,47.0 339.0,47.0 C340.0,46.0 342.0,44.0 342.0,44.0 C342.0,40.2287638337 350.0,36.0 350.0,36.0 C351.0,35.3333333333 352.0,34.6666666667 353.0,34.0 C354.0,34.3333333333 355.0,34.6666666667 356.0,35.0 C356.0,36.6666666667 356.0,40.0 356.0,40.0 C356.666666667,40.6666666667 357.333333333,41.3333333333 358.0,42.0 C359.0,42.0 360.0,42.0 361.0,42.0 C363.666666667,39.6666666667 369.0,35.0 369.0,35.0 C372.977167403,32.3485550649 374.522889391,30.507629797 379.0,32.0 C378.666666667,33.3333333333 378.0,36.0 378.0,36.0 C378.333333333,37.0 378.666666667,38.0 379.0,39.0 C380.333333333,39.0 381.666666667,39.0 383.0,39.0 C387.0,36.6666666667 390.606823473,33.4643921758 395.0,32.0 C397.529822128,31.1567259573 403.0,32.0 403.0,32.0 C403.0,34.6874192494 402.0,40.0 402.0,40.0 C408.548960901,40.0 421.0,35.0 421.0,35.0 C422.666666667,35.3333333333 426.0,36.0 426.0,36.0 C426.0,36.6666666667 426.0,37.3333333333 426.0,38.0 C425.333333333,38.6666666667 424.666666667,39.3333333333 424.0,40.0 C424.333333333,41.3333333333 425.0,44.0 425.0,44.0 C432.070168026,44.0 437.849714068,40.0 445.0,40.0 C447.333333333,40.0 452.0,40.0 452.0,40.0 C453.333333333,40.6666666667 456.0,42.0 456.0,42.0 C456.0,42.6666666667 456.0,43.3333333333 456.0,44.0 C451.156725957,47.632455532 451.472953723,45.4188611699 453.0,50.0" fill="rgb(140,192,75)"/>
<path d="M199.0,228.0 C202.514743709,220.970512582 206.516431209,214.862676594 213.0,210.0 C216.255081498,207.558688877 223.0,203.0 223.0,203.0 C231.894383179,198.552808411 240.899215299,193.262598088 251.0,192.0 C257.623449665,191.172068792 271.0,191.0 271.0,191.0 C279.238850991,192.029856374 288.456560512,193.228280256 296.0,197.0 C300.0,199.0 308.0,203.0 308.0,203.0 C313.473550546,206.649033697 317.858634847,209.858634847 322.5,214.5 C325.684162196,217.684162196 331.0,225.0 331.0,225.0 C333.108185107,229.216370214 333.0,239.0 333.0,239.0 C330.891814893,245.32455532 321.0,255.0 321.0,255.0 C315.470664064,258.686223958 309.321907925,261.892697358 303.0,264.0 C287.15818185,267.960454537 269.301989676,270.328855668 253.0,268.0 C247.725297882,267.246471126 242.10055204,266.700184013 237.0,265.0 C234.0,264.0 228.0,262.0 228.0,262.0 C225.256929535,260.628464768 215.033622788,256.033622788 212.0,253.0 C209.333333333,250.333333333 204.0,245.0 204.0,245.0 C199.415294654,238.122941981 200.76011695,241.28035085 199.0,236.0" fill="rgb(199,5,61)"/>
<path d="M186.0,208.0 C186.0,211.561551496 183.895668409,214.156497386 182.0,217.0 C163.786853523,239.766433097 141.232789401,258.57540795 118.0,276.0 C109.014655036,282.739008723 95.3319896966,294.0 84.0,294.0 C83.0,293.0 81.0,291.0 81.0,291.0 C81.0,279.611105296 80.6704092682,267.82397683 85.0,257.0 C87.4913643956,250.771589011 94.0,239.0 94.0,239.0 C100.542479426,230.276694098 108.00485683,220.997571585 118.0,216.0 C122.666666667,213.666666667 132.0,209.0 132.0,209.0 C143.461355396,205.561593381 153.039293429,204.0 165.0,204.0 C171.009252126,204.0 183.0,205.0 183.0,205.0" fill="rgb(199,5,61)"/>
<path d="M339.0,210.0 C348.362866123,200.637133877 384.872891527,206.436445763 396.0,212.0 C401.101966568,214.550983284 404.466070022,215.977380015 409.0,219.0 C411.773500981,220.849000654 417.0,225.0 417.0,225.0 C422.663637242,230.663637242 429.32130071,236.64260142 433.0,244.0 C435.0,248.0 439.0,256.0 439.0,256.0 C441.916044514,264.748133543 444.0,273.080063016 444.0,282.333333333 C444.0,285.888888889 444.0,293.0 444.0,293.0 C443.333333333,293.666666667 442.666666667,294.333333333 442.0,295.0 C434.945907447,295.0 437.897366596,295.632455532 433.0,294.0 C407.339736519,281.16986826 384.423428172,261.423428172 364.25,241.25 C355.210730634,232.210730634 344.817053078,223.634106156 339.0,212.0" fill="rgb(199,5,61)"/>
<path d="M309.0,279.0 C321.973300896,272.513349552 334.083137926,268.513856321 349.0,271.0 C354.422675115,271.903779186 365.0,275.0 365.0,275.0 C369.0,277.0 377.0,281.0 377.0,281.0 C387.38011904,287.92007936 398.017581226,296.526371838 405.0,307.0 C410.447071904,315.170607855 407.9250323,310.8500646 412.5,320.0 C413.666666667,322.333333333 416.0,327.0 416.0,327.0 C417.647769417,331.943308251 419.259710416,336.817972914 420.0,342.0 C420.333333333,344.333333333 421.0,349.0 421.0,349.0 C421.0,358.288597561 421.545162212,368.137094469 418.0,377.0 C416.504156461,380.739608847 413.0,388.0 413.0,388.0 C408.22398017,395.164029745 403.29438532,402.137076453 396.0,407.0 C392.146929297,409.568713802 384.0,414.0 384.0,414.0 C379.169851195,415.610049602 373.206037935,418.0 368.0,418.0 C363.666666667,418.0 355.0,418.0 355.0,418.0 C349.021681938,417.145954563 342.580087707,416.511039468 337.0,414.0 C332.24205689,411.8589256 323.0,407.0 323.0,407.0 C313.325040746,400.550027164 303.524683688,392.787025532 297.0,383.0 C295.414852226,380.622278339 291.412231295,374.82446259 290.0,372.0 C288.666666667,369.333333333 286.0,364.0 286.0,364.0 C283.488706694,356.466120082 280.0,348.151154476 280.0,340.0 C280.0,335.666666667 280.0,327.0 280.0,327.0 C281.64921302,315.455508858 284.373110034,305.94033495 291.0,296.0 C295.242640687,290.343145751 306.0,281.0 306.0,281.0" fill="rgb(199,5,61)"/>
<path d="M212.0,277.0 C222.442778645,282.221389322 231.779044995,287.372059993 239.0,297.0 C242.052867504,301.070490006 247.0,310.0 247.0,310.0 C250.069931105,319.209793316 252.0,327.261902259 252.0,337.0 C252.0,341.346134937 251.0,350.0 251.0,350.0 C248.963043669,360.184781657 245.843802803,370.234295795 240.0,379.0 C238.0,382.0 234.0,388.0 234.0,388.0 C228.122401712,393.877598288 223.7924995,399.905625375 217.0,405.0 C212.929509994,408.052867504 204.0,413.0 204.0,413.0 C199.646352292,415.612188625 190.0,419.0 190.0,419.0 C176.612124055,422.346968986 162.16782711,422.389275703 149.0,418.0 C140.981525507,413.990762754 135.32859048,410.32859048 129.0,404.0 C125.65004146,400.65004146 120.0,393.0 120.0,393.0 C115.438612365,385.017571639 111.0,375.51132415 111.0,366.0 C111.0,361.333333333 111.0,352.0 111.0,352.0 C112.60802599,340.743818072 115.472528504,329.673075117 121.0,320.0 C124.211091888,314.380589197 132.0,304.0 132.0,304.0 C141.835094247,294.164905753 152.380301856,283.539899381 166.0,279.0 C170.604345773,277.465218076 180.0,275.0 180.0,275.0 C185.393012214,274.325873473 191.545871017,273.220838717 197.0,274.0 C199.333333333,274.333333333 204.0,275.0 204.0,275.0" fill="rgb(199,5,61)"/>
<path d="M448.0,314.0 C469.597467495,314.0 488.244420734,345.222103668 492.0,364.0 C493.300676669,370.503383346 493.0,376.761703254 493.0,383.4 C493.0,386.6 493.0,393.0 493.0,393.0 C491.697240011,400.816559932 489.441011224,407.117977553 486.0,414.0 C484.531818964,416.936362073 482.0,423.0 482.0,423.0 C478.113159389,428.830260917 473.858327658,434.094448228 468.0,438.0 C467.0,438.0 466.0,438.0 465.0,438.0 C462.29255584,436.64627792 460.140498462,435.140498462 458.0,433.0 C458.0,432.666666667 458.0,432.333333333 458.0,432.0 C453.351224773,427.351224773 448.0,415.0 448.0,415.0 C440.960601743,393.881805228 437.0,372.28735954 437.0,350.0 C437.0,344.059746912 436.539735439,337.841058246 438.0,332.0 C439.022619985,327.909520059 442.0,320.0 442.0,320.0" fill="rgb(199,5,61)"/>
<path d="M77.0,316.0 C80.5901098714,317.795054936 85.0,325.0 85.0,325.0 C91.4011438674,344.203431602 88.9051346935,368.474326532 85.0,388.0 C83.6039340008,394.980329996 82.2483946434,402.25481607 80.0,409.0 C78.7662162984,412.701351105 76.0,420.0 76.0,420.0 C72.2296997413,427.540600517 69.1156976611,434.256201559 62.0,439.0 C60.0,439.0 56.0,439.0 56.0,439.0 C51.9194388805,434.919438881 47.0199209906,431.033201651 44.0,426.0 C41.5220207011,421.870034502 40.261058375,416.261058375 37.0,413.0 C35.4148309063,408.244492719 33.8371033309,404.022619985 33.0,399.0 C32.6666666667,397.0 32.0,393.0 32.0,393.0 C32.0,381.384120881 31.2687795095,370.193661472 35.0,359.0 C36.7448336438,353.765499069 42.0,344.0 42.0,344.0 C47.4395578535,335.84066322 53.7030142977,327.531323802 62.0,322.0 C65.0,320.0 71.0,316.0 71.0,316.0" fill="rgb(199,5,61)"/>
<path d="M247.0,410.0 C258.504224612,407.908322798 271.414352952,406.103588238 283.0,409.0 C287.708496006,410.177124002 297.0,413.0 297.0,413.0 C302.101966568,415.550983284 305.466070022,416.977380015 310.0,420.0 C312.773500981,421.849000654 318.0,426.0 318.0,426.0 C325.032581619,433.032581619 333.724248207,441.17274462 337.0,451.0 C338.0,454.0 340.0,460.0 340.0,460.0 C342.423338581,472.116692907 341.904700132,485.285899605 338.0,497.0 C336.628464768,499.743070465 332.033622788,509.966377212 329.0,513.0 C325.828950402,516.171049598 320.0,523.0 320.0,523.0 C319.666666667,523.0 319.333333333,523.0 319.0,523.0 C313.65890856,528.34109144 308.742767685,531.628616158 302.0,535.0 C300.0,536.0 296.0,538.0 296.0,538.0 C289.381250858,540.206249714 282.084905002,543.0 275.0,543.0 C270.0,543.0 260.0,543.0 260.0,543.0 C252.996168656,541.999452665 245.438405941,541.219202971 239.0,538.0 C235.0,536.0 227.0,532.0 227.0,532.0 C220.627864537,527.751909692 213.672176388,523.229568517 209.0,517.0 C207.0,514.333333333 203.0,509.0 203.0,509.0 C199.88925953,502.778519061 196.750314536,498.001258144 195.0,491.0 C194.666666667,489.666666667 194.0,487.0 194.0,487.0 C193.151565755,479.364091792 192.092536236,471.629855057 194.0,464.0 C195.45745772,458.170169119 200.0,447.0 200.0,447.0 C205.742311546,437.429480757 212.564177191,428.29054854 222.0,422.0 C227.091470998,418.605686001 238.0,413.0 238.0,413.0" fill="rgb(199,5,61)"/>
<path d="M445.0,437.0 C448.673914509,440.673914509 452.176630755,443.985734577 454.0,449.0 C455.549402731,453.260857511 458.0,462.0 458.0,462.0 C459.836736911,473.020421465 460.851889058,483.888665649 459.0,495.0 C458.096220814,500.422675115 455.0,511.0 455.0,511.0 C452.449815825,516.100368349 450.162677715,521.255983428 447.0,526.0 C438.363726283,537.103780493 427.957943978,550.521028011 415.0,557.0 C410.333333333,559.333333333 405.949747468,562.350084177 401.0,564.0 C399.0,564.666666667 395.0,566.0 395.0,566.0 C388.185455975,567.703636006 382.413331834,568.0 375.333333333,568.0 C371.872797444,568.0 365.0,567.0 365.0,567.0 C361.279526407,565.759842136 358.226041932,564.150694621 355.0,562.0 C351.583334514,558.583334514 349.547019331,555.641057993 348.0,551.0 C345.195588634,539.782354537 346.329067495,526.012797516 350.0,515.0 C351.567021236,510.298936291 355.0,501.0 355.0,501.0 C364.238256192,482.523487616 376.003709995,466.330241671 392.0,453.0 C397.046609556,448.794492037 402.215721884,444.213487842 408.0,441.0 C411.0,439.333333333 417.0,436.0 417.0,436.0 C419.0,435.333333333 423.0,434.0 423.0,434.0 C428.229763604,432.954047279 439.0,434.0 439.0,434.0" fill="rgb(199,5,61)"/>
<path d="M83.0,447.0 C89.1379342596,443.93103287 93.6604233096,444.0 100.666666667,444.0 C102.444444444,444.0 106.0,444.0 106.0,444.0 C122.81349656,448.20337414 136.579406624,458.579406624 148.6,470.6 C153.5694623,475.5694623 163.0,486.0 163.0,486.0 C166.048880752,490.573321128 168.546921831,495.093843661 171.0,500.0 C172.0,502.0 174.0,506.0 174.0,506.0 C177.184488354,515.553465063 180.0,524.16736188 180.0,534.333333333 C180.0,538.555555556 180.0,547.0 180.0,547.0 C178.300326829,552.099019514 172.0,561.0 172.0,561.0 C168.394448725,563.40370085 160.0,566.0 160.0,566.0 C154.48,566.0 147.4,567.08 142.0,566.0 C140.333333333,565.666666667 137.0,565.0 137.0,565.0 C126.203108466,561.401036155 115.917895296,557.431579413 107.0,550.0 C102.469592715,546.224660596 94.0,538.0 94.0,538.0 C86.4263839145,529.164114567 79.4022149927,519.340716642 76.0,508.0 C74.513053742,503.043512473 72.0,493.0 72.0,493.0 C71.124000862,486.868006034 71.0,481.541330564 71.0,475.333333333 C71.0,471.540878185 72.0,464.0 72.0,464.0 C73.6423099454,459.073070164 74.2568841267,457.11467381 77.0,453.0" fill="rgb(199,5,61)"/>
<path d="M194.0,594.0 C194.0,588.782508053 201.0,580.0 201.0,580.0 C205.714951668,576.856698888 216.0,572.0 216.0,572.0 C238.161618905,564.612793698 264.646684078,560.407182166 288.0,564.0 C296.369788721,565.287659803 304.919242123,566.306414041 313.0,569.0 C315.701851217,569.900617072 321.0,572.0 321.0,572.0 C327.332498165,575.166249083 333.640098463,578.280196925 337.0,585.0 C337.0,587.0 337.0,591.0 337.0,591.0 C334.153940419,596.692119163 330.528692908,601.471307092 326.0,606.0 C316.244940905,614.361479224 305.389133083,622.870288972 293.0,627.0 C288.114713473,628.628428842 283.147358134,630.356580233 278.0,631.0 C275.333333333,631.333333333 270.0,632.0 270.0,632.0 C248.79299616,632.0 231.738585679,626.825723786 214.0,615.0 C209.377991472,611.533493604 203.478549346,607.348186682 200.0,603.0 C198.666666667,601.333333333 196.0,598.0 196.0,598.0" fill="rgb(199,5,61)"/>
</svg>