<?xml version="1.0" encoding="utf-8"?>
<svg xmlns="http://www.w3.org/2000/svg" version="1.1" width="176.894427191" height="193.404226042">
<path d="M131.0,28.0 C131.0,33.1437885863 131.377400177,38.2451996451 129.0,43.0 C123.68396581,53.6320683797 113.503718078,64.0 101.0,64.0 C100.333333333,63.3333333333 99.6666666667,62.6666666667 99.0,62.0 C99.0,59.6666666667 98.4340835416,57.2636658337 99.0,55.0 C99.3333333333,53.6666666667 100.0,51.0 100.0,51.0 C104.074622987,42.8507540261 109.29241129,36.1383924733 117.0,31.0 C123.942809042,27.5285954792 120.878679656,28.7071067812 126.0,27.0" fill="rgb(0,0,0)"/>
<path d="M51.0,72.0 C54.1564201949,69.6326848538 58.3798263271,66.2067245576 62.0,65.0 C72.1371559109,61.6209480297 80.7890314394,62.7650120921 90.5,66.5 C91.4186423567,66.8533239834 98.8117695835,70.0 101.0,70.0 C103.0,70.0 105.059715,70.4850712501 107.0,70.0 C108.333333333,69.6666666667 111.0,69.0 111.0,69.0 C116.862709028,67.0457636573 122.494778358,63.0 129.0,63.0 C132.0,63.0 138.0,63.0 138.0,63.0 C144.849399946,64.3698799892 150.150718498,67.1004789989 156.0,71.0 C158.0,73.0 162.0,77.0 162.0,77.0 C161.666666667,78.3333333333 161.0,81.0 161.0,81.0 C159.333333333,82.0 157.374368542,82.6256314581 156.0,84.0 C153.629548081,86.370451919 151.849922286,89.2251165712 150.0,92.0 C148.584151035,94.8316979305 147.745234087,96.273829566 147.0,100.0 C146.666666667,101.666666667 146.0,105.0 146.0,105.0 C146.0,107.333333333 145.542395685,109.711978423 146.0,112.0 C146.333333333,113.666666667 147.0,117.0 147.0,117.0 C147.848448774,119.545346323 150.028595479,127.028595479 152.0,129.0 C154.666666667,131.666666667 160.0,137.0 160.0,137.0 C164.843274043,139.421637021 162.945907447,137.945907447 166.0,141.0 C166.0,143.0 166.894427191,145.211145618 166.0,147.0 C165.0,149.0 163.0,153.0 163.0,153.0 C159.595663438,158.106504842 156.419576237,164.580423763 152.0,169.0 L163.0,153.0 C161.300326829,154.699673171 160.699673171,157.300326829 159.0,159.0 L147.0,174.0 C145.333333333,175.666666667 142.0,179.0 142.0,179.0 C140.333333333,180.0 138.885618083,181.528595479 137.0,182.0 C135.666666667,182.333333333 133.0,183.0 133.0,183.0 C131.333333333,183.0 129.616904167,183.404226042 128.0,183.0 C126.666666667,182.666666667 124.0,182.0 124.0,182.0 C122.333333333,181.0 119.0,179.0 119.0,179.0 C112.668100825,176.889366942 106.942277797,174.611544441 100.0,176.0 C98.3333333333,176.333333333 95.0,177.0 95.0,177.0 C92.1715728753,177.942809042 89.8284271247,180.057190958 87.0,181.0 L95.0,177.0 C94.0,177.333333333 93.0135352331,177.710418505 92.0,178.0 L84.0,182.0 C82.6785117341,182.377568076 80.0,183.0 80.0,183.0 C77.5990045999,183.0 73.3403767362,183.404226042 71.0,182.0 C69.3333333333,181.0 66.0,179.0 66.0,179.0 C60.354860639,173.354860639 55.3931932761,168.589789914 51.0,162.0 C49.6666666667,160.0 47.0,156.0 47.0,156.0 C43.6961343119,149.392268624 40.0368709791,143.129048427 38.0,136.0 C37.3333333333,133.666666667 36.3989475644,131.393685387 36.0,129.0 C35.6666666667,127.0 35.0,123.0 35.0,123.0 C35.0,116.6 35.0,110.2 35.0,103.8 C35.0,102.2 34.6862141838,100.568929081 35.0,99.0 C35.3333333333,97.3333333333 36.0,94.0 36.0,94.0 C37.4371716343,89.6884850972 39.3615443328,85.6938379341 42.0,82.0 C42.9687303229,80.643777548 45.0,78.0 45.0,78.0" fill="rgb(0,0,0)"/>
</svg>