<?xml version="1.0" standalone="no"?>
<!DOCTYPE svg PUBLIC "-//W3C//DTD SVG 20010904//EN"
 "http://www.w3.org/TR/2001/REC-SVG-20010904/DTD/svg10.dtd">
<svg version="1.0" xmlns="http://www.w3.org/2000/svg"
 width="514.008810pt" height="513.948451pt" viewBox="0 0 514.008810 513.948451"
 preserveAspectRatio="xMidYMid meet">
<metadata>
Created by potrace 1.12, written by Peter Selinger 2001-2015
</metadata>
<g transform="translate(-14.995595,528.942270) scale(0.100000,-0.100000)"
fill="#000000" stroke="none">
<path d="M407 5274 c-121 -30 -212 -123 -241 -248 -14 -60 -16 -312 -16 -2306
0 -2471 -4 -2319 62 -2419 18 -27 55 -64 83 -84 103 -72 -66 -67 2425 -67
2491 0 2322 -5 2425 67 28 20 65 57 83 84 66 100 62 -52 62 2419 0 2471 4
2319 -62 2419 -18 27 -55 64 -83 84 -103 72 67 67 -2433 66 -1887 -1 -2256 -3
-2305 -15z m4584 -145 c70 -15 123 -68 138 -138 8 -36 11 -345 11 -997 l0
-946 -56 -132 c-30 -72 -59 -134 -63 -139 -4 -4 -50 -14 -102 -22 -52 -9 -105
-19 -119 -24 -118 -41 -135 -39 -198 18 -150 139 -525 467 -537 469 -23 5
-322 -198 -362 -245 -15 -19 -17 -12 141 -407 75 -187 136 -345 136 -352 0 -6
-21 -40 -47 -75 -26 -35 -66 -98 -88 -139 -24 -43 -52 -80 -66 -87 -22 -10
-98 -16 -593 -43 -93 -5 -177 -12 -186 -15 -12 -4 -23 -34 -38 -102 -30 -132
-57 -342 -46 -352 5 -4 97 -45 204 -91 318 -135 515 -221 522 -229 5 -4 15
-49 24 -101 9 -52 24 -122 35 -154 10 -33 19 -70 19 -83 0 -16 -51 -81 -166
-211 -91 -103 -177 -197 -191 -209 -24 -23 -27 -23 -311 -23 -158 0 -293 4
-299 8 -7 4 -26 48 -42 97 -64 192 -108 290 -129 293 -11 2 -83 -6 -159 -18
-76 -12 -165 -26 -198 -31 -67 -10 -176 -26 -246 -35 -42 -6 -48 -4 -61 17
-72 118 -148 249 -148 257 0 5 31 49 68 98 210 275 322 427 322 438 0 15 -209
254 -283 324 -32 29 -60 51 -65 49 -4 -3 -68 -42 -142 -87 -74 -46 -171 -104
-215 -130 -44 -26 -106 -63 -137 -83 -31 -20 -61 -37 -67 -37 -5 0 -43 26 -83
58 -40 32 -94 73 -120 90 -26 18 -50 36 -53 41 -6 11 -2 30 49 221 92 346 108
420 96 435 -11 13 -212 115 -353 179 -102 46 -63 81 -375 -344 -47 -63 -87
-117 -89 -120 -2 -2 -8 2 -13 10 -14 22 -13 2895 1 2961 14 66 69 123 131 137
64 15 4481 15 4549 1z m-923 -2119 c5 -13 3 -13 -11 -1 -14 11 -20 11 -34 0
-16 -13 -17 -12 -4 4 16 21 42 19 49 -3z m52 -39 c0 -5 -8 -15 -17 -22 -15
-12 -16 -12 -10 4 3 9 2 17 -3 17 -6 0 -10 7 -10 15 0 13 4 14 20 5 11 -6 20
-14 20 -19z m-65 -21 c-9 -14 60 -42 102 -41 15 1 21 -4 17 -13 -5 -14 -54
-17 -64 -5 -3 4 -24 10 -47 14 -36 6 -43 4 -43 -9 0 -9 -6 -16 -14 -16 -9 0
-12 7 -9 20 4 13 14 20 31 20 24 0 25 0 7 20 -18 19 -17 20 4 20 12 0 19 -4
16 -10z m-82 -6 c3 -3 3 -12 0 -20 -6 -17 -39 -19 -49 -3 -11 18 33 39 49 23z
m-66 -44 c-2 -11 -7 -23 -12 -27 -4 -5 -5 -2 -1 5 4 7 1 12 -8 12 -19 0 -21
16 -3 23 22 10 27 7 24 -13z m53 -39 c0 -18 -30 -52 -30 -35 0 5 -5 2 -10 -6
-8 -12 -10 -11 -10 7 0 34 11 53 31 53 12 0 19 -7 19 -19z m280 -13 c0 -4 -4
-8 -10 -8 -15 0 -12 -29 4 -45 7 -8 25 -17 39 -20 21 -6 26 -3 29 15 l3 22 24
-21 24 -21 -25 0 c-14 0 -31 -7 -38 -15 -24 -29 -70 -11 -70 26 0 10 -5 19
-10 21 -6 2 -12 20 -14 40 -4 35 -3 36 20 26 13 -6 24 -15 24 -20z m120 -113
c0 -7 -7 -16 -16 -19 -8 -3 -12 -10 -9 -16 3 -5 1 -10 -4 -10 -6 0 -11 9 -11
21 0 11 5 17 10 14 6 -3 10 3 10 15 0 12 5 18 10 15 6 -3 10 -12 10 -20z
m-340 -55 c0 -23 -5 -40 -14 -43 -9 -4 -13 0 -11 11 1 9 -6 24 -17 32 -26 21
-15 49 18 42 20 -4 24 -10 24 -42z m418 -3 c2 -12 4 -33 5 -47 1 -15 9 -26 20
-28 16 -3 18 1 12 20 -5 20 -5 21 5 5 7 -10 9 -21 7 -24 -3 -3 -2 -15 3 -28 5
-13 6 -25 3 -28 -8 -9 -35 21 -29 32 3 5 0 11 -8 14 -16 7 -57 87 -44 87 6 0
5 6 -1 14 -10 12 -9 14 6 10 11 -3 20 -15 21 -27z m-30 -29 c17 -17 15 -28 -4
-28 -22 0 -48 27 -31 33 19 8 22 8 35 -5z m-344 -24 c9 -24 7 -28 -9 -14 -17
14 -20 30 -6 30 5 0 12 -7 15 -16z m456 -34 c0 -16 -2 -30 -4 -30 -2 0 -6 14
-8 30 -3 17 -1 30 4 30 4 0 8 -13 8 -30z m-479 -11 c10 -36 10 -59 0 -59 -6 0
-11 15 -13 33 -2 19 -8 31 -15 30 -7 -2 -13 3 -13 11 0 23 34 11 41 -15z
m1069 -204 c0 -137 -4 -215 -10 -215 -6 0 -10 78 -10 215 0 137 4 215 10 215
6 0 10 -78 10 -215z m-539 183 c1 -7 1 -16 0 -20 -2 -14 40 -29 62 -22 36 12
60 12 92 -2 28 -12 26 -12 -30 -8 -45 4 -56 3 -45 -5 11 -8 12 -13 4 -18 -7
-5 -14 -17 -17 -28 -4 -13 -5 -11 -3 7 2 23 -1 27 -30 32 -24 5 -34 13 -39 34
-4 15 -12 30 -18 34 -8 5 -6 8 6 8 9 0 18 -6 18 -12z m501 -100 c-4 -205 -8
-225 -10 -55 -1 92 1 167 6 167 4 0 6 -51 4 -112z m-915 55 c-3 -10 -5 -2 -5
17 0 19 2 27 5 18 2 -10 2 -26 0 -35z m643 2 c0 -9 -9 -15 -22 -15 -22 1 -23
1 -4 15 25 19 26 19 26 0z m-668 -81 c4 -59 3 -62 -20 -60 -21 1 -23 4 -16 36
3 19 7 42 8 50 1 13 18 41 23 36 0 0 3 -29 5 -62z m458 50 c0 -2 -12 -4 -26
-4 -14 0 -23 4 -20 9 6 8 46 4 46 -5z m210 -14 c0 -13 -11 -13 -30 0 -12 8
-11 10 8 10 12 0 22 -4 22 -10z m-624 -147 c-8 -8 -12 -3 -21 27 l-7 25 17
-23 c9 -13 14 -26 11 -29z m-3406 2 c9 5 11 4 6 -4 -5 -7 -5 -23 -2 -37 5 -19
13 -24 37 -24 17 0 28 -4 24 -10 -3 -5 -12 -7 -20 -3 -10 3 -15 -1 -15 -13 0
-16 -2 -15 -20 4 -12 12 -25 22 -30 22 -6 0 -10 7 -10 15 0 8 -4 15 -10 15
-14 0 -13 23 2 38 9 9 14 9 19 1 4 -7 12 -8 19 -4z m3385 -45 c-13 -20 -25 -9
-25 22 0 32 0 32 16 10 8 -12 12 -27 9 -32z m-3457 -42 c-1 -18 4 -34 10 -36
7 -2 12 -13 12 -25 0 -18 -2 -19 -10 -7 -9 13 -11 13 -19 1 -6 -10 -9 1 -9 35
0 45 4 64 13 64 2 0 3 -14 3 -32z m4202 -28 c0 -5 13 -7 30 -3 28 5 30 4 30
-26 0 -29 11 -37 43 -32 4 0 7 -3 7 -7 0 -11 -114 -34 -134 -26 -27 10 -18 21
14 16 20 -3 30 0 30 8 0 10 3 10 15 0 9 -7 19 -9 23 -5 4 4 1 10 -6 12 -6 3
-9 10 -6 15 5 7 2 8 -5 3 -7 -4 -22 2 -37 16 -25 24 -31 39 -14 39 6 0 10 -4
10 -10z m170 -25 c0 -32 -2 -35 -27 -34 -24 2 -25 2 -5 6 17 3 22 11 22 34 0
16 2 29 5 29 3 0 5 -16 5 -35z m-4126 -25 c5 -5 4 -25 -3 -47 l-10 -38 5 37
c2 20 0 39 -6 43 -5 3 -10 -3 -10 -14 0 -12 -4 -21 -10 -21 -5 0 -9 10 -7 23
1 13 -3 21 -10 20 -7 -2 -13 2 -13 7 0 11 49 3 64 -10z m-304 -35 c0 -13 -7
-25 -15 -28 -16 -7 -30 9 -16 17 5 3 7 15 4 26 -4 16 -2 19 11 14 9 -3 16 -16
16 -29z m4190 20 c0 -1 -7 -18 -15 -36 l-14 -34 -1 42 c0 34 3 41 15 37 8 -4
15 -7 15 -9z m-670 -35 c0 -5 -7 -10 -16 -10 -10 0 -14 -5 -10 -15 7 -19 -14
-28 -41 -18 l-20 8 20 20 c11 11 17 14 13 8 -10 -18 9 -16 24 2 14 17 30 20
30 5z m-3538 -51 c-18 -14 -26 -15 -46 -6 -14 7 -22 15 -18 19 11 9 45 15 66
9 18 -4 18 -5 -2 -22z m265 -16 c1 -33 0 -35 -7 -13 -11 35 -11 50 -2 50 5 0
9 -17 9 -37z m3753 -8 c0 -9 -5 -13 -10 -10 -6 3 -13 -1 -16 -9 -3 -9 -21 -18
-40 -22 -41 -8 -96 -57 -87 -79 3 -9 12 -14 21 -10 12 4 13 3 3 -9 -7 -8 -10
-19 -7 -25 3 -5 -1 -12 -9 -15 -9 -3 -20 -17 -25 -31 -5 -14 -14 -25 -20 -25
-5 0 -10 -7 -10 -15 0 -32 -16 -13 -17 20 -1 34 11 48 20 23 2 -8 10 -1 17 15
7 15 17 27 23 27 5 0 -1 9 -14 19 -21 17 -22 22 -11 38 7 10 17 30 23 46 6 15
17 27 24 27 14 0 28 27 20 39 -2 4 23 9 55 10 49 2 60 -1 60 -14z m-4017 -40
c17 -36 24 -71 9 -49 -4 6 -20 14 -37 17 -23 4 -35 0 -52 -19 -25 -28 -33 -30
-33 -10 0 8 11 23 25 34 14 11 25 24 25 29 0 13 22 33 35 33 6 0 19 -16 28
-35z m3537 -44 c0 -10 -3 -12 -8 -5 -13 20 -66 24 -85 7 -9 -9 -20 -13 -23
-10 -9 9 16 38 27 31 5 -3 9 0 9 5 0 6 8 19 18 29 16 17 18 17 40 -12 12 -16
22 -37 22 -45z m-3650 29 c-14 -26 -30 -34 -30 -16 0 9 5 16 10 16 6 0 10 7
10 16 0 8 5 12 10 9 7 -4 7 -12 0 -25z m4624 4 c3 -9 6 -345 6 -749 0 -602 -2
-735 -13 -744 -27 -22 -183 17 -293 72 -370 186 -520 638 -337 1014 39 80 64
114 138 192 100 106 214 173 360 211 90 23 131 25 139 4z m-534 -3 c0 -5 -7
-11 -15 -15 -15 -5 -20 5 -8 17 9 10 23 9 23 -2z m-3713 -51 c-2 -27 -7 -53
-11 -57 -5 -5 -5 3 -1 16 5 15 3 26 -6 32 -11 6 -11 12 1 33 7 14 15 26 17 26
1 0 1 -22 0 -50z m-47 -16 c0 -3 -9 -17 -20 -31 -21 -27 -27 -15 -10 18 10 18
30 27 30 13z m-217 -41 c-13 -2 -33 -2 -45 0 -13 2 -3 4 22 4 25 0 35 -2 23
-4z m3363 -27 c-11 -22 -15 -24 -20 -11 -7 20 2 38 15 30 5 -4 9 -1 9 6 0 7 2
10 5 7 3 -3 -1 -17 -9 -32z m157 27 c-13 -2 -33 -2 -45 0 -13 2 -3 4 22 4 25
0 35 -2 23 -4z m-3683 -41 c0 -7 9 -22 20 -34 11 -12 20 -25 20 -30 0 -4 -9
-8 -20 -8 -13 0 -20 7 -20 20 0 17 -6 20 -35 18 -38 -2 -57 9 -36 21 7 5 11
13 8 17 -3 5 10 9 29 9 21 0 34 -5 34 -13z m366 -13 c5 1 9 -3 8 -9 -1 -5 -2
-17 -2 -25 -1 -8 -9 -15 -17 -15 -11 0 -15 11 -15 38 0 24 3 32 9 24 4 -8 12
-13 17 -13z m37 -30 c-6 -6 -7 3 -4 23 4 28 6 29 9 9 2 -13 0 -27 -5 -32z
m3067 -10 c0 -20 -15 -26 -24 -10 -8 13 4 42 15 35 5 -3 9 -14 9 -25z m-3548
-196 c-2 -130 -7 -212 -14 -218 -7 -7 -9 9 -4 54 3 35 6 133 6 217 0 85 3 154
8 154 4 0 6 -93 4 -207z m3636 189 c5 -17 -54 -16 -61 2 -4 10 3 13 26 12 17
-1 32 -7 35 -14z m-3678 -416 c-7 -7 -10 56 -10 195 0 113 3 209 8 213 4 4 8
-83 10 -195 1 -128 -1 -206 -8 -213z m3527 397 c-9 -2 -14 -9 -11 -15 4 -6 -2
-5 -15 1 -28 15 -27 17 12 18 17 1 24 -1 14 -4z m-124 -20 c-13 -2 -33 -2 -45
0 -13 2 -3 4 22 4 25 0 35 -2 23 -4z m606 -14 c-8 -16 -14 -18 -22 -10 -9 9
-8 14 3 21 24 16 31 11 19 -11z m-749 1 c0 -6 -35 -9 -87 -8 l-88 2 75 6 c41
4 81 7 88 8 6 1 12 -2 12 -8z m-365 -10 c-3 -5 -12 -10 -20 -10 -8 0 -17 5
-20 10 -4 6 5 10 20 10 15 0 24 -4 20 -10z m158 3 c-19 -3 -33 -10 -33 -18 0
-15 -74 -24 -112 -14 -14 4 1 7 38 8 45 1 63 5 68 16 3 10 17 14 38 13 l33 -1
-32 -4z m325 -3 c8 0 13 -2 11 -4 -8 -8 -258 -38 -276 -33 -10 3 1 5 25 6 23
0 42 4 42 9 0 4 17 6 39 4 21 -2 42 1 45 6 4 6 23 9 44 6 32 -3 34 -2 12 6
-22 9 -21 9 9 5 18 -3 40 -5 49 -5z m122 0 c0 -5 -19 -9 -42 -9 -40 1 -41 2
-13 9 44 11 55 11 55 0z m20 -20 c0 -6 -30 -9 -72 -8 l-73 1 65 7 c36 4 68 7
73 8 4 1 7 -2 7 -8z m-660 -39 c0 -5 -7 -11 -15 -15 -20 -7 -19 -41 2 -77 16
-26 16 -31 3 -40 -11 -8 -9 -9 9 -4 16 5 21 4 17 -4 -4 -6 -13 -11 -21 -11
-16 0 -14 -22 4 -43 10 -13 9 -15 -8 -10 -18 5 -26 21 -22 46 0 4 -4 7 -10 7
-5 0 -8 4 -5 9 4 5 -7 15 -23 22 -22 10 -27 17 -22 29 5 8 7 21 5 28 -1 7 0 8
3 2 10 -21 24 -9 22 18 -2 15 0 33 4 40 9 14 57 17 57 3z m1160 -25 c0 -2 -7
-9 -15 -16 -12 -10 -15 -10 -15 4 0 9 7 16 15 16 8 0 15 -2 15 -4z m-1267 -60
c-2 -37 2 -48 20 -63 37 -29 41 -43 7 -27 -16 9 -30 22 -30 30 0 17 -16 19
-23 2 -4 -10 -6 -10 -6 -1 -1 6 4 15 9 18 6 3 10 21 10 39 0 26 6 46 14 46 1
0 0 -20 -1 -44z m-1260 5 c24 -41 21 -47 -8 -15 -25 27 -32 44 -17 44 4 0 15
-13 25 -29z m2475 -47 c0 -25 -3 -33 -9 -23 -11 18 -12 72 0 65 5 -3 9 -22 9
-42z m-3468 16 c0 -11 -4 -20 -10 -20 -5 0 -10 9 -10 20 0 11 5 20 10 20 6 0
10 -9 10 -20z m907 1 c-1 -15 -4 -17 -19 -8 -13 8 -14 13 -5 19 19 12 26 9 24
-11z m1756 12 c-13 -2 -33 -2 -45 0 -13 2 -3 4 22 4 25 0 35 -2 23 -4z m-1703
-13 c0 -5 -9 -10 -20 -10 -11 0 -20 5 -20 10 0 6 9 10 20 10 11 0 20 -4 20
-10z m2394 -9 c8 -13 -3 -38 -20 -45 -10 -4 -14 3 -14 24 0 29 21 42 34 21z
m69 -18 c-4 -10 -2 -14 4 -10 13 8 26 -50 16 -67 -5 -6 -10 1 -14 19 l-7 30
-1 -27 c0 -16 -6 -28 -12 -28 -8 0 -10 -24 -7 -75 3 -67 1 -75 -14 -75 -18 0
-25 25 -9 34 4 3 9 32 10 63 0 32 6 60 11 61 6 2 10 26 10 53 0 30 4 48 10 44
5 -3 6 -13 3 -22z m-3353 2 c12 -15 6 -35 -11 -35 -5 0 -10 8 -10 18 -1 16 -2
16 -6 0 -2 -10 -14 -18 -26 -18 -20 0 -20 0 -1 15 10 8 15 15 9 15 -10 0 15
20 26 20 4 0 12 -7 19 -15z m794 -27 c20 -17 20 -19 -6 -22 -22 -3 -37 20 -31
45 4 16 8 19 11 9 3 -8 15 -22 26 -32z m96 13 c0 -10 9 -21 20 -24 11 -3 20
-12 20 -21 0 -22 49 -21 66 2 12 16 13 15 14 -7 0 -20 2 -21 15 -11 8 7 15 10
15 7 0 -3 3 -12 6 -21 5 -13 -4 -14 -62 -9 -68 6 -94 19 -94 46 0 8 -9 17 -20
20 -11 3 -20 12 -20 21 0 9 8 16 20 16 13 0 20 -7 20 -19z m-850 -42 c-12 -8
-9 -10 13 -6 32 5 34 -3 8 -27 -19 -18 -47 -14 -36 5 4 5 1 9 -4 9 -6 0 -11 7
-11 15 0 9 9 15 23 15 18 0 19 -2 7 -11z m667 4 c-18 -5 -18 -5 0 -18 17 -13
17 -14 1 -20 -13 -5 -18 -18 -18 -46 0 -21 -4 -39 -10 -39 -13 0 -13 86 0 111
6 10 18 18 28 18 15 -1 15 -2 -1 -6z m1750 -12 c-3 -12 1 -22 12 -26 13 -6 13
-8 -6 -16 -14 -5 -36 -3 -60 5 l-37 13 42 6 c27 5 42 12 42 22 0 8 3 15 6 15
4 0 4 -9 1 -19z m-2956 -91 c6 0 7 -4 4 -10 -15 -24 -25 -6 -23 43 1 50 2 50
5 10 2 -24 9 -43 14 -43z m639 53 c0 -3 -16 -3 -35 -1 -43 5 -47 -10 -4 -19
20 -4 27 -9 20 -16 -6 -6 -6 -14 2 -23 36 -40 36 -40 3 -57 -31 -17 -79 -20
-70 -5 3 5 9 6 14 3 4 -3 11 2 14 11 9 25 7 54 -5 54 -5 0 -7 5 -4 10 3 6 -1
10 -9 10 -18 0 -21 21 -6 36 10 10 80 7 80 -3z m457 10 c-4 -3 -2 -12 4 -20 9
-10 7 -13 -10 -13 -12 0 -19 -4 -16 -10 3 -5 -3 -10 -14 -10 -30 0 -31 23 -2
42 26 16 50 24 38 11z m1963 -28 c-7 -8 -21 -15 -31 -15 -11 0 -19 -5 -19 -10
0 -7 -8 -6 -22 1 -23 12 -23 12 7 22 17 6 32 13 35 17 8 12 35 17 38 8 2 -5
-2 -15 -8 -23z m-1737 -2 c-13 -2 -35 -2 -50 0 -16 2 -5 4 22 4 28 0 40 -2 28
-4z m-600 -44 c12 -12 16 -19 10 -15 -7 4 -13 3 -13 -2 0 -6 7 -12 15 -16 8
-3 15 -12 15 -21 0 -18 -6 -19 -23 -5 -7 6 -20 16 -29 23 -12 8 -16 19 -12 35
8 27 9 27 37 1z m307 1 c0 -11 -5 -20 -11 -20 -6 0 -9 6 -6 14 3 8 1 17 -6 20
-7 2 -4 5 6 5 11 1 17 -6 17 -19z m-523 -52 c-2 -13 -4 -3 -4 22 0 25 2 35 4
23 2 -13 2 -33 0 -45z m993 48 c0 -8 -4 -18 -10 -21 -5 -3 -10 3 -10 14 0 12
5 21 10 21 6 0 10 -6 10 -14z m1675 -5 c-3 -5 -1 -12 5 -16 5 -3 10 -12 10
-18 0 -7 -7 -4 -14 6 -10 13 -21 16 -40 11 -15 -4 -26 -2 -26 4 0 10 20 17 58
21 7 0 11 -3 7 -8z m594 -56 c0 -16 -4 -37 -9 -45 -7 -10 -10 5 -9 50 0 45 3
59 9 45 5 -11 9 -33 9 -50z m-2839 30 c0 -8 -4 -15 -10 -15 -5 0 -10 7 -10 15
0 8 5 15 10 15 6 0 10 -7 10 -15z m74 -16 c15 -14 2 -19 -29 -11 -40 11 -48
37 -9 28 16 -4 33 -12 38 -17z m466 1 c0 -5 -7 -10 -15 -10 -8 0 -15 5 -15 10
0 6 7 10 15 10 8 0 15 -4 15 -10z m1823 -23 c12 -2 6 -4 -15 -4 -33 0 -35 2
-25 19 10 15 13 16 15 4 2 -8 13 -17 25 -19z m-3218 -6 c2 -12 0 -19 -6 -16
-5 4 -7 11 -4 16 4 5 2 9 -4 9 -5 0 -11 -6 -14 -12 -2 -7 -8 -10 -12 -5 -5 4
0 14 11 21 22 17 23 16 29 -13z m61 -18 c1 -12 4 -28 7 -37 7 -18 -8 -22 -18
-6 -4 6 -10 8 -15 5 -5 -3 -11 -1 -15 5 -3 5 1 10 9 10 21 0 20 26 -1 40 -16
9 -15 10 7 8 18 -2 25 -9 26 -25z m42 0 c2 -11 -4 -23 -12 -26 -12 -5 -16 1
-16 24 0 35 23 36 28 2z m3172 7 c0 -5 -7 -10 -15 -10 -8 0 -15 5 -15 10 0 6
7 10 15 10 8 0 15 -4 15 -10z m-1950 -25 c16 10 20 -12 5 -25 -12 -10 -15 -9
-15 4 0 9 -4 16 -10 16 -5 0 -10 8 -10 18 1 16 1 16 11 -1 6 -9 14 -15 19 -12z
m2030 -12 c-1 -27 -1 -27 -15 -9 -12 16 -12 22 -2 28 17 11 17 11 17 -19z
m-2737 10 c-13 -2 -33 -2 -45 0 -13 2 -3 4 22 4 25 0 35 -2 23 -4z m3167 -20
c0 -2 -7 -11 -15 -20 -9 -8 -13 -23 -10 -32 3 -12 0 -18 -10 -18 -10 0 -15 10
-15 29 0 15 5 28 10 28 6 0 10 7 10 15 0 9 6 12 15 9 8 -4 15 -8 15 -11z
m-3635 -52 c-10 -16 -25 -3 -25 22 0 20 1 20 16 5 9 -9 13 -21 9 -27z m3183
-18 c1 15 6 27 11 27 5 0 7 -8 4 -19 -3 -10 0 -22 6 -25 14 -9 14 -76 1 -96
-6 -10 -8 3 -5 40 4 39 3 49 -4 35 -5 -11 -11 -31 -12 -45 -2 -33 -17 65 -17
110 1 32 2 31 8 -10 5 -30 7 -36 8 -17z m-3098 7 c0 -15 -7 -20 -27 -20 -16 0
-35 5 -43 11 -11 8 -5 9 24 4 33 -5 38 -4 33 9 -4 9 -2 16 3 16 6 0 10 -9 10
-20z m-347 -31 c288 -146 551 -375 738 -644 91 -131 104 -156 88 -166 -21 -13
-687 -11 -750 2 -70 15 -123 68 -138 138 -12 55 -16 646 -5 675 8 21 17 20 67
-5z m1351 6 c-5 -11 -2 -14 12 -9 15 5 14 1 -6 -18 -30 -30 -36 -29 -34 9 3
36 2 33 19 33 9 0 12 -6 9 -15z m-924 -16 c0 -4 -11 -10 -25 -13 -16 -4 -22
-11 -19 -21 4 -8 1 -15 -5 -15 -12 0 -14 20 -5 44 6 15 54 19 54 5z m155 1
c-3 -5 -13 -10 -21 -10 -8 0 -14 5 -14 10 0 6 9 10 21 10 11 0 17 -4 14 -10z
m687 1 c-7 -4 -14 -21 -15 -37 -2 -25 -7 -29 -32 -31 -17 -1 -22 1 -12 3 10 3
17 15 17 30 0 13 6 24 13 24 8 0 7 4 -3 10 -12 7 -8 10 15 10 20 0 25 -3 17
-9z m2598 -5 c0 -8 -4 -26 -10 -40 -6 -17 -6 -26 0 -26 6 0 10 -12 9 -27 l-1
-28 -13 30 c-20 42 -19 105 0 105 8 0 15 -6 15 -14z m-3330 -41 c0 -20 -5 -25
-26 -25 -24 0 -53 23 -54 43 0 4 18 7 40 7 36 0 40 -2 40 -25z m780 -15 c0 -5
-4 -10 -10 -10 -5 0 -10 -6 -10 -14 0 -8 -9 -21 -20 -29 -10 -7 -24 -25 -29
-40 -6 -15 -16 -27 -24 -27 -7 0 -14 -13 -15 -32 -3 -31 -8 -45 -16 -37 -8 9
19 135 32 148 12 12 13 12 10 -2 -2 -9 2 -16 7 -16 6 0 9 11 8 24 -1 14 2 25
7 25 6 0 10 -6 10 -12 0 -7 7 -2 16 10 16 23 34 29 34 12z m2397 -72 c-2 -13
-4 -3 -4 22 0 25 2 35 4 23 2 -13 2 -33 0 -45z m70 0 c-2 -13 -4 -3 -4 22 0
25 2 35 4 23 2 -13 2 -33 0 -45z m98 -17 c-6 -31 -9 -33 -15 -16 -12 28 -12
43 0 25 7 -11 10 -3 11 30 1 26 4 35 6 21 3 -13 2 -40 -2 -60z m-3275 43 c0
-11 -28 -33 -34 -27 -13 13 -5 33 14 33 11 0 20 -3 20 -6z m3329 -36 c0 -13 3
-34 7 -48 7 -25 7 -25 -13 -7 -26 22 -37 58 -17 50 8 -3 14 1 14 11 0 9 2 16
5 16 3 0 4 -10 4 -22z m-3189 -13 c0 -14 -4 -25 -10 -25 -11 0 -14 33 -3 43
11 11 13 8 13 -18z m-80 -25 c0 -5 11 -10 24 -10 18 0 25 -7 30 -31 7 -35 -2
-78 -19 -96 -16 -16 -28 -4 -14 13 6 7 8 23 4 35 -5 15 -9 18 -15 9 -5 -8 -10
-9 -14 -2 -4 6 0 14 8 19 12 7 12 10 0 21 -8 7 -14 9 -14 4 0 -5 -11 -9 -24
-9 -16 0 -23 4 -20 13 2 8 6 21 9 29 5 17 45 21 45 5z m2805 -10 c-3 -6 5 -14
18 -19 24 -9 37 -29 37 -57 0 -8 -4 -14 -10 -14 -5 0 -10 12 -10 26 0 14 -4
23 -10 19 -5 -3 -10 -1 -10 5 0 6 -4 9 -9 6 -5 -3 -12 1 -15 10 -9 23 -7 34 5
34 5 0 7 -5 4 -10z m-2869 -12 c5 -7 3 -8 -6 -3 -10 6 -12 4 -6 -10 5 -15 4
-16 -9 -5 -13 11 -13 15 -3 21 17 11 16 11 24 -3z m571 -6 c0 -10 -7 -24 -14
-31 -16 -14 -16 -10 -3 23 11 30 19 34 17 8z m2815 -214 c4 -37 2 -48 -8 -48
-8 0 -14 9 -14 21 0 11 -4 17 -10 14 -6 -4 -10 6 -10 24 0 16 4 32 10 36 5 3
6 15 1 28 -7 19 -7 47 -1 97 2 17 25 -103 32 -172z m-2752 140 c21 -23 27 -52
9 -46 -6 2 -9 7 -7 11 2 5 -5 13 -14 18 -10 6 -18 17 -18 24 0 20 6 19 30 -7z
m2773 -45 c5 -26 4 -26 -9 -9 -7 10 -11 23 -8 27 8 14 11 11 17 -18z m-3239 2
c-3 -8 -15 -17 -27 -21 -20 -6 -20 -7 -2 -20 10 -8 16 -14 12 -14 -4 0 1 -9
10 -20 16 -19 18 -19 25 -3 3 10 7 12 7 6 1 -18 18 -16 25 3 4 10 2 13 -7 8
-9 -5 -9 -4 1 7 6 7 12 19 12 27 0 15 24 42 37 42 4 0 8 -25 8 -55 0 -30 2
-54 5 -52 3 1 17 -9 30 -22 14 -13 21 -25 15 -27 -27 -11 -37 -24 -37 -48 0
-38 -34 -35 -43 4 -4 18 -11 27 -17 24 -7 -4 -8 -2 -4 4 12 19 23 14 30 -14 9
-33 15 -27 20 16 6 55 0 61 -53 54 -45 -6 -48 -5 -74 29 -32 42 -32 42 -9 66
20 23 44 27 36 6z m183 -62 c-2 -16 -4 -3 -4 27 0 30 2 43 4 28 2 -16 2 -40 0
-55z m2583 35 c0 -39 -1 -40 -15 -22 -8 10 -14 24 -15 29 0 6 5 3 10 -5 8 -12
10 -9 10 13 0 15 2 27 5 27 3 0 5 -19 5 -42z m25 0 c-9 -61 -21 -66 -17 -8 2
28 8 50 13 50 6 0 7 -18 4 -42z m-2280 -16 c-7 -2 -16 -11 -18 -20 -4 -14 -6
-13 -12 5 -4 13 -11 20 -16 17 -5 -3 -9 -1 -9 5 0 13 53 19 62 6 4 -5 1 -11
-7 -13z m-35 -66 c0 -7 10 -18 23 -24 18 -9 19 -11 4 -11 -10 -1 -25 5 -33 13
-16 16 -19 51 -4 41 6 -3 10 -12 10 -19z m2318 -10 c1 -20 -4 -26 -28 -31 -32
-7 -71 7 -51 19 6 4 11 2 11 -3 0 -23 40 -11 46 14 8 32 19 32 22 1z m527 -24
c-3 -3 -5 0 -5 6 0 7 -4 12 -10 12 -5 0 -10 -10 -10 -22 0 -19 -2 -20 -10 -8
-15 24 -12 48 8 52 16 4 39 -29 27 -40z m-2749 9 c-12 -19 -24 -12 -19 10 4
13 9 17 15 11 6 -6 7 -15 4 -21z m27 -51 c-2 -2 -8 2 -13 10 -5 8 -12 11 -17
7 -4 -4 -1 -17 6 -28 7 -12 10 -24 7 -27 -9 -9 -24 10 -31 39 -5 20 -2 27 17
36 20 9 24 7 29 -11 3 -11 4 -23 2 -26z m2063 -60 c8 0 14 7 14 15 0 17 2 17
24 9 13 -5 10 -13 -17 -45 -17 -21 -38 -39 -45 -39 -7 0 -10 -4 -7 -10 3 -5 1
-10 -4 -10 -6 0 -11 9 -11 20 0 11 7 20 16 20 8 0 12 5 9 10 -4 6 -11 7 -17 4
-6 -4 -8 -1 -4 7 3 8 9 23 13 34 6 18 8 18 11 3 2 -10 10 -18 18 -18z m681 23
c-4 -3 -2 -12 4 -19 6 -7 8 -18 4 -24 -5 -8 -12 -3 -19 12 -9 16 -9 25 -2 30
14 10 22 10 13 1z m-2699 -37 c-7 -33 8 -57 22 -36 8 12 10 13 10 1 0 -36 31
-51 106 -51 40 0 74 4 76 9 4 11 54 15 118 11 38 -3 32 -5 -35 -12 -162 -17
-227 -20 -238 -9 -6 6 -19 11 -29 11 -18 0 -45 44 -42 70 3 27 4 30 10 30 4 0
4 -11 2 -24z m2800 -11 c6 0 11 -4 10 -10 -2 -5 -8 -9 -15 -9 -6 1 -9 -5 -6
-14 4 -10 2 -13 -5 -8 -8 4 -12 0 -13 -11 0 -14 -3 -13 -12 6 -9 19 -9 25 1
29 6 2 12 16 13 30 1 23 2 24 7 7 4 -11 13 -20 20 -20z m-3294 19 c20 -8 21
-21 1 -21 -8 0 -16 6 -19 14 -6 15 -4 15 18 7z m59 -55 c-6 -6 -7 3 -4 23 4
28 6 29 9 9 2 -13 0 -27 -5 -32z m1113 27 c20 -20 18 -26 -10 -26 -26 0 -47
19 -24 21 7 1 2 5 -12 9 l-25 8 28 1 c16 1 35 -5 43 -13z m-186 -16 c-20 -13
-73 -13 -65 0 3 6 23 10 43 10 28 0 33 -3 22 -10z m248 -28 c22 -44 32 -72 27
-72 -3 0 -10 12 -16 27 -8 22 -12 24 -19 13 -7 -11 -10 -8 -11 15 -2 27 -3 25
-9 -10 l-7 -40 -2 41 c-2 60 15 72 37 26z m1212 -37 c-7 -8 -20 -14 -29 -14
-15 1 -15 2 0 6 10 2 20 14 24 26 4 14 8 17 12 9 3 -7 -1 -19 -7 -27z m-1310
0 c0 -8 12 -23 26 -34 l27 -21 -43 0 c-33 0 -41 3 -36 15 3 9 0 15 -8 15 -11
0 -12 5 -3 24 12 24 37 25 37 1z m-1017 -37 c-2 -4 -10 -5 -18 -1 -9 3 -15 -1
-15 -11 0 -21 -16 -21 -24 0 -9 22 -8 24 9 18 9 -4 19 4 27 22 l13 27 6 -24
c3 -13 4 -27 2 -31z m3337 41 c0 -5 -11 -9 -25 -9 -14 0 -25 4 -25 9 0 5 11 9
25 9 14 0 25 -4 25 -9z m-2661 -8 c11 -7 10 -10 -5 -15 -20 -6 -195 -4 -189 3
14 14 175 24 194 12z m-229 -32 c-14 -4 -18 -8 -10 -9 8 -1 2 -8 -15 -15 -27
-12 -11 -14 152 -17 259 -4 583 5 558 16 -11 5 -27 9 -35 8 -10 -1 -11 0 -2 4
6 3 10 10 6 15 -10 17 12 9 34 -11 50 -47 58 -47 -545 -48 -374 0 -562 3 -550
9 9 6 80 9 162 7 l145 -3 0 25 c0 24 3 25 63 26 41 0 53 -2 37 -7z m1818 -1
c7 10 12 9 23 -4 8 -10 9 -15 3 -11 -5 3 -23 -5 -39 -19 -32 -27 -34 -28 -55
-14 -12 8 -9 10 13 10 29 0 39 20 10 20 -16 1 -16 2 1 15 16 12 22 12 28 2 6
-9 10 -9 16 1z m-1643 -8 c47 -7 45 -7 -32 -9 -50 0 -83 3 -83 9 0 11 43 12
115 0z m2827 -4 c23 -17 13 -26 -29 -26 -18 0 -33 -4 -33 -9 0 -4 -251 -9
-557 -9 -324 -1 -550 2 -538 7 11 5 260 10 554 10 294 1 537 4 540 8 3 5 12 8
19 9 34 3 37 4 22 14 -8 5 -10 10 -5 10 6 -1 18 -7 27 -14z m-139 -3 c-13 -2
-33 -2 -45 0 -13 2 -3 4 22 4 25 0 35 -2 23 -4z m-3323 -33 c0 -13 -11 -13
-30 0 -12 8 -11 10 8 10 12 0 22 -4 22 -10z"/>
<path d="M2045 5023 c-99 -14 -282 -57 -291 -69 -6 -7 -14 -80 -17 -161 -13
-281 -25 -472 -31 -481 -3 -6 -32 -25 -64 -42 -31 -18 -81 -50 -111 -71 -30
-22 -59 -39 -65 -39 -6 0 -141 52 -300 115 -159 63 -295 115 -301 115 -22 0
-225 -285 -225 -314 0 -6 91 -112 202 -236 110 -124 207 -234 214 -245 11 -17
10 -30 -7 -85 -11 -35 -24 -93 -29 -128 -5 -36 -13 -69 -18 -74 -5 -5 -134
-62 -287 -128 -153 -66 -284 -125 -292 -132 -12 -10 -14 -27 -8 -83 8 -92 50
-284 64 -298 10 -10 53 -14 452 -37 97 -5 184 -12 193 -16 9 -4 28 -28 41 -54
14 -27 45 -78 71 -114 l46 -66 -119 -297 c-65 -163 -119 -300 -121 -304 -7
-17 289 -229 319 -229 7 0 51 35 98 78 123 111 363 325 383 340 14 11 26 10
70 -3 29 -9 89 -23 133 -30 87 -16 84 -14 128 -115 15 -36 34 -78 42 -95 7
-16 23 -52 34 -80 11 -27 47 -111 79 -185 l60 -135 68 3 c61 2 111 10 267 42
21 4 43 12 47 16 8 8 17 125 39 500 4 77 11 146 15 153 4 6 26 21 49 33 23 11
74 43 113 70 l71 50 293 -116 c161 -64 301 -116 310 -116 23 0 230 280 230
310 0 3 -97 115 -215 248 -118 133 -215 247 -215 254 0 6 9 41 19 77 11 36 22
89 26 116 10 71 17 80 87 108 142 58 484 208 505 222 21 14 23 21 17 73 -12
108 -52 294 -67 310 -16 15 -55 18 -477 38 -97 4 -152 11 -167 20 -13 8 -35
38 -49 66 -15 29 -44 75 -65 103 -22 29 -39 57 -39 64 0 7 47 131 104 274 117
296 132 335 125 340 -131 105 -258 193 -302 210 -12 4 -33 -7 -70 -40 -76 -67
-196 -175 -319 -285 -60 -54 -114 -98 -121 -98 -6 0 -40 9 -73 20 -34 10 -89
22 -122 26 -37 4 -67 13 -76 23 -8 9 -30 54 -49 101 -62 152 -199 465 -209
478 -10 12 -33 13 -93 5z m18 -185 c8 -18 25 -55 37 -83 13 -27 33 -75 46
-105 19 -48 47 -113 111 -260 39 -91 42 -93 163 -110 36 -5 116 -24 178 -41
l113 -32 32 30 c18 16 77 69 132 119 55 49 105 94 111 99 160 145 190 169 209
161 26 -10 115 -80 115 -91 0 -6 -31 -87 -69 -180 -37 -94 -72 -181 -76 -195
-4 -14 -20 -53 -36 -86 -50 -110 -49 -117 21 -213 61 -83 69 -96 124 -198 18
-32 38 -55 55 -62 14 -5 100 -12 191 -16 253 -9 408 -19 415 -27 6 -5 35 -131
35 -150 0 -8 -54 -34 -141 -68 -30 -12 -81 -34 -114 -49 -33 -15 -112 -50
-176 -76 -64 -27 -125 -55 -135 -62 -10 -8 -21 -34 -26 -68 -18 -121 -27 -164
-53 -253 -28 -92 -28 -93 -8 -115 137 -155 269 -303 273 -307 3 -3 32 -36 64
-73 66 -76 66 -81 5 -159 -35 -44 -43 -45 -107 -19 -26 11 -135 54 -242 95
-107 42 -203 81 -212 86 -36 20 -82 11 -133 -28 -71 -52 -120 -84 -200 -127
-38 -21 -73 -43 -77 -49 -8 -12 -15 -89 -23 -241 -9 -184 -26 -380 -33 -386
-12 -10 -130 -32 -144 -26 -8 3 -65 126 -128 273 -63 148 -124 279 -137 291
-14 15 -34 23 -57 23 -51 0 -158 23 -264 56 -86 28 -75 34 -347 -211 -148
-134 -198 -175 -212 -175 -24 0 -123 74 -123 92 0 14 113 312 149 393 22 50
55 133 62 159 10 34 3 48 -61 131 -26 33 -69 100 -96 149 -27 48 -58 92 -69
96 -18 7 -194 20 -475 36 -63 4 -122 10 -131 15 -14 7 -47 144 -37 154 2 3 67
32 144 65 146 63 170 74 207 90 169 73 213 94 219 103 4 6 14 54 24 107 9 52
27 133 40 180 33 117 32 124 -28 189 -29 31 -67 73 -83 93 -17 20 -69 78 -116
130 -126 137 -149 164 -149 178 0 17 71 121 86 127 7 3 137 -45 289 -106 152
-61 284 -111 293 -111 9 0 52 26 95 58 72 54 97 70 200 124 64 34 68 46 78
260 15 324 21 397 33 407 13 11 52 17 113 20 38 1 43 -2 56 -31z"/>
<path d="M2095 3904 c-126 -28 -293 -125 -382 -223 -37 -40 -93 -116 -93 -126
0 -4 -8 -19 -19 -33 -50 -71 -97 -291 -86 -400 54 -542 593 -850 1081 -618 60
28 156 96 199 140 45 46 106 133 137 196 52 105 69 177 75 310 5 99 2 127 -17
200 -72 266 -244 452 -500 537 -98 32 -289 41 -395 17z m351 -152 c100 -33
164 -73 244 -152 71 -72 121 -147 142 -215 43 -138 48 -241 18 -359 -70 -274
-305 -456 -589 -456 -332 0 -600 266 -602 598 -1 110 12 167 61 267 82 169
208 274 391 325 93 25 242 22 335 -8z"/>
</g>
</svg>
