<?xml version="1.0" standalone="no"?>
<!DOCTYPE svg PUBLIC "-//W3C//DTD SVG 20010904//EN"
 "http://www.w3.org/TR/2001/REC-SVG-20010904/DTD/svg10.dtd">
<svg version="1.0" xmlns="http://www.w3.org/2000/svg"
 width="508.905062pt" height="639.733700pt" viewBox="0 0 508.905062 639.733700"
 preserveAspectRatio="xMidYMid meet">
<metadata>
Created by potrace 1.12, written by Peter Selinger 2001-2015
</metadata>
<g transform="translate(-11.971149,652.891451) scale(0.100000,-0.100000)"
fill="#000000" stroke="none">
<path d="M1425 6510 c-38 -20 -43 -20 -104 -4 -73 18 -118 13 -176 -20 -29
-17 -56 -23 -101 -24 -63 0 -93 -10 -131 -44 -15 -15 -29 -19 -47 -14 -64 16
-227 -34 -253 -78 -5 -7 -34 -15 -69 -18 -146 -13 -212 -101 -170 -224 15 -45
15 -49 -4 -78 -35 -57 -35 -104 -1 -171 24 -48 29 -67 24 -101 -7 -52 10 -103
51 -158 26 -33 32 -49 28 -75 -6 -45 24 -116 68 -159 28 -28 39 -47 43 -80 7
-56 48 -115 113 -161 39 -27 55 -47 67 -81 21 -59 70 -105 142 -134 48 -20 60
-30 75 -64 21 -48 74 -86 142 -103 26 -7 48 -16 48 -20 0 -4 -21 -19 -47 -35
-81 -46 -145 -95 -227 -174 -184 -176 -271 -381 -291 -685 -8 -121 -29 -170
-91 -209 -65 -41 -185 -173 -243 -267 -222 -360 -198 -798 60 -1118 37 -46 49
-72 67 -143 12 -48 42 -144 67 -215 25 -70 56 -175 69 -233 13 -58 40 -142 59
-187 97 -230 316 -457 534 -554 82 -37 60 -23 234 -141 154 -103 267 -165 401
-218 62 -25 102 -50 158 -99 217 -188 428 -276 691 -288 304 -14 542 71 790
283 57 49 102 77 157 100 138 56 279 132 418 226 160 109 138 96 244 147 290
139 521 440 580 755 7 39 34 129 60 200 26 72 58 170 70 219 18 76 30 98 83
170 143 189 206 389 194 615 -11 237 -111 469 -275 643 -34 37 -84 82 -111
100 -72 50 -89 89 -101 242 -31 367 -170 606 -463 798 -50 33 -93 64 -95 69
-2 4 12 10 30 14 62 12 134 62 157 109 18 36 29 46 72 62 67 23 134 87 148
140 7 27 20 46 38 57 74 44 142 139 143 197 0 14 18 43 44 71 47 50 72 114 61
157 -4 18 2 34 25 63 47 59 63 107 56 164 -4 41 -1 56 21 93 33 56 34 113 4
170 -21 42 -21 45 -5 93 39 120 -27 205 -170 218 -49 4 -67 10 -90 33 -38 37
-112 61 -195 63 -53 2 -74 8 -108 30 -33 22 -54 28 -110 30 -47 2 -79 9 -103
23 -52 31 -100 36 -175 18 -62 -14 -67 -14 -103 5 -49 27 -100 25 -172 -4 -51
-21 -71 -24 -130 -19 -61 5 -75 3 -123 -21 -42 -20 -69 -26 -121 -26 -78 0
-109 -13 -178 -77 -42 -40 -52 -45 -82 -40 -110 18 -329 -243 -414 -494 l-19
-54 -18 55 c-45 136 -147 304 -243 398 -73 71 -127 102 -168 95 -30 -5 -40 0
-84 41 -64 60 -103 76 -184 76 -51 0 -75 6 -113 26 -43 23 -56 25 -122 21 -64
-5 -83 -2 -133 19 -70 29 -121 31 -173 4z m262 -251 c60 -47 61 -47 79 -28 10
11 17 33 16 55 l-1 35 32 -23 c18 -12 58 -47 90 -77 53 -51 59 -53 74 -38 10
9 16 30 15 51 -1 20 3 36 7 36 5 0 52 -46 105 -102 102 -109 108 -111 123 -45
3 15 9 27 14 27 9 0 101 -112 148 -183 125 -185 165 -403 98 -533 -26 -51 -87
-113 -144 -146 l-30 -17 -59 46 c-165 129 -442 296 -670 404 -166 78 -544 227
-544 214 0 -2 39 -25 88 -51 511 -274 802 -465 1005 -663 37 -36 67 -71 67
-77 0 -6 -16 -43 -35 -82 -97 -194 -362 -312 -700 -312 l-60 0 33 26 c36 28
41 50 14 58 -10 4 -63 10 -118 16 -109 11 -174 26 -174 40 0 6 5 10 12 10 13
0 48 29 48 41 0 4 -44 21 -97 38 -54 17 -118 42 -142 55 l-44 23 35 7 c19 3
43 12 53 20 18 13 12 17 -65 56 -47 23 -112 61 -144 84 l-59 41 34 3 c49 4 79
11 79 20 0 4 -33 31 -73 60 -41 29 -88 68 -106 86 l-32 33 46 5 c25 3 49 9 53
12 3 4 -32 44 -79 89 -48 45 -91 91 -97 103 -10 20 -9 20 41 17 94 -7 97 16
12 86 -48 40 -105 106 -105 123 0 4 27 8 61 8 58 0 60 1 54 23 -10 34 -61 138
-85 175 l-22 32 130 0 c169 0 174 2 126 51 l-36 37 47 7 c49 8 159 -6 237 -30
26 -7 49 -11 52 -8 14 14 4 49 -21 76 l-28 30 40 -7 c22 -4 82 -19 134 -33 78
-21 95 -23 102 -12 13 21 12 25 -28 64 l-38 37 30 -7 c68 -16 153 -48 202 -76
50 -29 52 -29 62 -10 15 28 14 39 -10 73 l-22 30 54 -27 c30 -15 82 -49 116
-76z m2112 67 c-15 -26 -17 -39 -9 -60 5 -14 12 -26 15 -26 2 0 26 13 52 29
45 27 129 59 198 75 l30 7 -32 -33 c-31 -32 -45 -78 -23 -78 5 0 47 11 92 24
46 13 103 26 127 30 l43 7 -26 -31 c-47 -57 -29 -85 42 -63 76 22 181 35 229
28 l45 -7 -36 -37 c-48 -49 -42 -51 125 -51 71 0 129 -2 129 -4 0 -3 -14 -25
-30 -50 -31 -45 -56 -98 -71 -148 l-8 -28 65 0 c64 0 65 0 53 -22 -7 -13 -48
-58 -93 -101 -91 -87 -91 -100 2 -95 28 2 52 -1 52 -6 0 -5 -43 -51 -96 -103
-53 -51 -94 -96 -91 -99 3 -4 27 -9 52 -12 l46 -5 -38 -39 c-21 -22 -68 -60
-105 -85 -38 -26 -68 -50 -68 -54 0 -9 38 -19 80 -19 l35 -1 -35 -29 c-19 -16
-83 -54 -143 -85 -59 -31 -105 -61 -102 -66 3 -5 27 -15 52 -22 l47 -14 -55
-25 c-30 -14 -93 -38 -141 -53 -49 -15 -88 -31 -88 -37 0 -5 16 -18 35 -29 19
-12 35 -22 35 -24 0 -7 -149 -34 -220 -40 -42 -4 -82 -10 -89 -14 -18 -12 1
-46 37 -65 26 -15 25 -15 -36 -16 -101 0 -248 19 -339 46 -205 59 -334 164
-388 314 l-16 45 82 78 c202 190 583 441 966 635 62 31 113 60 113 64 0 4 -44
-9 -97 -28 -425 -153 -776 -335 -1063 -550 l-109 -81 -49 27 c-58 34 -107 88
-136 149 -33 71 -29 221 8 321 37 99 100 206 182 309 l68 84 13 -47 c8 -25 18
-46 23 -46 5 0 29 21 52 48 24 26 67 72 98 102 l55 55 5 -44 c8 -71 26 -71 98
-1 35 33 76 67 91 75 27 13 27 13 23 -16 -2 -17 3 -40 12 -54 l17 -26 57 45
c44 35 156 105 169 106 1 0 -7 -15 -18 -34z"/>
</g>
</svg>
